{
	"patcher" : 	{
		"fileversion" : 1,
		"appversion" : 		{
			"major" : 6,
			"minor" : 1,
			"revision" : 8,
			"architecture" : "x86"
		}
,
		"rect" : [ 104.0, 44.0, 1176.0, 814.0 ],
		"bglocked" : 0,
		"openinpresentation" : 0,
		"default_fontsize" : 12.0,
		"default_fontface" : 0,
		"default_fontname" : "Arial",
		"gridonopen" : 0,
		"gridsize" : [ 15.0, 15.0 ],
		"gridsnaponopen" : 0,
		"statusbarvisible" : 2,
		"toolbarvisible" : 1,
		"boxanimatetime" : 200,
		"imprint" : 0,
		"enablehscroll" : 1,
		"enablevscroll" : 1,
		"devicewidth" : 0.0,
		"description" : "",
		"digest" : "",
		"tags" : "",
		"boxes" : [ 			{
				"box" : 				{
					"fontsize" : 12.0,
					"id" : "obj-106",
					"maxclass" : "o.display",
					"numinlets" : 1,
					"numoutlets" : 1,
					"outlettype" : [ "" ],
					"patching_rect" : [ 421.904175, 1105.935303, 150.0, 34.0 ],
					"textcolor" : [ 0.0, 0.0, 0.0, 1.0 ]
				}

			}
, 			{
				"box" : 				{
					"fontname" : "Arial",
					"fontsize" : 12.0,
					"id" : "obj-104",
					"maxclass" : "message",
					"numinlets" : 2,
					"numoutlets" : 1,
					"outlettype" : [ "" ],
					"patching_rect" : [ 241.172043, 558.226868, 37.0, 18.0 ],
					"text" : "clear"
				}

			}
, 			{
				"box" : 				{
					"fontsize" : 12.0,
					"id" : "obj-102",
					"linecount" : 1351,
					"maxclass" : "o.display",
					"numinlets" : 1,
					"numoutlets" : 1,
					"outlettype" : [ "" ],
					"patching_rect" : [ 806.912048, 424.492828, 185.0, 18378.0 ],
					"text" : "/pattern : [{\n\t/time/play : 0.,\n\t/sample/start : 0.,\n\t/sample/name : \"hh0\",\n\t/amp : 0.059\n}, {\n\t/time/play : 0.111524,\n\t/sample/start : 0.,\n\t/sample/name : \"hh2\",\n\t/amp : 0.58\n}, {\n\t/time/play : 0.223048,\n\t/sample/start : 0.,\n\t/sample/name : \"hh3\",\n\t/amp : 0.198\n}, {\n\t/time/play : 0.334572,\n\t/sample/start : 0.,\n\t/sample/name : \"hh0\",\n\t/amp : 0.893\n}, {\n\t/time/play : 0.446097,\n\t/sample/start : 0.,\n\t/sample/name : \"hh3\",\n\t/amp : 0.043\n}, {\n\t/time/play : 0.557621,\n\t/sample/start : 0.,\n\t/sample/name : \"hh0\",\n\t/amp : 0.744\n}, {\n\t/time/play : 0.669145,\n\t/sample/start : 0.,\n\t/sample/name : \"hh2\",\n\t/amp : 0.457\n}, {\n\t/time/play : 0.780669,\n\t/sample/start : 0.,\n\t/sample/name : \"hh3\",\n\t/amp : 0.085\n}, {\n\t/time/play : 0.892193,\n\t/sample/start : 0.,\n\t/sample/name : \"hh2\",\n\t/amp : 0.823\n}, {\n\t/time/play : 1.00372,\n\t/sample/start : 0.,\n\t/sample/name : \"hh3\",\n\t/amp : 0.311\n}, {\n\t/time/play : 1.11524,\n\t/sample/start : 0.,\n\t/sample/name : \"hh3\",\n\t/amp : 0.996\n}, {\n\t/time/play : 1.22677,\n\t/sample/start : 0.,\n\t/sample/name : \"hh2\",\n\t/amp : 0.917\n}, {\n\t/time/play : 1.33829,\n\t/sample/start : 0.,\n\t/sample/name : \"hh3\",\n\t/amp : 0.75\n}, {\n\t/time/play : 1.44981,\n\t/sample/start : 0.,\n\t/sample/name : \"hh1\",\n\t/amp : 0.33\n}, {\n\t/time/play : 1.56134,\n\t/sample/start : 0.,\n\t/sample/name : \"hh1\",\n\t/amp : 0.869\n}, {\n\t/time/play : 1.67286,\n\t/sample/start : 0.,\n\t/sample/name : \"hh2\",\n\t/amp : 0.156\n}, {\n\t/time/play : 1.78439,\n\t/sample/start : 0.,\n\t/sample/name : \"hh2\",\n\t/amp : 0.796\n}, {\n\t/time/play : 1.89591,\n\t/sample/start : 0.,\n\t/sample/name : \"hh2\",\n\t/amp : 0.236\n}, {\n\t/time/play : 2.00743,\n\t/sample/start : 0.,\n\t/sample/name : \"hh1\",\n\t/amp : 0.397\n}, {\n\t/time/play : 2.11896,\n\t/sample/start : 0.,\n\t/sample/name : \"hh2\",\n\t/amp : 0.705\n}, {\n\t/time/play : 2.23048,\n\t/sample/start : 0.,\n\t/sample/name : \"hh2\",\n\t/amp : 0.963\n}, {\n\t/time/play : 2.34201,\n\t/sample/start : 0.,\n\t/sample/name : \"hh1\",\n\t/amp : 0.047\n}, {\n\t/time/play : 2.45353,\n\t/sample/start : 0.,\n\t/sample/name : \"hh1\",\n\t/amp : 0.735\n}, {\n\t/time/play : 2.56506,\n\t/sample/start : 0.,\n\t/sample/name : \"hh2\",\n\t/amp : 0.535\n}, {\n\t/time/play : 2.67658,\n\t/sample/start : 0.,\n\t/sample/name : \"hh0\",\n\t/amp : 0.761\n}, {\n\t/time/play : 2.7881,\n\t/sample/start : 0.,\n\t/sample/name : \"hh3\",\n\t/amp : 0.352\n}, {\n\t/time/play : 2.89963,\n\t/sample/start : 0.,\n\t/sample/name : \"hh3\",\n\t/amp : 0.272\n}, {\n\t/time/play : 3.01115,\n\t/sample/start : 0.,\n\t/sample/name : \"hh2\",\n\t/amp : 0.943\n}, {\n\t/time/play : 3.12268,\n\t/sample/start : 0.,\n\t/sample/name : \"hh2\",\n\t/amp : 0.85\n}, {\n\t/time/play : 3.2342,\n\t/sample/start : 0.,\n\t/sample/name : \"hh0\",\n\t/amp : 0.713\n}, {\n\t/time/play : 3.34573,\n\t/sample/start : 0.,\n\t/sample/name : \"hh3\",\n\t/amp : 0.283\n}, {\n\t/time/play : 3.45725,\n\t/sample/start : 0.,\n\t/sample/name : \"hh0\",\n\t/amp : 0.131\n}, {\n\t/time/play : 3.56877,\n\t/sample/start : 0.,\n\t/sample/name : \"hh3\",\n\t/amp : 0.319\n}, {\n\t/time/play : 3.6803,\n\t/sample/start : 0.,\n\t/sample/name : \"hh1\",\n\t/amp : 0.621\n}, {\n\t/time/play : 3.79182,\n\t/sample/start : 0.,\n\t/sample/name : \"hh2\",\n\t/amp : 0.598\n}, {\n\t/time/play : 3.90335,\n\t/sample/start : 0.,\n\t/sample/name : \"hh1\",\n\t/amp : 0.499\n}, {\n\t/time/play : 4.01487,\n\t/sample/start : 0.,\n\t/sample/name : \"hh3\",\n\t/amp : 0.768\n}, {\n\t/time/play : 4.12639,\n\t/sample/start : 0.,\n\t/sample/name : \"hh0\",\n\t/amp : 0.692\n}, {\n\t/time/play : 4.23792,\n\t/sample/start : 0.,\n\t/sample/name : \"hh2\",\n\t/amp : 0.532\n}, {\n\t/time/play : 4.34944,\n\t/sample/start : 0.,\n\t/sample/name : \"hh1\",\n\t/amp : 0.634\n}, {\n\t/time/play : 4.46097,\n\t/sample/start : 0.,\n\t/sample/name : \"hh1\",\n\t/amp : 0.95\n}, {\n\t/time/play : 4.57249,\n\t/sample/start : 0.,\n\t/sample/name : \"hh2\",\n\t/amp : 0.703\n}, {\n\t/time/play : 4.68401,\n\t/sample/start : 0.,\n\t/sample/name : \"hh0\",\n\t/amp : 0.816\n}, {\n\t/time/play : 4.79554,\n\t/sample/start : 0.,\n\t/sample/name : \"hh3\",\n\t/amp : 0.24\n}, {\n\t/time/play : 4.90706,\n\t/sample/start : 0.,\n\t/sample/name : \"hh1\",\n\t/amp : 0.093\n}, {\n\t/time/play : 5.01859,\n\t/sample/start : 0.,\n\t/sample/name : \"hh2\",\n\t/amp : 0.252\n}, {\n\t/time/play : 5.13011,\n\t/sample/start : 0.,\n\t/sample/name : \"hh3\",\n\t/amp : 0.088\n}, {\n\t/time/play : 5.24164,\n\t/sample/start : 0.,\n\t/sample/name : \"hh0\",\n\t/amp : 0.508\n}, {\n\t/time/play : 5.35316,\n\t/sample/start : 0.,\n\t/sample/name : \"hh0\",\n\t/amp : 0.607\n}, {\n\t/time/play : 5.46468,\n\t/sample/start : 0.,\n\t/sample/name : \"hh3\",\n\t/amp : 0.353\n}, {\n\t/time/play : 5.57621,\n\t/sample/start : 0.,\n\t/sample/name : \"hh2\",\n\t/amp : 0.966\n}, {\n\t/time/play : 5.68773,\n\t/sample/start : 0.,\n\t/sample/name : \"hh0\",\n\t/amp : 0.758\n}, {\n\t/time/play : 5.79926,\n\t/sample/start : 0.,\n\t/sample/name : \"hh2\",\n\t/amp : 0.163\n}, {\n\t/time/play : 5.91078,\n\t/sample/start : 0.,\n\t/sample/name : \"hh2\",\n\t/amp : 0.06\n}, {\n\t/time/play : 6.02231,\n\t/sample/start : 0.,\n\t/sample/name : \"hh1\",\n\t/amp : 0.248\n}, {\n\t/time/play : 6.13383,\n\t/sample/start : 0.,\n\t/sample/name : \"hh1\",\n\t/amp : 0.03\n}, {\n\t/time/play : 6.24535,\n\t/sample/start : 0.,\n\t/sample/name : \"hh0\",\n\t/amp : 0.21\n}, {\n\t/time/play : 6.35688,\n\t/sample/start : 0.,\n\t/sample/name : \"hh2\",\n\t/amp : 0.083\n}, {\n\t/time/play : 6.4684,\n\t/sample/start : 0.,\n\t/sample/name : \"hh3\",\n\t/amp : 0.026\n}, {\n\t/time/play : 6.57993,\n\t/sample/start : 0.,\n\t/sample/name : \"hh1\",\n\t/amp : 0.611\n}, {\n\t/time/play : 6.69145,\n\t/sample/start : 0.,\n\t/sample/name : \"hh2\",\n\t/amp : 0.717\n}, {\n\t/time/play : 6.80297,\n\t/sample/start : 0.,\n\t/sample/name : \"hh1\",\n\t/amp : 0.901\n}, {\n\t/time/play : 6.9145,\n\t/sample/start : 0.,\n\t/sample/name : \"hh1\",\n\t/amp : 0.466\n}, {\n\t/time/play : 7.02602,\n\t/sample/start : 0.,\n\t/sample/name : \"hh2\",\n\t/amp : 0.572\n}, {\n\t/time/play : 7.13755,\n\t/sample/start : 0.,\n\t/sample/name : \"hh3\",\n\t/amp : 0.496\n}, {\n\t/time/play : 7.24907,\n\t/sample/start : 0.,\n\t/sample/name : \"hh1\",\n\t/amp : 0.667\n}, {\n\t/time/play : 7.36059,\n\t/sample/start : 0.,\n\t/sample/name : \"hh3\",\n\t/amp : 0.384\n}, {\n\t/time/play : 7.47212,\n\t/sample/start : 0.,\n\t/sample/name : \"hh0\",\n\t/amp : 0.368\n}, {\n\t/time/play : 7.58364,\n\t/sample/start : 0.,\n\t/sample/name : \"hh1\",\n\t/amp : 0.647\n}, {\n\t/time/play : 7.69517,\n\t/sample/start : 0.,\n\t/sample/name : \"hh2\",\n\t/amp : 0.784\n}, {\n\t/time/play : 7.80669,\n\t/sample/start : 0.,\n\t/sample/name : \"hh0\",\n\t/amp : 0.136\n}, {\n\t/time/play : 7.91822,\n\t/sample/start : 0.,\n\t/sample/name : \"hh1\",\n\t/amp : 0.437\n}, {\n\t/time/play : 8.02974,\n\t/sample/start : 0.,\n\t/sample/name : \"hh1\",\n\t/amp : 0.302\n}, {\n\t/time/play : 8.14126,\n\t/sample/start : 0.,\n\t/sample/name : \"hh3\",\n\t/amp : 0.554\n}, {\n\t/time/play : 8.25279,\n\t/sample/start : 0.,\n\t/sample/name : \"hh1\",\n\t/amp : 0.688\n}, {\n\t/time/play : 8.36431,\n\t/sample/start : 0.,\n\t/sample/name : \"hh1\",\n\t/amp : 0.081\n}, {\n\t/time/play : 8.47584,\n\t/sample/start : 0.,\n\t/sample/name : \"hh2\",\n\t/amp : 0.216\n}, {\n\t/time/play : 8.58736,\n\t/sample/start : 0.,\n\t/sample/name : \"hh1\",\n\t/amp : 0.935\n}, {\n\t/time/play : 8.69888,\n\t/sample/start : 0.,\n\t/sample/name : \"hh0\",\n\t/amp : 0.338\n}, {\n\t/time/play : 8.81041,\n\t/sample/start : 0.,\n\t/sample/name : \"hh2\",\n\t/amp : 0.037\n}, {\n\t/time/play : 8.92193,\n\t/sample/start : 0.,\n\t/sample/name : \"hh0\",\n\t/amp : 0.737\n}, {\n\t/time/play : 9.03346,\n\t/sample/start : 0.,\n\t/sample/name : \"hh2\",\n\t/amp : 0.271\n}, {\n\t/time/play : 9.14498,\n\t/sample/start : 0.,\n\t/sample/name : \"hh1\",\n\t/amp : 0.116\n}, {\n\t/time/play : 9.25651,\n\t/sample/start : 0.,\n\t/sample/name : \"hh0\",\n\t/amp : 0.81\n}, {\n\t/time/play : 9.36803,\n\t/sample/start : 0.,\n\t/sample/name : \"hh2\",\n\t/amp : 0.266\n}, {\n\t/time/play : 9.47955,\n\t/sample/start : 0.,\n\t/sample/name : \"hh3\",\n\t/amp : 0.793\n}, {\n\t/time/play : 9.59108,\n\t/sample/start : 0.,\n\t/sample/name : \"hh0\",\n\t/amp : 0.434\n}, {\n\t/time/play : 9.7026,\n\t/sample/start : 0.,\n\t/sample/name : \"hh1\",\n\t/amp : 0.207\n}, {\n\t/time/play : 9.81413,\n\t/sample/start : 0.,\n\t/sample/name : \"hh3\",\n\t/amp : 0.736\n}, {\n\t/time/play : 9.92565,\n\t/sample/start : 0.,\n\t/sample/name : \"hh3\",\n\t/amp : 0.622\n}, {\n\t/time/play : 10.0372,\n\t/sample/start : 0.,\n\t/sample/name : \"hh2\",\n\t/amp : 0.12\n}, {\n\t/time/play : 10.1487,\n\t/sample/start : 0.,\n\t/sample/name : \"hh0\",\n\t/amp : 0.899\n}, {\n\t/time/play : 10.2602,\n\t/sample/start : 0.,\n\t/sample/name : \"hh2\",\n\t/amp : 0.785\n}, {\n\t/time/play : 10.3717,\n\t/sample/start : 0.,\n\t/sample/name : \"hh3\",\n\t/amp : 0.436\n}, {\n\t/time/play : 10.4833,\n\t/sample/start : 0.,\n\t/sample/name : \"hh2\",\n\t/amp : 0.194\n}, {\n\t/time/play : 10.5948,\n\t/sample/start : 0.,\n\t/sample/name : \"hh2\",\n\t/amp : 0.336\n}, {\n\t/time/play : 10.7063,\n\t/sample/start : 0.,\n\t/sample/name : \"hh2\",\n\t/amp : 0.758\n}, {\n\t/time/play : 10.8178,\n\t/sample/start : 0.,\n\t/sample/name : \"hh2\",\n\t/amp : 0.393\n}, {\n\t/time/play : 10.9294,\n\t/sample/start : 0.,\n\t/sample/name : \"hh2\",\n\t/amp : 0.835\n}, {\n\t/time/play : 11.0409,\n\t/sample/start : 0.,\n\t/sample/name : \"hh0\",\n\t/amp : 0.915\n}, {\n\t/time/play : 11.1524,\n\t/sample/start : 0.,\n\t/sample/name : \"hh0\",\n\t/amp : 0.508\n}, {\n\t/time/play : 11.2639,\n\t/sample/start : 0.,\n\t/sample/name : \"hh0\",\n\t/amp : 0.209\n}, {\n\t/time/play : 11.3755,\n\t/sample/start : 0.,\n\t/sample/name : \"hh0\",\n\t/amp : 0.918\n}, {\n\t/time/play : 11.487,\n\t/sample/start : 0.,\n\t/sample/name : \"hh2\",\n\t/amp : 0.896\n}, {\n\t/time/play : 11.5985,\n\t/sample/start : 0.,\n\t/sample/name : \"hh1\",\n\t/amp : 0.235\n}, {\n\t/time/play : 11.71,\n\t/sample/start : 0.,\n\t/sample/name : \"hh3\",\n\t/amp : 0.248\n}, {\n\t/time/play : 11.8216,\n\t/sample/start : 0.,\n\t/sample/name : \"hh2\",\n\t/amp : 0.994\n}, {\n\t/time/play : 11.9331,\n\t/sample/start : 0.,\n\t/sample/name : \"hh2\",\n\t/amp : 0.222\n}, {\n\t/time/play : 12.0446,\n\t/sample/start : 0.,\n\t/sample/name : \"hh3\",\n\t/amp : 0.125\n}, {\n\t/time/play : 12.1561,\n\t/sample/start : 0.,\n\t/sample/name : \"hh3\",\n\t/amp : 0.17\n}, {\n\t/time/play : 12.2677,\n\t/sample/start : 0.,\n\t/sample/name : \"hh3\",\n\t/amp : 0.287\n}, {\n\t/time/play : 12.3792,\n\t/sample/start : 0.,\n\t/sample/name : \"hh3\",\n\t/amp : 0.108\n}, {\n\t/time/play : 12.4907,\n\t/sample/start : 0.,\n\t/sample/name : \"hh1\",\n\t/amp : 0.255\n}, {\n\t/time/play : 12.6022,\n\t/sample/start : 0.,\n\t/sample/name : \"hh0\",\n\t/amp : 0.167\n}, {\n\t/time/play : 12.7138,\n\t/sample/start : 0.,\n\t/sample/name : \"hh2\",\n\t/amp : 0.487\n}, {\n\t/time/play : 12.8253,\n\t/sample/start : 0.,\n\t/sample/name : \"hh1\",\n\t/amp : 0.834\n}, {\n\t/time/play : 12.9368,\n\t/sample/start : 0.,\n\t/sample/name : \"hh1\",\n\t/amp : 0.682\n}, {\n\t/time/play : 13.0483,\n\t/sample/start : 0.,\n\t/sample/name : \"hh0\",\n\t/amp : 0.182\n}, {\n\t/time/play : 13.1599,\n\t/sample/start : 0.,\n\t/sample/name : \"hh0\",\n\t/amp : 0.14\n}, {\n\t/time/play : 13.2714,\n\t/sample/start : 0.,\n\t/sample/name : \"hh0\",\n\t/amp : 0.909\n}, {\n\t/time/play : 13.3829,\n\t/sample/start : 0.,\n\t/sample/name : \"hh3\",\n\t/amp : 0.864\n}, {\n\t/time/play : 13.4944,\n\t/sample/start : 0.,\n\t/sample/name : \"hh3\",\n\t/amp : 0.418\n}, {\n\t/time/play : 13.6059,\n\t/sample/start : 0.,\n\t/sample/name : \"hh2\",\n\t/amp : 0.863\n}, {\n\t/time/play : 13.7175,\n\t/sample/start : 0.,\n\t/sample/name : \"hh3\",\n\t/amp : 0.612\n}, {\n\t/time/play : 13.829,\n\t/sample/start : 0.,\n\t/sample/name : \"hh3\",\n\t/amp : 0.184\n}, {\n\t/time/play : 13.9405,\n\t/sample/start : 0.,\n\t/sample/name : \"hh3\",\n\t/amp : 0.51\n}, {\n\t/time/play : 14.052,\n\t/sample/start : 0.,\n\t/sample/name : \"hh2\",\n\t/amp : 0.866\n}, {\n\t/time/play : 14.1636,\n\t/sample/start : 0.,\n\t/sample/name : \"hh3\",\n\t/amp : 0.217\n}, {\n\t/time/play : 14.2751,\n\t/sample/start : 0.,\n\t/sample/name : \"hh1\",\n\t/amp : 0.533\n}, {\n\t/time/play : 14.3866,\n\t/sample/start : 0.,\n\t/sample/name : \"hh0\",\n\t/amp : 0.619\n}, {\n\t/time/play : 14.4981,\n\t/sample/start : 0.,\n\t/sample/name : \"hh1\",\n\t/amp : 0.797\n}, {\n\t/time/play : 14.6097,\n\t/sample/start : 0.,\n\t/sample/name : \"hh2\",\n\t/amp : 0.391\n}, {\n\t/time/play : 14.7212,\n\t/sample/start : 0.,\n\t/sample/name : \"hh1\",\n\t/amp : 0.967\n}, {\n\t/time/play : 14.8327,\n\t/sample/start : 0.,\n\t/sample/name : \"hh1\",\n\t/amp : 0.111\n}, {\n\t/time/play : 14.9442,\n\t/sample/start : 0.,\n\t/sample/name : \"hh2\",\n\t/amp : 0.216\n}, {\n\t/time/play : 0.,\n\t/sample/start : 0.,\n\t/sample/name : \"hh1\",\n\t/amp : 0.533\n}, {\n\t/time/play : 0.111524,\n\t/sample/start : 0.,\n\t/sample/name : \"hh2\",\n\t/amp : 0.263\n}, {\n\t/time/play : 0.223048,\n\t/sample/start : 0.,\n\t/sample/name : \"hh2\",\n\t/amp : 0.141\n}, {\n\t/time/play : 0.334572,\n\t/sample/start : 0.,\n\t/sample/name : \"hh1\",\n\t/amp : 0.855\n}, {\n\t/time/play : 0.446097,\n\t/sample/start : 0.,\n\t/sample/name : \"hh2\",\n\t/amp : 0.891\n}, {\n\t/time/play : 0.557621,\n\t/sample/start : 0.,\n\t/sample/name : \"hh0\",\n\t/amp : 0.762\n}, {\n\t/time/play : 0.669145,\n\t/sample/start : 0.,\n\t/sample/name : \"hh3\",\n\t/amp : 0.334\n}, {\n\t/time/play : 0.780669,\n\t/sample/start : 0.,\n\t/sample/name : \"hh3\",\n\t/amp : 0.572\n}, {\n\t/time/play : 0.892193,\n\t/sample/start : 0.,\n\t/sample/name : \"hh2\",\n\t/amp : 0.714\n}, {\n\t/time/play : 1.00372,\n\t/sample/start : 0.,\n\t/sample/name : \"hh1\",\n\t/amp : 0.771\n}, {\n\t/time/play : 1.11524,\n\t/sample/start : 0.,\n\t/sample/name : \"hh0\",\n\t/amp : 0.143\n}, {\n\t/time/play : 1.22677,\n\t/sample/start : 0.,\n\t/sample/name : \"hh2\",\n\t/amp : 0.777\n}, {\n\t/time/play : 1.33829,\n\t/sample/start : 0.,\n\t/sample/name : \"hh2\",\n\t/amp : 0.439\n}, {\n\t/time/play : 1.44981,\n\t/sample/start : 0.,\n\t/sample/name : \"hh3\",\n\t/amp : 0.097\n}, {\n\t/time/play : 1.56134,\n\t/sample/start : 0.,\n\t/sample/name : \"hh1\",\n\t/amp : 0.395\n}, {\n\t/time/play : 1.67286,\n\t/sample/start : 0.,\n\t/sample/name : \"hh3\",\n\t/amp : 0.53\n}, {\n\t/time/play : 1.78439,\n\t/sample/start : 0.,\n\t/sample/name : \"hh1\",\n\t/amp : 0.015\n}, {\n\t/time/play : 1.89591,\n\t/sample/start : 0.,\n\t/sample/name : \"hh1\",\n\t/amp : 0.847\n}, {\n\t/time/play : 2.00743,\n\t/sample/start : 0.,\n\t/sample/name : \"hh1\",\n\t/amp : 0.497\n}, {\n\t/time/play : 2.11896,\n\t/sample/start : 0.,\n\t/sample/name : \"hh0\",\n\t/amp : 0.305\n}, {\n\t/time/play : 2.23048,\n\t/sample/start : 0.,\n\t/sample/name : \"hh2\",\n\t/amp : 0.733\n}, {\n\t/time/play : 2.34201,\n\t/sample/start : 0.,\n\t/sample/name : \"hh1\",\n\t/amp : 0.056\n}, {\n\t/time/play : 2.45353,\n\t/sample/start : 0.,\n\t/sample/name : \"hh2\",\n\t/amp : 0.336\n}, {\n\t/time/play : 2.56506,\n\t/sample/start : 0.,\n\t/sample/name : \"hh0\",\n\t/amp : 0.227\n}, {\n\t/time/play : 2.67658,\n\t/sample/start : 0.,\n\t/sample/name : \"hh3\",\n\t/amp : 0.872\n}, {\n\t/time/play : 2.7881,\n\t/sample/start : 0.,\n\t/sample/name : \"hh2\",\n\t/amp : 0.467\n}, {\n\t/time/play : 2.89963,\n\t/sample/start : 0.,\n\t/sample/name : \"hh0\",\n\t/amp : 0.901\n}, {\n\t/time/play : 3.01115,\n\t/sample/start : 0.,\n\t/sample/name : \"hh3\",\n\t/amp : 0.01\n}, {\n\t/time/play : 3.12268,\n\t/sample/start : 0.,\n\t/sample/name : \"hh3\",\n\t/amp : 0.206\n}, {\n\t/time/play : 3.2342,\n\t/sample/start : 0.,\n\t/sample/name : \"hh2\",\n\t/amp : 0.664\n}, {\n\t/time/play : 3.34573,\n\t/sample/start : 0.,\n\t/sample/name : \"hh2\",\n\t/amp : 0.069\n}, {\n\t/time/play : 3.45725,\n\t/sample/start : 0.,\n\t/sample/name : \"hh1\",\n\t/amp : 0.425\n}, {\n\t/time/play : 3.56877,\n\t/sample/start : 0.,\n\t/sample/name : \"hh2\",\n\t/amp : 0.254\n}, {\n\t/time/play : 3.6803,\n\t/sample/start : 0.,\n\t/sample/name : \"hh1\",\n\t/amp : 0.499\n}, {\n\t/time/play : 3.79182,\n\t/sample/start : 0.,\n\t/sample/name : \"hh1\",\n\t/amp : 0.271\n}, {\n\t/time/play : 3.90335,\n\t/sample/start : 0.,\n\t/sample/name : \"hh2\",\n\t/amp : 0.549\n}, {\n\t/time/play : 4.01487,\n\t/sample/start : 0.,\n\t/sample/name : \"hh3\",\n\t/amp : 0.795\n}, {\n\t/time/play : 4.12639,\n\t/sample/start : 0.,\n\t/sample/name : \"hh3\",\n\t/amp : 0.622\n}, {\n\t/time/play : 4.23792,\n\t/sample/start : 0.,\n\t/sample/name : \"hh1\",\n\t/amp : 0.334\n}, {\n\t/time/play : 4.34944,\n\t/sample/start : 0.,\n\t/sample/name : \"hh3\",\n\t/amp : 0.69\n}, {\n\t/time/play : 4.46097,\n\t/sample/start : 0.,\n\t/sample/name : \"hh1\",\n\t/amp : 0.539\n}, {\n\t/time/play : 4.57249,\n\t/sample/start : 0.,\n\t/sample/name : \"hh2\",\n\t/amp : 0.503\n}, {\n\t/time/play : 4.68401,\n\t/sample/start : 0.,\n\t/sample/name : \"hh1\",\n\t/amp : 0.004\n}, {\n\t/time/play : 4.79554,\n\t/sample/start : 0.,\n\t/sample/name : \"hh3\",\n\t/amp : 0.403\n}, {\n\t/time/play : 4.90706,\n\t/sample/start : 0.,\n\t/sample/name : \"hh1\",\n\t/amp : 0.975\n}, {\n\t/time/play : 5.01859,\n\t/sample/start : 0.,\n\t/sample/name : \"hh0\",\n\t/amp : 0.528\n}, {\n\t/time/play : 5.13011,\n\t/sample/start : 0.,\n\t/sample/name : \"hh3\",\n\t/amp : 0.482\n}, {\n\t/time/play : 5.24164,\n\t/sample/start : 0.,\n\t/sample/name : \"hh0\",\n\t/amp : 0.083\n}, {\n\t/time/play : 5.35316,\n\t/sample/start : 0.,\n\t/sample/name : \"hh3\",\n\t/amp : 0.524\n}, {\n\t/time/play : 5.46468,\n\t/sample/start : 0.,\n\t/sample/name : \"hh1\",\n\t/amp : 0.821\n}, {\n\t/time/play : 5.57621,\n\t/sample/start : 0.,\n\t/sample/name : \"hh2\",\n\t/amp : 0.833\n}, {\n\t/time/play : 5.68773,\n\t/sample/start : 0.,\n\t/sample/name : \"hh2\",\n\t/amp : 0.034\n}, {\n\t/time/play : 5.79926,\n\t/sample/start : 0.,\n\t/sample/name : \"hh1\",\n\t/amp : 0.148\n}, {\n\t/time/play : 5.91078,\n\t/sample/start : 0.,\n\t/sample/name : \"hh2\",\n\t/amp : 0.466\n}, {\n\t/time/play : 6.02231,\n\t/sample/start : 0.,\n\t/sample/name : \"hh2\",\n\t/amp : 0.13\n}, {\n\t/time/play : 6.13383,\n\t/sample/start : 0.,\n\t/sample/name : \"hh1\",\n\t/amp : 0.281\n}, {\n\t/time/play : 6.24535,\n\t/sample/start : 0.,\n\t/sample/name : \"hh1\",\n\t/amp : 0.127\n}, {\n\t/time/play : 6.35688,\n\t/sample/start : 0.,\n\t/sample/name : \"hh3\",\n\t/amp : 0.694\n}, {\n\t/time/play : 6.4684,\n\t/sample/start : 0.,\n\t/sample/name : \"hh0\",\n\t/amp : 0.656\n}, {\n\t/time/play : 6.57993,\n\t/sample/start : 0.,\n\t/sample/name : \"hh1\",\n\t/amp : 0.563\n}, {\n\t/time/play : 6.69145,\n\t/sample/start : 0.,\n\t/sample/name : \"hh3\",\n\t/amp : 0.215\n}, {\n\t/time/play : 6.80297,\n\t/sample/start : 0.,\n\t/sample/name : \"hh0\",\n\t/amp : 0.037\n}, {\n\t/time/play : 6.9145,\n\t/sample/start : 0.,\n\t/sample/name : \"hh3\",\n\t/amp : 0.355\n}, {\n\t/time/play : 7.02602,\n\t/sample/start : 0.,\n\t/sample/name : \"hh0\",\n\t/amp : 0.339\n}, {\n\t/time/play : 7.13755,\n\t/sample/start : 0.,\n\t/sample/name : \"hh1\",\n\t/amp : 0.629\n}, {\n\t/time/play : 7.24907,\n\t/sample/start : 0.,\n\t/sample/name : \"hh3\",\n\t/amp : 0.898\n}, {\n\t/time/play : 7.36059,\n\t/sample/start : 0.,\n\t/sample/name : \"hh0\",\n\t/amp : 0.548\n}, {\n\t/time/play : 7.47212,\n\t/sample/start : 0.,\n\t/sample/name : \"hh2\",\n\t/amp : 0.984\n}, {\n\t/time/play : 7.58364,\n\t/sample/start : 0.,\n\t/sample/name : \"hh0\",\n\t/amp : 0.849\n}, {\n\t/time/play : 7.69517,\n\t/sample/start : 0.,\n\t/sample/name : \"hh2\",\n\t/amp : 0.064\n}, {\n\t/time/play : 7.80669,\n\t/sample/start : 0.,\n\t/sample/name : \"hh0\",\n\t/amp : 0.854\n}, {\n\t/time/play : 7.91822,\n\t/sample/start : 0.,\n\t/sample/name : \"hh3\",\n\t/amp : 0.072\n}, {\n\t/time/play : 8.02974,\n\t/sample/start : 0.,\n\t/sample/name : \"hh3\",\n\t/amp : 0.845\n}, {\n\t/time/play : 8.14126,\n\t/sample/start : 0.,\n\t/sample/name : \"hh2\",\n\t/amp : 0.622\n}, {\n\t/time/play : 8.25279,\n\t/sample/start : 0.,\n\t/sample/name : \"hh1\",\n\t/amp : 0.49\n}, {\n\t/time/play : 8.36431,\n\t/sample/start : 0.,\n\t/sample/name : \"hh1\",\n\t/amp : 0.912\n}, {\n\t/time/play : 8.47584,\n\t/sample/start : 0.,\n\t/sample/name : \"hh0\",\n\t/amp : 0.456\n}, {\n\t/time/play : 8.58736,\n\t/sample/start : 0.,\n\t/sample/name : \"hh2\",\n\t/amp : 0.445\n}, {\n\t/time/play : 8.69888,\n\t/sample/start : 0.,\n\t/sample/name : \"hh1\",\n\t/amp : 0.316\n}, {\n\t/time/play : 8.81041,\n\t/sample/start : 0.,\n\t/sample/name : \"hh2\",\n\t/amp : 0.147\n}, {\n\t/time/play : 8.92193,\n\t/sample/start : 0.,\n\t/sample/name : \"hh3\",\n\t/amp : 0.689\n}, {\n\t/time/play : 9.03346,\n\t/sample/start : 0.,\n\t/sample/name : \"hh1\",\n\t/amp : 0.884\n}, {\n\t/time/play : 9.14498,\n\t/sample/start : 0.,\n\t/sample/name : \"hh3\",\n\t/amp : 0.083\n}, {\n\t/time/play : 9.25651,\n\t/sample/start : 0.,\n\t/sample/name : \"hh0\",\n\t/amp : 0.203\n}, {\n\t/time/play : 9.36803,\n\t/sample/start : 0.,\n\t/sample/name : \"hh3\",\n\t/amp : 0.618\n}, {\n\t/time/play : 9.47955,\n\t/sample/start : 0.,\n\t/sample/name : \"hh2\",\n\t/amp : 0.25\n}, {\n\t/time/play : 9.59108,\n\t/sample/start : 0.,\n\t/sample/name : \"hh0\",\n\t/amp : 0.163\n}, {\n\t/time/play : 9.7026,\n\t/sample/start : 0.,\n\t/sample/name : \"hh2\",\n\t/amp : 0.311\n}, {\n\t/time/play : 9.81413,\n\t/sample/start : 0.,\n\t/sample/name : \"hh0\",\n\t/amp : 0.575\n}, {\n\t/time/play : 9.92565,\n\t/sample/start : 0.,\n\t/sample/name : \"hh0\",\n\t/amp : 0.046\n}, {\n\t/time/play : 10.0372,\n\t/sample/start : 0.,\n\t/sample/name : \"hh2\",\n\t/amp : 0.312\n}, {\n\t/time/play : 10.1487,\n\t/sample/start : 0.,\n\t/sample/name : \"hh1\",\n\t/amp : 0.349\n}, {\n\t/time/play : 10.2602,\n\t/sample/start : 0.,\n\t/sample/name : \"hh3\",\n\t/amp : 0.325\n}, {\n\t/time/play : 10.3717,\n\t/sample/start : 0.,\n\t/sample/name : \"hh2\",\n\t/amp : 0.796\n}, {\n\t/time/play : 10.4833,\n\t/sample/start : 0.,\n\t/sample/name : \"hh3\",\n\t/amp : 0.66\n}, {\n\t/time/play : 10.5948,\n\t/sample/start : 0.,\n\t/sample/name : \"hh1\",\n\t/amp : 0.404\n}, {\n\t/time/play : 10.7063,\n\t/sample/start : 0.,\n\t/sample/name : \"hh3\",\n\t/amp : 0.138\n}, {\n\t/time/play : 10.8178,\n\t/sample/start : 0.,\n\t/sample/name : \"hh3\",\n\t/amp : 0.825\n}, {\n\t/time/play : 10.9294,\n\t/sample/start : 0.,\n\t/sample/name : \"hh2\",\n\t/amp : 0.359\n}, {\n\t/time/play : 11.0409,\n\t/sample/start : 0.,\n\t/sample/name : \"hh3\",\n\t/amp : 0.178\n}, {\n\t/time/play : 11.1524,\n\t/sample/start : 0.,\n\t/sample/name : \"hh0\",\n\t/amp : 0.94\n}, {\n\t/time/play : 11.2639,\n\t/sample/start : 0.,\n\t/sample/name : \"hh1\",\n\t/amp : 0.986\n}, {\n\t/time/play : 11.3755,\n\t/sample/start : 0.,\n\t/sample/name : \"hh2\",\n\t/amp : 0.094\n}, {\n\t/time/play : 11.487,\n\t/sample/start : 0.,\n\t/sample/name : \"hh0\",\n\t/amp : 0.341\n}, {\n\t/time/play : 11.5985,\n\t/sample/start : 0.,\n\t/sample/name : \"hh3\",\n\t/amp : 0.354\n}, {\n\t/time/play : 11.71,\n\t/sample/start : 0.,\n\t/sample/name : \"hh2\",\n\t/amp : 0.998\n}, {\n\t/time/play : 11.8216,\n\t/sample/start : 0.,\n\t/sample/name : \"hh1\",\n\t/amp : 0.679\n}, {\n\t/time/play : 11.9331,\n\t/sample/start : 0.,\n\t/sample/name : \"hh1\",\n\t/amp : 0.77\n}, {\n\t/time/play : 12.0446,\n\t/sample/start : 0.,\n\t/sample/name : \"hh1\",\n\t/amp : 0.977\n}, {\n\t/time/play : 12.1561,\n\t/sample/start : 0.,\n\t/sample/name : \"hh0\",\n\t/amp : 0.11\n}, {\n\t/time/play : 12.2677,\n\t/sample/start : 0.,\n\t/sample/name : \"hh1\",\n\t/amp : 0.773\n}, {\n\t/time/play : 12.3792,\n\t/sample/start : 0.,\n\t/sample/name : \"hh1\",\n\t/amp : 0.405\n}, {\n\t/time/play : 12.4907,\n\t/sample/start : 0.,\n\t/sample/name : \"hh2\",\n\t/amp : 0.922\n}, {\n\t/time/play : 12.6022,\n\t/sample/start : 0.,\n\t/sample/name : \"hh1\",\n\t/amp : 0.989\n}, {\n\t/time/play : 12.7138,\n\t/sample/start : 0.,\n\t/sample/name : \"hh1\",\n\t/amp : 0.587\n}, {\n\t/time/play : 12.8253,\n\t/sample/start : 0.,\n\t/sample/name : \"hh2\",\n\t/amp : 0.598\n}, {\n\t/time/play : 12.9368,\n\t/sample/start : 0.,\n\t/sample/name : \"hh3\",\n\t/amp : 0.436\n}, {\n\t/time/play : 13.0483,\n\t/sample/start : 0.,\n\t/sample/name : \"hh1\",\n\t/amp : 0.227\n}, {\n\t/time/play : 13.1599,\n\t/sample/start : 0.,\n\t/sample/name : \"hh3\",\n\t/amp : 0.462\n}, {\n\t/time/play : 13.2714,\n\t/sample/start : 0.,\n\t/sample/name : \"hh1\",\n\t/amp : 0.532\n}, {\n\t/time/play : 13.3829,\n\t/sample/start : 0.,\n\t/sample/name : \"hh1\",\n\t/amp : 0.814\n}, {\n\t/time/play : 13.4944,\n\t/sample/start : 0.,\n\t/sample/name : \"hh0\",\n\t/amp : 0.777\n}, {\n\t/time/play : 13.6059,\n\t/sample/start : 0.,\n\t/sample/name : \"hh3\",\n\t/amp : 0.882\n}, {\n\t/time/play : 13.7175,\n\t/sample/start : 0.,\n\t/sample/name : \"hh2\",\n\t/amp : 0.533\n}, {\n\t/time/play : 13.829,\n\t/sample/start : 0.,\n\t/sample/name : \"hh3\",\n\t/amp : 0.261\n}, {\n\t/time/play : 13.9405,\n\t/sample/start : 0.,\n\t/sample/name : \"hh0\",\n\t/amp : 0.156\n}, {\n\t/time/play : 14.052,\n\t/sample/start : 0.,\n\t/sample/name : \"hh0\",\n\t/amp : 0.761\n}, {\n\t/time/play : 14.1636,\n\t/sample/start : 0.,\n\t/sample/name : \"hh0\",\n\t/amp : 0.702\n}, {\n\t/time/play : 14.2751,\n\t/sample/start : 0.,\n\t/sample/name : \"hh1\",\n\t/amp : 0.477\n}, {\n\t/time/play : 14.3866,\n\t/sample/start : 0.,\n\t/sample/name : \"hh1\",\n\t/amp : 0.28\n}, {\n\t/time/play : 14.4981,\n\t/sample/start : 0.,\n\t/sample/name : \"hh3\",\n\t/amp : 0.311\n}, {\n\t/time/play : 14.6097,\n\t/sample/start : 0.,\n\t/sample/name : \"hh0\",\n\t/amp : 0.492\n}, {\n\t/time/play : 14.7212,\n\t/sample/start : 0.,\n\t/sample/name : \"hh0\",\n\t/amp : 0.736\n}, {\n\t/time/play : 14.8327,\n\t/sample/start : 0.,\n\t/sample/name : \"hh0\",\n\t/amp : 0.087\n}, {\n\t/time/play : 14.9442,\n\t/sample/start : 0.,\n\t/sample/name : \"hh2\",\n\t/amp : 0.051\n}]",
					"textcolor" : [ 0.0, 0.0, 0.0, 1.0 ]
				}

			}
, 			{
				"box" : 				{
					"id" : "obj-100",
					"maxclass" : "button",
					"numinlets" : 1,
					"numoutlets" : 1,
					"outlettype" : [ "bang" ],
					"patching_rect" : [ 698.530762, 278.590698, 50.5, 50.5 ]
				}

			}
, 			{
				"box" : 				{
					"fontname" : "Arial",
					"fontsize" : 12.0,
					"frgb" : 0.0,
					"id" : "obj-95",
					"maxclass" : "comment",
					"numinlets" : 1,
					"numoutlets" : 0,
					"patching_rect" : [ 737.406921, 338.767853, 97.0, 20.0 ],
					"presentation_rect" : [ 756.189758, 340.270477, 0.0, 0.0 ],
					"text" : "highhats pattern"
				}

			}
, 			{
				"box" : 				{
					"fontname" : "Arial",
					"fontsize" : 12.0,
					"id" : "obj-96",
					"maxclass" : "newobj",
					"numinlets" : 2,
					"numoutlets" : 1,
					"outlettype" : [ "FullPacket" ],
					"patching_rect" : [ 698.530762, 338.767853, 37.0, 20.0 ],
					"presentation_rect" : [ 717.313599, 340.270477, 0.0, 0.0 ],
					"text" : "o.var"
				}

			}
, 			{
				"box" : 				{
					"fontname" : "Arial",
					"fontsize" : 12.0,
					"id" : "obj-94",
					"maxclass" : "newobj",
					"numinlets" : 1,
					"numoutlets" : 2,
					"outlettype" : [ "", "bang" ],
					"patching_rect" : [ 716.530762, 169.421463, 32.5, 20.0 ],
					"text" : "t l b"
				}

			}
, 			{
				"box" : 				{
					"fontname" : "Arial",
					"fontsize" : 12.0,
					"id" : "obj-93",
					"maxclass" : "newobj",
					"numinlets" : 2,
					"numoutlets" : 1,
					"outlettype" : [ "FullPacket" ],
					"patcher" : 					{
						"fileversion" : 1,
						"appversion" : 						{
							"major" : 6,
							"minor" : 1,
							"revision" : 8,
							"architecture" : "x86"
						}
,
						"rect" : [ 0.0, 73.0, 945.0, 739.0 ],
						"bglocked" : 0,
						"openinpresentation" : 0,
						"default_fontsize" : 12.0,
						"default_fontface" : 0,
						"default_fontname" : "Arial",
						"gridonopen" : 0,
						"gridsize" : [ 15.0, 15.0 ],
						"gridsnaponopen" : 0,
						"statusbarvisible" : 2,
						"toolbarvisible" : 1,
						"boxanimatetime" : 200,
						"imprint" : 0,
						"enablehscroll" : 1,
						"enablevscroll" : 1,
						"devicewidth" : 0.0,
						"description" : "",
						"digest" : "",
						"tags" : "",
						"boxes" : [ 							{
								"box" : 								{
									"fontname" : "Arial",
									"fontsize" : 12.0,
									"id" : "obj-26",
									"maxclass" : "newobj",
									"numinlets" : 2,
									"numoutlets" : 1,
									"outlettype" : [ "FullPacket" ],
									"patching_rect" : [ 698.090881, 358.454102, 50.0, 20.0 ],
									"text" : "o.union"
								}

							}
, 							{
								"box" : 								{
									"id" : "obj-25",
									"maxclass" : "button",
									"numinlets" : 1,
									"numoutlets" : 1,
									"outlettype" : [ "bang" ],
									"patching_rect" : [ 646.363586, 20.90909, 20.0, 20.0 ]
								}

							}
, 							{
								"box" : 								{
									"fontname" : "Arial",
									"fontsize" : 12.0,
									"id" : "obj-21",
									"maxclass" : "newobj",
									"numinlets" : 1,
									"numoutlets" : 1,
									"outlettype" : [ "FullPacket" ],
									"patching_rect" : [ 729.090881, 210.711975, 76.0, 20.0 ],
									"text" : "o.pack /amp"
								}

							}
, 							{
								"box" : 								{
									"fontname" : "Arial",
									"fontsize" : 12.0,
									"id" : "obj-20",
									"maxclass" : "newobj",
									"numinlets" : 2,
									"numoutlets" : 1,
									"outlettype" : [ "float" ],
									"patching_rect" : [ 729.090881, 177.032623, 47.0, 20.0 ],
									"text" : "/ 1000."
								}

							}
, 							{
								"box" : 								{
									"fontname" : "Arial",
									"fontsize" : 12.0,
									"id" : "obj-19",
									"maxclass" : "newobj",
									"numinlets" : 2,
									"numoutlets" : 1,
									"outlettype" : [ "int" ],
									"patching_rect" : [ 729.090881, 146.675888, 81.0, 20.0 ],
									"text" : "random 1000"
								}

							}
, 							{
								"box" : 								{
									"fontname" : "Arial",
									"fontsize" : 12.0,
									"id" : "obj-16",
									"maxclass" : "newobj",
									"numinlets" : 1,
									"numoutlets" : 2,
									"outlettype" : [ "", "bang" ],
									"patching_rect" : [ 58.823395, 194.348343, 32.5, 20.0 ],
									"text" : "t l b"
								}

							}
, 							{
								"box" : 								{
									"fontname" : "Arial",
									"fontsize" : 12.0,
									"id" : "obj-15",
									"maxclass" : "newobj",
									"numinlets" : 1,
									"numoutlets" : 3,
									"outlettype" : [ "bang", "bang", "bang" ],
									"patching_rect" : [ 481.0, 45.0, 46.0, 20.0 ],
									"text" : "t b b b"
								}

							}
, 							{
								"box" : 								{
									"fontsize" : 12.0,
									"id" : "obj-14",
									"linecount" : 4,
									"maxclass" : "o.display",
									"numinlets" : 1,
									"numoutlets" : 1,
									"outlettype" : [ "" ],
									"patching_rect" : [ 595.0, 448.581177, 150.0, 75.0 ],
									"text" : "/sample/start : 0.,\n/sample/name : \"hh2\",\n/amp : 0.051",
									"textcolor" : [ 0.0, 0.0, 0.0, 1.0 ]
								}

							}
, 							{
								"box" : 								{
									"fontname" : "Arial",
									"fontsize" : 12.0,
									"id" : "obj-12",
									"maxclass" : "newobj",
									"numinlets" : 2,
									"numoutlets" : 1,
									"outlettype" : [ "FullPacket" ],
									"patching_rect" : [ 451.085602, 330.410583, 50.0, 20.0 ],
									"text" : "o.union"
								}

							}
, 							{
								"box" : 								{
									"fontname" : "Arial",
									"fontsize" : 12.0,
									"id" : "obj-11",
									"maxclass" : "newobj",
									"numinlets" : 5,
									"numoutlets" : 5,
									"outlettype" : [ "bang", "bang", "bang", "bang", "" ],
									"patching_rect" : [ 496.0, 126.337654, 73.0, 20.0 ],
									"text" : "sel 0 1 2 3"
								}

							}
, 							{
								"box" : 								{
									"fontname" : "Arial",
									"fontsize" : 12.0,
									"id" : "obj-10",
									"maxclass" : "message",
									"numinlets" : 2,
									"numoutlets" : 1,
									"outlettype" : [ "" ],
									"patching_rect" : [ 595.0, 108.850815, 50.0, 18.0 ],
									"text" : "2"
								}

							}
, 							{
								"box" : 								{
									"fontname" : "Arial",
									"fontsize" : 12.0,
									"id" : "obj-6",
									"maxclass" : "newobj",
									"numinlets" : 2,
									"numoutlets" : 1,
									"outlettype" : [ "int" ],
									"patching_rect" : [ 496.0, 78.93969, 61.0, 20.0 ],
									"text" : "random 4"
								}

							}
, 							{
								"box" : 								{
									"fontsize" : 12.0,
									"id" : "obj-5",
									"maxclass" : "o.compose",
									"numinlets" : 2,
									"numoutlets" : 1,
									"outlettype" : [ "" ],
									"patching_rect" : [ 536.5, 283.92688, 167.0, 24.0 ],
									"presentation_rect" : [ 496.0, 284.988617, 0.0, 0.0 ],
									"saved_bundle_data" : [ 35, 98, 117, 110, 100, 108, 101, 0, 0, 0, 0, 0, 0, 0, 0, 0, 0, 0, 0, 24, 47, 115, 97, 109, 112, 108, 101, 47, 110, 97, 109, 101, 0, 0, 0, 0, 44, 115, 0, 0, 104, 104, 51, 0 ],
									"saved_bundle_length" : 44,
									"text" : "/sample/name : \"hh3\"",
									"textcolor" : [ 0.0, 0.0, 0.0, 1.0 ]
								}

							}
, 							{
								"box" : 								{
									"fontsize" : 12.0,
									"id" : "obj-4",
									"maxclass" : "o.compose",
									"numinlets" : 2,
									"numoutlets" : 1,
									"outlettype" : [ "" ],
									"patching_rect" : [ 523.0, 245.603073, 167.0, 24.0 ],
									"presentation_rect" : [ 498.0, 242.032013, 0.0, 0.0 ],
									"saved_bundle_data" : [ 35, 98, 117, 110, 100, 108, 101, 0, 0, 0, 0, 0, 0, 0, 0, 0, 0, 0, 0, 24, 47, 115, 97, 109, 112, 108, 101, 47, 110, 97, 109, 101, 0, 0, 0, 0, 44, 115, 0, 0, 104, 104, 50, 0 ],
									"saved_bundle_length" : 44,
									"text" : "/sample/name : \"hh2\"",
									"textcolor" : [ 0.0, 0.0, 0.0, 1.0 ]
								}

							}
, 							{
								"box" : 								{
									"fontsize" : 12.0,
									"id" : "obj-3",
									"maxclass" : "o.compose",
									"numinlets" : 2,
									"numoutlets" : 1,
									"outlettype" : [ "" ],
									"patching_rect" : [ 509.5, 210.260925, 167.0, 24.0 ],
									"presentation_rect" : [ 498.0, 216.0, 0.0, 0.0 ],
									"saved_bundle_data" : [ 35, 98, 117, 110, 100, 108, 101, 0, 0, 0, 0, 0, 0, 0, 0, 0, 0, 0, 0, 24, 47, 115, 97, 109, 112, 108, 101, 47, 110, 97, 109, 101, 0, 0, 0, 0, 44, 115, 0, 0, 104, 104, 49, 0 ],
									"saved_bundle_length" : 44,
									"text" : "/sample/name : \"hh1\"",
									"textcolor" : [ 0.0, 0.0, 0.0, 1.0 ]
								}

							}
, 							{
								"box" : 								{
									"fontsize" : 12.0,
									"id" : "obj-2",
									"maxclass" : "o.compose",
									"numinlets" : 2,
									"numoutlets" : 1,
									"outlettype" : [ "" ],
									"patching_rect" : [ 496.0, 177.0, 167.0, 24.0 ],
									"saved_bundle_data" : [ 35, 98, 117, 110, 100, 108, 101, 0, 0, 0, 0, 0, 0, 0, 0, 0, 0, 0, 0, 24, 47, 115, 97, 109, 112, 108, 101, 47, 110, 97, 109, 101, 0, 0, 0, 0, 44, 115, 0, 0, 104, 104, 48, 0 ],
									"saved_bundle_length" : 44,
									"text" : "/sample/name : \"hh0\"",
									"textcolor" : [ 0.0, 0.0, 0.0, 1.0 ]
								}

							}
, 							{
								"box" : 								{
									"fontsize" : 12.0,
									"id" : "obj-66",
									"maxclass" : "o.compose",
									"numinlets" : 2,
									"numoutlets" : 1,
									"outlettype" : [ "" ],
									"patching_rect" : [ 191.005676, 448.581177, 83.8843, 24.0 ],
									"saved_bundle_data" : [  ],
									"saved_bundle_length" : 0,
									"textcolor" : [ 0.0, 0.0, 0.0, 1.0 ]
								}

							}
, 							{
								"box" : 								{
									"fontname" : "Arial",
									"fontsize" : 12.0,
									"id" : "obj-58",
									"maxclass" : "newobj",
									"numinlets" : 2,
									"numoutlets" : 1,
									"outlettype" : [ "FullPacket" ],
									"patching_rect" : [ 58.823395, 489.218262, 50.0, 20.0 ],
									"text" : "o.union"
								}

							}
, 							{
								"box" : 								{
									"fontsize" : 12.0,
									"id" : "obj-57",
									"linecount" : 3,
									"maxclass" : "o.expr.codebox",
									"numinlets" : 1,
									"numoutlets" : 2,
									"outlettype" : [ "FullPacket", "FullPacket" ],
									"patching_rect" : [ 58.823395, 526.453552, 337.0, 59.0 ],
									"text" : "/pattern ??= list(),\n/pattern = list( /pattern, /event/to/add ), \ndelete( /event/to/add )",
									"textcolor" : [ 0.0, 0.0, 0.0, 1.0 ]
								}

							}
, 							{
								"box" : 								{
									"fontname" : "Arial",
									"fontsize" : 12.0,
									"id" : "obj-55",
									"maxclass" : "newobj",
									"numinlets" : 1,
									"numoutlets" : 1,
									"outlettype" : [ "FullPacket" ],
									"patching_rect" : [ 58.823395, 448.581177, 119.0, 20.0 ],
									"text" : "o.pack /event/to/add"
								}

							}
, 							{
								"box" : 								{
									"fontsize" : 12.0,
									"id" : "obj-52",
									"maxclass" : "o.compose",
									"numinlets" : 2,
									"numoutlets" : 1,
									"outlettype" : [ "" ],
									"patching_rect" : [ 313.796204, 177.0, 152.0, 24.0 ],
									"saved_bundle_data" : [ 35, 98, 117, 110, 100, 108, 101, 0, 0, 0, 0, 0, 0, 0, 0, 0, 0, 0, 0, 28, 47, 115, 97, 109, 112, 108, 101, 47, 115, 116, 97, 114, 116, 0, 0, 0, 44, 100, 0, 0, 0, 0, 0, 0, 0, 0, 0, 0 ],
									"saved_bundle_length" : 48,
									"text" : "/sample/start : 0.",
									"textcolor" : [ 0.0, 0.0, 0.0, 1.0 ]
								}

							}
, 							{
								"box" : 								{
									"fontname" : "Arial",
									"fontsize" : 12.0,
									"id" : "obj-51",
									"maxclass" : "newobj",
									"numinlets" : 2,
									"numoutlets" : 1,
									"outlettype" : [ "FullPacket" ],
									"patching_rect" : [ 58.823395, 416.454712, 50.0, 20.0 ],
									"text" : "o.union"
								}

							}
, 							{
								"box" : 								{
									"fontname" : "Arial",
									"fontsize" : 12.0,
									"id" : "obj-50",
									"maxclass" : "newobj",
									"numinlets" : 1,
									"numoutlets" : 1,
									"outlettype" : [ "FullPacket" ],
									"patching_rect" : [ 58.823395, 164.462921, 101.0, 20.0 ],
									"text" : "o.pack /time/play"
								}

							}
, 							{
								"box" : 								{
									"fontname" : "Arial",
									"fontsize" : 12.0,
									"id" : "obj-49",
									"maxclass" : "newobj",
									"numinlets" : 1,
									"numoutlets" : 2,
									"outlettype" : [ "", "FullPacket" ],
									"patching_rect" : [ 58.823395, 130.312256, 83.0, 20.0 ],
									"text" : "o.route /value"
								}

							}
, 							{
								"box" : 								{
									"fontname" : "Arial",
									"fontsize" : 12.0,
									"id" : "obj-48",
									"maxclass" : "newobj",
									"numinlets" : 1,
									"numoutlets" : 2,
									"outlettype" : [ "", "" ],
									"patching_rect" : [ 58.823395, 100.0, 137.0, 20.0 ],
									"text" : "o.listenumerate /timings"
								}

							}
, 							{
								"box" : 								{
									"comment" : "",
									"id" : "obj-72",
									"maxclass" : "inlet",
									"numinlets" : 0,
									"numoutlets" : 1,
									"outlettype" : [ "FullPacket" ],
									"patching_rect" : [ 58.823395, 40.0, 25.0, 25.0 ]
								}

							}
, 							{
								"box" : 								{
									"comment" : "",
									"id" : "obj-74",
									"maxclass" : "inlet",
									"numinlets" : 0,
									"numoutlets" : 1,
									"outlettype" : [ "bang" ],
									"patching_rect" : [ 191.005676, 40.0, 25.0, 25.0 ]
								}

							}
, 							{
								"box" : 								{
									"comment" : "",
									"id" : "obj-75",
									"maxclass" : "outlet",
									"numinlets" : 1,
									"numoutlets" : 0,
									"patching_rect" : [ 58.823395, 617.022217, 25.0, 25.0 ]
								}

							}
 ],
						"lines" : [ 							{
								"patchline" : 								{
									"destination" : [ "obj-2", 0 ],
									"disabled" : 0,
									"hidden" : 0,
									"source" : [ "obj-11", 0 ]
								}

							}
, 							{
								"patchline" : 								{
									"destination" : [ "obj-3", 0 ],
									"disabled" : 0,
									"hidden" : 0,
									"source" : [ "obj-11", 1 ]
								}

							}
, 							{
								"patchline" : 								{
									"destination" : [ "obj-4", 0 ],
									"disabled" : 0,
									"hidden" : 0,
									"source" : [ "obj-11", 2 ]
								}

							}
, 							{
								"patchline" : 								{
									"destination" : [ "obj-5", 0 ],
									"disabled" : 0,
									"hidden" : 0,
									"source" : [ "obj-11", 3 ]
								}

							}
, 							{
								"patchline" : 								{
									"destination" : [ "obj-26", 0 ],
									"disabled" : 0,
									"hidden" : 0,
									"source" : [ "obj-12", 0 ]
								}

							}
, 							{
								"patchline" : 								{
									"destination" : [ "obj-19", 0 ],
									"disabled" : 0,
									"hidden" : 0,
									"source" : [ "obj-15", 2 ]
								}

							}
, 							{
								"patchline" : 								{
									"destination" : [ "obj-52", 0 ],
									"disabled" : 0,
									"hidden" : 0,
									"source" : [ "obj-15", 0 ]
								}

							}
, 							{
								"patchline" : 								{
									"destination" : [ "obj-6", 0 ],
									"disabled" : 0,
									"hidden" : 0,
									"source" : [ "obj-15", 1 ]
								}

							}
, 							{
								"patchline" : 								{
									"destination" : [ "obj-15", 0 ],
									"disabled" : 0,
									"hidden" : 0,
									"source" : [ "obj-16", 1 ]
								}

							}
, 							{
								"patchline" : 								{
									"destination" : [ "obj-51", 0 ],
									"disabled" : 0,
									"hidden" : 0,
									"source" : [ "obj-16", 0 ]
								}

							}
, 							{
								"patchline" : 								{
									"destination" : [ "obj-20", 0 ],
									"disabled" : 0,
									"hidden" : 0,
									"source" : [ "obj-19", 0 ]
								}

							}
, 							{
								"patchline" : 								{
									"destination" : [ "obj-12", 1 ],
									"disabled" : 0,
									"hidden" : 0,
									"source" : [ "obj-2", 0 ]
								}

							}
, 							{
								"patchline" : 								{
									"destination" : [ "obj-21", 0 ],
									"disabled" : 0,
									"hidden" : 0,
									"source" : [ "obj-20", 0 ]
								}

							}
, 							{
								"patchline" : 								{
									"destination" : [ "obj-26", 1 ],
									"disabled" : 0,
									"hidden" : 0,
									"source" : [ "obj-21", 0 ]
								}

							}
, 							{
								"patchline" : 								{
									"destination" : [ "obj-15", 0 ],
									"disabled" : 0,
									"hidden" : 0,
									"source" : [ "obj-25", 0 ]
								}

							}
, 							{
								"patchline" : 								{
									"destination" : [ "obj-14", 0 ],
									"disabled" : 0,
									"hidden" : 0,
									"source" : [ "obj-26", 0 ]
								}

							}
, 							{
								"patchline" : 								{
									"destination" : [ "obj-51", 1 ],
									"disabled" : 0,
									"hidden" : 0,
									"source" : [ "obj-26", 0 ]
								}

							}
, 							{
								"patchline" : 								{
									"destination" : [ "obj-12", 1 ],
									"disabled" : 0,
									"hidden" : 0,
									"source" : [ "obj-3", 0 ]
								}

							}
, 							{
								"patchline" : 								{
									"destination" : [ "obj-12", 1 ],
									"disabled" : 0,
									"hidden" : 0,
									"source" : [ "obj-4", 0 ]
								}

							}
, 							{
								"patchline" : 								{
									"destination" : [ "obj-49", 0 ],
									"disabled" : 0,
									"hidden" : 0,
									"source" : [ "obj-48", 0 ]
								}

							}
, 							{
								"patchline" : 								{
									"destination" : [ "obj-50", 0 ],
									"disabled" : 0,
									"hidden" : 0,
									"source" : [ "obj-49", 0 ]
								}

							}
, 							{
								"patchline" : 								{
									"destination" : [ "obj-12", 1 ],
									"disabled" : 0,
									"hidden" : 0,
									"source" : [ "obj-5", 0 ]
								}

							}
, 							{
								"patchline" : 								{
									"destination" : [ "obj-16", 0 ],
									"disabled" : 0,
									"hidden" : 0,
									"source" : [ "obj-50", 0 ]
								}

							}
, 							{
								"patchline" : 								{
									"destination" : [ "obj-55", 0 ],
									"disabled" : 0,
									"hidden" : 0,
									"source" : [ "obj-51", 0 ]
								}

							}
, 							{
								"patchline" : 								{
									"destination" : [ "obj-12", 0 ],
									"disabled" : 0,
									"hidden" : 0,
									"source" : [ "obj-52", 0 ]
								}

							}
, 							{
								"patchline" : 								{
									"destination" : [ "obj-58", 0 ],
									"disabled" : 0,
									"hidden" : 0,
									"source" : [ "obj-55", 0 ]
								}

							}
, 							{
								"patchline" : 								{
									"destination" : [ "obj-58", 1 ],
									"disabled" : 0,
									"hidden" : 0,
									"midpoints" : [ 68.323395, 603.661865, 51.907898, 603.661865, 51.907898, 510.083374, 118.5, 510.083374, 118.5, 474.083374, 99.323395, 474.083374 ],
									"source" : [ "obj-57", 0 ]
								}

							}
, 							{
								"patchline" : 								{
									"destination" : [ "obj-75", 0 ],
									"disabled" : 0,
									"hidden" : 0,
									"source" : [ "obj-57", 0 ]
								}

							}
, 							{
								"patchline" : 								{
									"destination" : [ "obj-57", 0 ],
									"disabled" : 0,
									"hidden" : 0,
									"source" : [ "obj-58", 0 ]
								}

							}
, 							{
								"patchline" : 								{
									"destination" : [ "obj-10", 1 ],
									"disabled" : 0,
									"hidden" : 0,
									"source" : [ "obj-6", 0 ]
								}

							}
, 							{
								"patchline" : 								{
									"destination" : [ "obj-11", 0 ],
									"disabled" : 0,
									"hidden" : 0,
									"source" : [ "obj-6", 0 ]
								}

							}
, 							{
								"patchline" : 								{
									"destination" : [ "obj-58", 1 ],
									"disabled" : 0,
									"hidden" : 0,
									"source" : [ "obj-66", 0 ]
								}

							}
, 							{
								"patchline" : 								{
									"destination" : [ "obj-48", 0 ],
									"disabled" : 0,
									"hidden" : 0,
									"source" : [ "obj-72", 0 ]
								}

							}
, 							{
								"patchline" : 								{
									"destination" : [ "obj-66", 0 ],
									"disabled" : 0,
									"hidden" : 0,
									"source" : [ "obj-74", 0 ]
								}

							}
 ]
					}
,
					"patching_rect" : [ 716.530762, 252.415543, 53.0, 20.0 ],
					"presentation_rect" : [ 732.30835, 259.177368, 0.0, 0.0 ],
					"saved_object_attributes" : 					{
						"default_fontface" : 0,
						"default_fontname" : "Arial",
						"default_fontsize" : 12.0,
						"description" : "",
						"digest" : "",
						"fontface" : 0,
						"fontname" : "Arial",
						"fontsize" : 12.0,
						"globalpatchername" : "",
						"tags" : ""
					}
,
					"text" : "p hihats"
				}

			}
, 			{
				"box" : 				{
					"id" : "obj-92",
					"maxclass" : "ezdac~",
					"numinlets" : 2,
					"numoutlets" : 0,
					"patching_rect" : [ 291.323395, 1175.289185, 45.0, 45.0 ]
				}

			}
, 			{
				"box" : 				{
					"fontname" : "Arial",
					"fontsize" : 12.0,
					"id" : "obj-91",
					"maxclass" : "message",
					"numinlets" : 2,
					"numoutlets" : 1,
					"outlettype" : [ "" ],
					"patching_rect" : [ 246.378891, 1079.834717, 32.5, 18.0 ],
					"text" : "127"
				}

			}
, 			{
				"box" : 				{
					"id" : "obj-89",
					"maxclass" : "gain~",
					"numinlets" : 2,
					"numoutlets" : 2,
					"outlettype" : [ "signal", "int" ],
					"parameter_enable" : 0,
					"patching_rect" : [ 294.323395, 1116.198242, 115.63636, 34.54546 ]
				}

			}
, 			{
				"box" : 				{
					"fontname" : "Arial",
					"fontsize" : 12.0,
					"id" : "obj-86",
					"maxclass" : "newobj",
					"numinlets" : 1,
					"numoutlets" : 2,
					"outlettype" : [ "signal", "" ],
					"patching_rect" : [ 394.323456, 1055.23645, 39.0, 20.0 ],
					"presentation_rect" : [ 287.944519, 1041.765381, 0.0, 0.0 ],
					"text" : "voice"
				}

			}
, 			{
				"box" : 				{
					"fontname" : "Arial",
					"fontsize" : 12.0,
					"id" : "obj-87",
					"maxclass" : "newobj",
					"numinlets" : 1,
					"numoutlets" : 2,
					"outlettype" : [ "signal", "" ],
					"patching_rect" : [ 374.323395, 1014.512695, 39.0, 20.0 ],
					"presentation_rect" : [ 267.944489, 1001.041626, 0.0, 0.0 ],
					"text" : "voice"
				}

			}
, 			{
				"box" : 				{
					"fontname" : "Arial",
					"fontsize" : 12.0,
					"id" : "obj-88",
					"maxclass" : "newobj",
					"numinlets" : 1,
					"numoutlets" : 2,
					"outlettype" : [ "signal", "" ],
					"patching_rect" : [ 354.323395, 977.257446, 39.0, 20.0 ],
					"presentation_rect" : [ 247.944504, 963.786377, 0.0, 0.0 ],
					"text" : "voice"
				}

			}
, 			{
				"box" : 				{
					"fontsize" : 12.0,
					"id" : "obj-85",
					"linecount" : 11,
					"maxclass" : "o.display",
					"numinlets" : 1,
					"numoutlets" : 1,
					"outlettype" : [ "" ],
					"patching_rect" : [ 353.677246, 632.321289, 366.0, 170.0 ],
					"text" : "/value : {\n\t/time/play : 14.9442,\n\t/sample/start : 0.,\n\t/sample/name : \"hh2\",\n\t/amp : 0.216\n},\n/address : \"/pattern\",\n/index : 134,\n/length : 270,\n/playback/started : 2014-11-05T20:22:06.956234Z,\n/event/time : 2014-11-05T20:22:21.903472Z",
					"textcolor" : [ 0.0, 0.0, 0.0, 1.0 ]
				}

			}
, 			{
				"box" : 				{
					"fontname" : "Arial",
					"fontsize" : 12.0,
					"id" : "obj-83",
					"maxclass" : "newobj",
					"numinlets" : 2,
					"numoutlets" : 4,
					"outlettype" : [ "FullPacket", "FullPacket", "FullPacket", "FullPacket" ],
					"patching_rect" : [ 294.323395, 593.723877, 131.0, 20.0 ],
					"text" : "o.schedule /event/time"
				}

			}
, 			{
				"box" : 				{
					"fontsize" : 12.0,
					"id" : "obj-82",
					"maxclass" : "o.expr.codebox",
					"numinlets" : 1,
					"numoutlets" : 2,
					"outlettype" : [ "FullPacket", "FullPacket" ],
					"patching_rect" : [ 294.323395, 526.953979, 438.0, 32.0 ],
					"text" : "/event/time = /playback/started + /value./time/play + 0.003",
					"textcolor" : [ 0.0, 0.0, 0.0, 1.0 ]
				}

			}
, 			{
				"box" : 				{
					"fontname" : "Arial",
					"fontsize" : 12.0,
					"id" : "obj-80",
					"maxclass" : "newobj",
					"numinlets" : 1,
					"numoutlets" : 2,
					"outlettype" : [ "", "bang" ],
					"patching_rect" : [ 294.323395, 384.656525, 50.0, 20.0 ],
					"text" : "t l b"
				}

			}
, 			{
				"box" : 				{
					"fontname" : "Arial",
					"fontsize" : 12.0,
					"id" : "obj-79",
					"maxclass" : "newobj",
					"numinlets" : 2,
					"numoutlets" : 1,
					"outlettype" : [ "FullPacket" ],
					"patching_rect" : [ 294.323395, 485.591736, 50.0, 20.0 ],
					"text" : "o.union"
				}

			}
, 			{
				"box" : 				{
					"fontname" : "Arial",
					"fontsize" : 12.0,
					"id" : "obj-78",
					"maxclass" : "newobj",
					"numinlets" : 1,
					"numoutlets" : 2,
					"outlettype" : [ "", "" ],
					"patching_rect" : [ 294.323395, 441.485596, 137.0, 20.0 ],
					"text" : "o.listenumerate /pattern"
				}

			}
, 			{
				"box" : 				{
					"fontname" : "Arial",
					"fontsize" : 12.0,
					"id" : "obj-77",
					"maxclass" : "newobj",
					"numinlets" : 1,
					"numoutlets" : 1,
					"outlettype" : [ "" ],
					"patching_rect" : [ 325.323395, 411.972534, 154.0, 20.0 ],
					"text" : "o.timetag /playback/started"
				}

			}
, 			{
				"box" : 				{
					"fontname" : "Arial",
					"fontsize" : 12.0,
					"id" : "obj-76",
					"maxclass" : "newobj",
					"numinlets" : 3,
					"numoutlets" : 1,
					"outlettype" : [ "FullPacket" ],
					"patcher" : 					{
						"fileversion" : 1,
						"appversion" : 						{
							"major" : 6,
							"minor" : 1,
							"revision" : 8,
							"architecture" : "x86"
						}
,
						"rect" : [ 25.0, 69.0, 640.0, 480.0 ],
						"bglocked" : 0,
						"openinpresentation" : 0,
						"default_fontsize" : 12.0,
						"default_fontface" : 0,
						"default_fontname" : "Arial",
						"gridonopen" : 0,
						"gridsize" : [ 15.0, 15.0 ],
						"gridsnaponopen" : 0,
						"statusbarvisible" : 2,
						"toolbarvisible" : 1,
						"boxanimatetime" : 200,
						"imprint" : 0,
						"enablehscroll" : 1,
						"enablevscroll" : 1,
						"devicewidth" : 0.0,
						"description" : "",
						"digest" : "",
						"tags" : "",
						"boxes" : [ 							{
								"box" : 								{
									"fontsize" : 12.0,
									"id" : "obj-66",
									"maxclass" : "o.compose",
									"numinlets" : 2,
									"numoutlets" : 1,
									"outlettype" : [ "" ],
									"patching_rect" : [ 191.005676, 249.988617, 83.8843, 24.0 ],
									"saved_bundle_data" : [  ],
									"saved_bundle_length" : 0,
									"textcolor" : [ 0.0, 0.0, 0.0, 1.0 ]
								}

							}
, 							{
								"box" : 								{
									"fontname" : "Arial",
									"fontsize" : 12.0,
									"id" : "obj-58",
									"maxclass" : "newobj",
									"numinlets" : 2,
									"numoutlets" : 1,
									"outlettype" : [ "FullPacket" ],
									"patching_rect" : [ 58.823395, 290.625702, 50.0, 20.0 ],
									"text" : "o.union"
								}

							}
, 							{
								"box" : 								{
									"fontsize" : 12.0,
									"id" : "obj-57",
									"linecount" : 3,
									"maxclass" : "o.expr.codebox",
									"numinlets" : 1,
									"numoutlets" : 2,
									"outlettype" : [ "FullPacket", "FullPacket" ],
									"patching_rect" : [ 58.823395, 338.416656, 337.0, 59.0 ],
									"text" : "/pattern ??= list(),\n/pattern = list( /pattern, /event/to/add ), \ndelete( /event/to/add )",
									"textcolor" : [ 0.0, 0.0, 0.0, 1.0 ]
								}

							}
, 							{
								"box" : 								{
									"fontname" : "Arial",
									"fontsize" : 12.0,
									"id" : "obj-55",
									"maxclass" : "newobj",
									"numinlets" : 1,
									"numoutlets" : 1,
									"outlettype" : [ "FullPacket" ],
									"patching_rect" : [ 58.823395, 249.988617, 119.0, 20.0 ],
									"text" : "o.pack /event/to/add"
								}

							}
, 							{
								"box" : 								{
									"fontsize" : 12.0,
									"id" : "obj-52",
									"linecount" : 3,
									"maxclass" : "o.compose",
									"numinlets" : 2,
									"numoutlets" : 1,
									"outlettype" : [ "" ],
									"patching_rect" : [ 216.005676, 130.312256, 181.0, 51.0 ],
									"saved_bundle_data" : [ 35, 98, 117, 110, 100, 108, 101, 0, 0, 0, 0, 0, 0, 0, 0, 0, 0, 0, 0, 24, 47, 115, 97, 109, 112, 108, 101, 47, 110, 97, 109, 101, 0, 0, 0, 0, 44, 115, 0, 0, 104, 104, 48, 0, 0, 0, 0, 20, 47, 97, 109, 112, 0, 0, 0, 0, 44, 100, 0, 0, 63, -55, -103, -103, -103, -103, -103, -102, 0, 0, 0, 28, 47, 115, 97, 109, 112, 108, 101, 47, 115, 116, 97, 114, 116, 0, 0, 0, 44, 100, 0, 0, 0, 0, 0, 0, 0, 0, 0, 0 ],
									"saved_bundle_length" : 100,
									"text" : "/sample/name : \"hh0\",\n/amp : 0.2,\n/sample/start : 0.",
									"textcolor" : [ 0.0, 0.0, 0.0, 1.0 ]
								}

							}
, 							{
								"box" : 								{
									"fontname" : "Arial",
									"fontsize" : 12.0,
									"id" : "obj-51",
									"maxclass" : "newobj",
									"numinlets" : 2,
									"numoutlets" : 1,
									"outlettype" : [ "FullPacket" ],
									"patching_rect" : [ 58.823395, 211.032013, 50.0, 20.0 ],
									"text" : "o.union"
								}

							}
, 							{
								"box" : 								{
									"fontname" : "Arial",
									"fontsize" : 12.0,
									"id" : "obj-50",
									"maxclass" : "newobj",
									"numinlets" : 1,
									"numoutlets" : 1,
									"outlettype" : [ "FullPacket" ],
									"patching_rect" : [ 58.823395, 164.462921, 101.0, 20.0 ],
									"text" : "o.pack /time/play"
								}

							}
, 							{
								"box" : 								{
									"fontname" : "Arial",
									"fontsize" : 12.0,
									"id" : "obj-49",
									"maxclass" : "newobj",
									"numinlets" : 1,
									"numoutlets" : 2,
									"outlettype" : [ "", "FullPacket" ],
									"patching_rect" : [ 58.823395, 130.312256, 83.0, 20.0 ],
									"text" : "o.route /value"
								}

							}
, 							{
								"box" : 								{
									"fontname" : "Arial",
									"fontsize" : 12.0,
									"id" : "obj-48",
									"maxclass" : "newobj",
									"numinlets" : 1,
									"numoutlets" : 2,
									"outlettype" : [ "", "" ],
									"patching_rect" : [ 58.823395, 100.0, 137.0, 20.0 ],
									"text" : "o.listenumerate /timings"
								}

							}
, 							{
								"box" : 								{
									"comment" : "",
									"id" : "obj-72",
									"maxclass" : "inlet",
									"numinlets" : 0,
									"numoutlets" : 1,
									"outlettype" : [ "FullPacket" ],
									"patching_rect" : [ 58.823395, 40.0, 25.0, 25.0 ]
								}

							}
, 							{
								"box" : 								{
									"comment" : "",
									"id" : "obj-73",
									"maxclass" : "inlet",
									"numinlets" : 0,
									"numoutlets" : 1,
									"outlettype" : [ "bang" ],
									"patching_rect" : [ 216.005676, 40.0, 25.0, 25.0 ]
								}

							}
, 							{
								"box" : 								{
									"comment" : "",
									"id" : "obj-74",
									"maxclass" : "inlet",
									"numinlets" : 0,
									"numoutlets" : 1,
									"outlettype" : [ "bang" ],
									"patching_rect" : [ 191.005676, 40.0, 25.0, 25.0 ]
								}

							}
, 							{
								"box" : 								{
									"comment" : "",
									"id" : "obj-75",
									"maxclass" : "outlet",
									"numinlets" : 1,
									"numoutlets" : 0,
									"patching_rect" : [ 58.823395, 478.076202, 25.0, 25.0 ]
								}

							}
 ],
						"lines" : [ 							{
								"patchline" : 								{
									"destination" : [ "obj-49", 0 ],
									"disabled" : 0,
									"hidden" : 0,
									"source" : [ "obj-48", 0 ]
								}

							}
, 							{
								"patchline" : 								{
									"destination" : [ "obj-50", 0 ],
									"disabled" : 0,
									"hidden" : 0,
									"source" : [ "obj-49", 0 ]
								}

							}
, 							{
								"patchline" : 								{
									"destination" : [ "obj-51", 0 ],
									"disabled" : 0,
									"hidden" : 0,
									"source" : [ "obj-50", 0 ]
								}

							}
, 							{
								"patchline" : 								{
									"destination" : [ "obj-55", 0 ],
									"disabled" : 0,
									"hidden" : 0,
									"source" : [ "obj-51", 0 ]
								}

							}
, 							{
								"patchline" : 								{
									"destination" : [ "obj-51", 1 ],
									"disabled" : 0,
									"hidden" : 0,
									"source" : [ "obj-52", 0 ]
								}

							}
, 							{
								"patchline" : 								{
									"destination" : [ "obj-58", 0 ],
									"disabled" : 0,
									"hidden" : 0,
									"source" : [ "obj-55", 0 ]
								}

							}
, 							{
								"patchline" : 								{
									"destination" : [ "obj-58", 1 ],
									"disabled" : 0,
									"hidden" : 0,
									"midpoints" : [ 68.323395, 415.624969, 51.907898, 415.624969, 51.907898, 322.046478, 118.5, 322.046478, 118.5, 286.046478, 99.323395, 286.046478 ],
									"source" : [ "obj-57", 0 ]
								}

							}
, 							{
								"patchline" : 								{
									"destination" : [ "obj-75", 0 ],
									"disabled" : 0,
									"hidden" : 0,
									"source" : [ "obj-57", 0 ]
								}

							}
, 							{
								"patchline" : 								{
									"destination" : [ "obj-57", 0 ],
									"disabled" : 0,
									"hidden" : 0,
									"source" : [ "obj-58", 0 ]
								}

							}
, 							{
								"patchline" : 								{
									"destination" : [ "obj-58", 1 ],
									"disabled" : 0,
									"hidden" : 0,
									"source" : [ "obj-66", 0 ]
								}

							}
, 							{
								"patchline" : 								{
									"destination" : [ "obj-48", 0 ],
									"disabled" : 0,
									"hidden" : 0,
									"source" : [ "obj-72", 0 ]
								}

							}
, 							{
								"patchline" : 								{
									"destination" : [ "obj-52", 0 ],
									"disabled" : 0,
									"hidden" : 0,
									"source" : [ "obj-73", 0 ]
								}

							}
, 							{
								"patchline" : 								{
									"destination" : [ "obj-66", 0 ],
									"disabled" : 0,
									"hidden" : 0,
									"source" : [ "obj-74", 0 ]
								}

							}
 ]
					}
,
					"patching_rect" : [ 312.323395, 252.415543, 90.0, 20.0 ],
					"saved_object_attributes" : 					{
						"default_fontface" : 0,
						"default_fontname" : "Arial",
						"default_fontsize" : 12.0,
						"description" : "",
						"digest" : "",
						"fontface" : 0,
						"fontname" : "Arial",
						"fontsize" : 12.0,
						"globalpatchername" : "",
						"tags" : ""
					}
,
					"text" : "p metronomish"
				}

			}
, 			{
				"box" : 				{
					"fontname" : "Arial",
					"fontsize" : 12.0,
					"id" : "obj-71",
					"maxclass" : "newobj",
					"numinlets" : 2,
					"numoutlets" : 1,
					"outlettype" : [ "FullPacket" ],
					"patcher" : 					{
						"fileversion" : 1,
						"appversion" : 						{
							"major" : 6,
							"minor" : 1,
							"revision" : 8,
							"architecture" : "x86"
						}
,
						"rect" : [ 0.0, 0.0, 640.0, 480.0 ],
						"bglocked" : 0,
						"openinpresentation" : 0,
						"default_fontsize" : 12.0,
						"default_fontface" : 0,
						"default_fontname" : "Arial",
						"gridonopen" : 0,
						"gridsize" : [ 15.0, 15.0 ],
						"gridsnaponopen" : 0,
						"statusbarvisible" : 2,
						"toolbarvisible" : 1,
						"boxanimatetime" : 200,
						"imprint" : 0,
						"enablehscroll" : 1,
						"enablevscroll" : 1,
						"devicewidth" : 0.0,
						"description" : "",
						"digest" : "",
						"tags" : "",
						"boxes" : [ 							{
								"box" : 								{
									"fontname" : "Arial",
									"fontsize" : 12.0,
									"id" : "obj-38",
									"maxclass" : "newobj",
									"numinlets" : 2,
									"numoutlets" : 1,
									"outlettype" : [ "float" ],
									"patching_rect" : [ 50.0, 142.335541, 32.5, 20.0 ],
									"text" : "/ 2."
								}

							}
, 							{
								"box" : 								{
									"fontname" : "Arial",
									"fontsize" : 12.0,
									"id" : "obj-35",
									"maxclass" : "newobj",
									"numinlets" : 2,
									"numoutlets" : 1,
									"outlettype" : [ "float" ],
									"patching_rect" : [ 50.0, 100.0, 37.0, 20.0 ],
									"text" : "!/ 60."
								}

							}
, 							{
								"box" : 								{
									"fontname" : "Arial",
									"fontsize" : 12.0,
									"id" : "obj-34",
									"maxclass" : "newobj",
									"numinlets" : 1,
									"numoutlets" : 2,
									"outlettype" : [ "bang", "float" ],
									"patching_rect" : [ 185.500031, 142.335541, 32.5, 20.0 ],
									"text" : "t b f"
								}

							}
, 							{
								"box" : 								{
									"fontname" : "Arial",
									"fontsize" : 12.0,
									"id" : "obj-33",
									"maxclass" : "newobj",
									"numinlets" : 2,
									"numoutlets" : 1,
									"outlettype" : [ "FullPacket" ],
									"patching_rect" : [ 50.0, 187.493439, 168.0, 20.0 ],
									"text" : "o.pack /tactus 0.25 /tatum 15."
								}

							}
, 							{
								"box" : 								{
									"comment" : "",
									"id" : "obj-68",
									"maxclass" : "inlet",
									"numinlets" : 0,
									"numoutlets" : 1,
									"outlettype" : [ "int" ],
									"patching_rect" : [ 50.0, 40.0, 25.0, 25.0 ]
								}

							}
, 							{
								"box" : 								{
									"comment" : "",
									"id" : "obj-69",
									"maxclass" : "inlet",
									"numinlets" : 0,
									"numoutlets" : 1,
									"outlettype" : [ "int" ],
									"patching_rect" : [ 185.500031, 40.0, 25.0, 25.0 ]
								}

							}
, 							{
								"box" : 								{
									"comment" : "",
									"id" : "obj-70",
									"maxclass" : "outlet",
									"numinlets" : 1,
									"numoutlets" : 0,
									"patching_rect" : [ 50.0, 267.493439, 25.0, 25.0 ]
								}

							}
 ],
						"lines" : [ 							{
								"patchline" : 								{
									"destination" : [ "obj-70", 0 ],
									"disabled" : 0,
									"hidden" : 0,
									"source" : [ "obj-33", 0 ]
								}

							}
, 							{
								"patchline" : 								{
									"destination" : [ "obj-33", 1 ],
									"disabled" : 0,
									"hidden" : 0,
									"source" : [ "obj-34", 1 ]
								}

							}
, 							{
								"patchline" : 								{
									"destination" : [ "obj-33", 0 ],
									"disabled" : 0,
									"hidden" : 0,
									"source" : [ "obj-34", 0 ]
								}

							}
, 							{
								"patchline" : 								{
									"destination" : [ "obj-38", 0 ],
									"disabled" : 0,
									"hidden" : 0,
									"source" : [ "obj-35", 0 ]
								}

							}
, 							{
								"patchline" : 								{
									"destination" : [ "obj-33", 0 ],
									"disabled" : 0,
									"hidden" : 0,
									"source" : [ "obj-38", 0 ]
								}

							}
, 							{
								"patchline" : 								{
									"destination" : [ "obj-35", 0 ],
									"disabled" : 0,
									"hidden" : 0,
									"source" : [ "obj-68", 0 ]
								}

							}
, 							{
								"patchline" : 								{
									"destination" : [ "obj-34", 0 ],
									"disabled" : 0,
									"hidden" : 0,
									"source" : [ "obj-69", 0 ]
								}

							}
 ]
					}
,
					"patching_rect" : [ 460.323395, 82.88073, 117.099174, 20.0 ],
					"saved_object_attributes" : 					{
						"default_fontface" : 0,
						"default_fontname" : "Arial",
						"default_fontsize" : 12.0,
						"description" : "",
						"digest" : "",
						"fontface" : 0,
						"fontname" : "Arial",
						"fontsize" : 12.0,
						"globalpatchername" : "",
						"tags" : ""
					}
,
					"text" : "p tactus_tatum"
				}

			}
, 			{
				"box" : 				{
					"fontname" : "Arial",
					"fontsize" : 12.0,
					"id" : "obj-67",
					"maxclass" : "newobj",
					"numinlets" : 1,
					"numoutlets" : 3,
					"outlettype" : [ "", "bang", "bang" ],
					"patching_rect" : [ 312.323395, 169.421463, 46.0, 20.0 ],
					"text" : "t l b b"
				}

			}
, 			{
				"box" : 				{
					"id" : "obj-64",
					"maxclass" : "button",
					"numinlets" : 1,
					"numoutlets" : 1,
					"outlettype" : [ "bang" ],
					"patching_rect" : [ 187.603287, 252.415543, 66.280991, 66.280991 ]
				}

			}
, 			{
				"box" : 				{
					"fontname" : "Arial",
					"fontsize" : 12.0,
					"frgb" : 0.0,
					"id" : "obj-62",
					"maxclass" : "comment",
					"numinlets" : 1,
					"numoutlets" : 0,
					"patching_rect" : [ 333.199524, 346.281006, 67.0, 20.0 ],
					"text" : "full pattern"
				}

			}
, 			{
				"box" : 				{
					"fontname" : "Arial",
					"fontsize" : 12.0,
					"id" : "obj-60",
					"maxclass" : "newobj",
					"numinlets" : 2,
					"numoutlets" : 1,
					"outlettype" : [ "FullPacket" ],
					"patching_rect" : [ 294.323395, 346.281006, 37.0, 20.0 ],
					"text" : "o.var"
				}

			}
, 			{
				"box" : 				{
					"fontsize" : 12.0,
					"id" : "obj-45",
					"maxclass" : "o.expr.codebox",
					"numinlets" : 1,
					"numoutlets" : 2,
					"outlettype" : [ "FullPacket", "FullPacket" ],
					"patching_rect" : [ 312.323395, 200.580826, 286.0, 32.0 ],
					"text" : "/timings = aseq( 0., /tatum, /tactus )",
					"textcolor" : [ 0.0, 0.0, 0.0, 1.0 ]
				}

			}
, 			{
				"box" : 				{
					"fontsize" : 12.0,
					"id" : "obj-43",
					"linecount" : 2,
					"maxclass" : "o.compose",
					"numinlets" : 2,
					"numoutlets" : 1,
					"outlettype" : [ "" ],
					"patching_rect" : [ 312.323395, 119.103981, 167.0, 38.0 ],
					"saved_bundle_data" : [ 35, 98, 117, 110, 100, 108, 101, 0, 0, 0, 0, 0, 0, 0, 0, 0, 0, 0, 0, 20, 47, 116, 97, 99, 116, 117, 115, 0, 44, 100, 0, 0, 63, -68, -116, -39, 0, 0, 0, 0, 0, 0, 0, 20, 47, 116, 97, 116, 117, 109, 0, 0, 44, 100, 0, 0, 64, 46, 0, 0, 0, 0, 0, 0 ],
					"saved_bundle_length" : 64,
					"text" : "/tactus : 0.111524,\n/tatum : 15.",
					"textcolor" : [ 0.0, 0.0, 0.0, 1.0 ]
				}

			}
, 			{
				"box" : 				{
					"fontname" : "Arial",
					"fontsize" : 12.0,
					"id" : "obj-32",
					"maxclass" : "number",
					"numinlets" : 1,
					"numoutlets" : 2,
					"outlettype" : [ "int", "bang" ],
					"parameter_enable" : 0,
					"patching_rect" : [ 558.422546, 38.287296, 50.0, 20.0 ]
				}

			}
, 			{
				"box" : 				{
					"fontname" : "Arial",
					"fontsize" : 12.0,
					"id" : "obj-30",
					"maxclass" : "number",
					"numinlets" : 1,
					"numoutlets" : 2,
					"outlettype" : [ "int", "bang" ],
					"parameter_enable" : 0,
					"patching_rect" : [ 460.323395, 38.287296, 50.0, 20.0 ]
				}

			}
, 			{
				"box" : 				{
					"fontname" : "Arial",
					"fontsize" : 12.0,
					"frgb" : 0.0,
					"id" : "obj-28",
					"maxclass" : "comment",
					"numinlets" : 1,
					"numoutlets" : 0,
					"patching_rect" : [ 608.422546, 38.287296, 81.0, 20.0 ],
					"text" : "total seconds"
				}

			}
, 			{
				"box" : 				{
					"fontname" : "Arial",
					"fontsize" : 12.0,
					"frgb" : 0.0,
					"id" : "obj-26",
					"maxclass" : "comment",
					"numinlets" : 1,
					"numoutlets" : 0,
					"patching_rect" : [ 510.323395, 38.287296, 34.0, 20.0 ],
					"text" : "bpm"
				}

			}
, 			{
				"box" : 				{
					"fontname" : "Arial",
					"fontsize" : 12.0,
					"id" : "obj-24",
					"maxclass" : "newobj",
					"numinlets" : 1,
					"numoutlets" : 2,
					"outlettype" : [ "signal", "" ],
					"patching_rect" : [ 334.323425, 946.145508, 39.0, 20.0 ],
					"presentation_rect" : [ 87.736862, 411.744873, 0.0, 0.0 ],
					"text" : "voice"
				}

			}
, 			{
				"box" : 				{
					"fontname" : "Arial",
					"fontsize" : 12.0,
					"id" : "obj-23",
					"maxclass" : "newobj",
					"numinlets" : 1,
					"numoutlets" : 2,
					"outlettype" : [ "signal", "" ],
					"patching_rect" : [ 314.323395, 905.421814, 39.0, 20.0 ],
					"presentation_rect" : [ 58.140808, 368.280396, 0.0, 0.0 ],
					"text" : "voice"
				}

			}
, 			{
				"box" : 				{
					"fontname" : "Arial",
					"fontsize" : 12.0,
					"id" : "obj-22",
					"maxclass" : "newobj",
					"numinlets" : 1,
					"numoutlets" : 2,
					"outlettype" : [ "signal", "" ],
					"patching_rect" : [ 294.323395, 868.166565, 39.0, 20.0 ],
					"text" : "voice"
				}

			}
, 			{
				"box" : 				{
					"fontname" : "Arial",
					"fontsize" : 12.0,
					"id" : "obj-8",
					"maxclass" : "newobj",
					"numinlets" : 1,
					"numoutlets" : 2,
					"outlettype" : [ "float", "bang" ],
					"patching_rect" : [ 50.802647, 215.794785, 119.0, 20.0 ],
					"text" : "buffer~ hh3 hh3.wav"
				}

			}
, 			{
				"box" : 				{
					"fontname" : "Arial",
					"fontsize" : 12.0,
					"id" : "obj-7",
					"maxclass" : "newobj",
					"numinlets" : 1,
					"numoutlets" : 2,
					"outlettype" : [ "float", "bang" ],
					"patching_rect" : [ 50.802647, 195.794785, 119.0, 20.0 ],
					"text" : "buffer~ hh2 hh2.wav"
				}

			}
, 			{
				"box" : 				{
					"fontname" : "Arial",
					"fontsize" : 12.0,
					"id" : "obj-6",
					"maxclass" : "newobj",
					"numinlets" : 1,
					"numoutlets" : 2,
					"outlettype" : [ "float", "bang" ],
					"patching_rect" : [ 50.802647, 175.794785, 119.0, 20.0 ],
					"text" : "buffer~ hh1 hh1.wav"
				}

			}
, 			{
				"box" : 				{
					"fontname" : "Arial",
					"fontsize" : 12.0,
					"id" : "obj-5",
					"maxclass" : "newobj",
					"numinlets" : 1,
					"numoutlets" : 2,
					"outlettype" : [ "float", "bang" ],
					"patching_rect" : [ 50.802647, 155.794785, 119.0, 20.0 ],
					"text" : "buffer~ hh0 hh0.wav"
				}

			}
, 			{
				"box" : 				{
					"fontname" : "Arial",
					"fontsize" : 12.0,
					"id" : "obj-3",
					"maxclass" : "newobj",
					"numinlets" : 1,
					"numoutlets" : 2,
					"outlettype" : [ "float", "bang" ],
					"patching_rect" : [ 50.802647, 119.103981, 118.0, 20.0 ],
					"text" : "buffer~ sn2 sn2.wav"
				}

			}
, 			{
				"box" : 				{
					"fontname" : "Arial",
					"fontsize" : 12.0,
					"id" : "obj-2",
					"maxclass" : "newobj",
					"numinlets" : 1,
					"numoutlets" : 2,
					"outlettype" : [ "float", "bang" ],
					"patching_rect" : [ 50.802647, 87.493446, 111.0, 20.0 ],
					"text" : "buffer~ sn sn1.wav"
				}

			}
, 			{
				"box" : 				{
					"fontname" : "Arial",
					"fontsize" : 12.0,
					"id" : "obj-1",
					"maxclass" : "newobj",
					"numinlets" : 1,
					"numoutlets" : 2,
					"outlettype" : [ "float", "bang" ],
					"patching_rect" : [ 50.802647, 50.238174, 97.0, 20.0 ],
					"text" : "buffer~ bd bd.aif"
				}

			}
 ],
		"lines" : [ 			{
				"patchline" : 				{
					"destination" : [ "obj-96", 0 ],
					"disabled" : 0,
					"hidden" : 0,
					"source" : [ "obj-100", 0 ]
				}

			}
, 			{
				"patchline" : 				{
					"destination" : [ "obj-83", 0 ],
					"disabled" : 0,
					"hidden" : 0,
					"source" : [ "obj-104", 0 ]
				}

			}
, 			{
				"patchline" : 				{
					"destination" : [ "obj-23", 0 ],
					"disabled" : 0,
					"hidden" : 0,
					"source" : [ "obj-22", 1 ]
				}

			}
, 			{
				"patchline" : 				{
					"destination" : [ "obj-89", 0 ],
					"disabled" : 0,
					"hidden" : 0,
					"source" : [ "obj-22", 0 ]
				}

			}
, 			{
				"patchline" : 				{
					"destination" : [ "obj-24", 0 ],
					"disabled" : 0,
					"hidden" : 0,
					"source" : [ "obj-23", 1 ]
				}

			}
, 			{
				"patchline" : 				{
					"destination" : [ "obj-89", 0 ],
					"disabled" : 0,
					"hidden" : 0,
					"source" : [ "obj-23", 0 ]
				}

			}
, 			{
				"patchline" : 				{
					"destination" : [ "obj-88", 0 ],
					"disabled" : 0,
					"hidden" : 0,
					"source" : [ "obj-24", 1 ]
				}

			}
, 			{
				"patchline" : 				{
					"destination" : [ "obj-89", 0 ],
					"disabled" : 0,
					"hidden" : 0,
					"source" : [ "obj-24", 0 ]
				}

			}
, 			{
				"patchline" : 				{
					"destination" : [ "obj-71", 0 ],
					"disabled" : 0,
					"hidden" : 0,
					"source" : [ "obj-30", 0 ]
				}

			}
, 			{
				"patchline" : 				{
					"destination" : [ "obj-71", 1 ],
					"disabled" : 0,
					"hidden" : 0,
					"source" : [ "obj-32", 0 ]
				}

			}
, 			{
				"patchline" : 				{
					"destination" : [ "obj-67", 0 ],
					"disabled" : 0,
					"hidden" : 0,
					"source" : [ "obj-43", 0 ]
				}

			}
, 			{
				"patchline" : 				{
					"destination" : [ "obj-94", 0 ],
					"disabled" : 0,
					"hidden" : 0,
					"source" : [ "obj-43", 0 ]
				}

			}
, 			{
				"patchline" : 				{
					"destination" : [ "obj-76", 0 ],
					"disabled" : 0,
					"hidden" : 0,
					"source" : [ "obj-45", 0 ]
				}

			}
, 			{
				"patchline" : 				{
					"destination" : [ "obj-93", 0 ],
					"disabled" : 0,
					"hidden" : 0,
					"source" : [ "obj-45", 0 ]
				}

			}
, 			{
				"patchline" : 				{
					"destination" : [ "obj-80", 0 ],
					"disabled" : 0,
					"hidden" : 0,
					"source" : [ "obj-60", 0 ]
				}

			}
, 			{
				"patchline" : 				{
					"destination" : [ "obj-60", 0 ],
					"disabled" : 0,
					"hidden" : 0,
					"source" : [ "obj-64", 0 ]
				}

			}
, 			{
				"patchline" : 				{
					"destination" : [ "obj-45", 0 ],
					"disabled" : 0,
					"hidden" : 0,
					"source" : [ "obj-67", 0 ]
				}

			}
, 			{
				"patchline" : 				{
					"destination" : [ "obj-76", 2 ],
					"disabled" : 0,
					"hidden" : 0,
					"source" : [ "obj-67", 2 ]
				}

			}
, 			{
				"patchline" : 				{
					"destination" : [ "obj-76", 1 ],
					"disabled" : 0,
					"hidden" : 0,
					"source" : [ "obj-67", 1 ]
				}

			}
, 			{
				"patchline" : 				{
					"destination" : [ "obj-43", 1 ],
					"disabled" : 0,
					"hidden" : 0,
					"source" : [ "obj-71", 0 ]
				}

			}
, 			{
				"patchline" : 				{
					"destination" : [ "obj-60", 1 ],
					"disabled" : 0,
					"hidden" : 0,
					"source" : [ "obj-76", 0 ]
				}

			}
, 			{
				"patchline" : 				{
					"destination" : [ "obj-79", 1 ],
					"disabled" : 0,
					"hidden" : 0,
					"source" : [ "obj-77", 0 ]
				}

			}
, 			{
				"patchline" : 				{
					"destination" : [ "obj-79", 0 ],
					"disabled" : 0,
					"hidden" : 0,
					"source" : [ "obj-78", 0 ]
				}

			}
, 			{
				"patchline" : 				{
					"destination" : [ "obj-82", 0 ],
					"disabled" : 0,
					"hidden" : 0,
					"source" : [ "obj-79", 0 ]
				}

			}
, 			{
				"patchline" : 				{
					"destination" : [ "obj-77", 0 ],
					"disabled" : 0,
					"hidden" : 0,
					"source" : [ "obj-80", 1 ]
				}

			}
, 			{
				"patchline" : 				{
					"destination" : [ "obj-78", 0 ],
					"disabled" : 0,
					"hidden" : 0,
					"source" : [ "obj-80", 0 ]
				}

			}
, 			{
				"patchline" : 				{
					"destination" : [ "obj-83", 0 ],
					"disabled" : 0,
					"hidden" : 0,
					"source" : [ "obj-82", 0 ]
				}

			}
, 			{
				"patchline" : 				{
					"destination" : [ "obj-22", 0 ],
					"disabled" : 0,
					"hidden" : 0,
					"source" : [ "obj-83", 0 ]
				}

			}
, 			{
				"patchline" : 				{
					"destination" : [ "obj-85", 0 ],
					"disabled" : 0,
					"hidden" : 0,
					"source" : [ "obj-83", 0 ]
				}

			}
, 			{
				"patchline" : 				{
					"destination" : [ "obj-106", 0 ],
					"disabled" : 0,
					"hidden" : 0,
					"source" : [ "obj-86", 1 ]
				}

			}
, 			{
				"patchline" : 				{
					"destination" : [ "obj-89", 0 ],
					"disabled" : 0,
					"hidden" : 0,
					"source" : [ "obj-86", 0 ]
				}

			}
, 			{
				"patchline" : 				{
					"destination" : [ "obj-86", 0 ],
					"disabled" : 0,
					"hidden" : 0,
					"source" : [ "obj-87", 1 ]
				}

			}
, 			{
				"patchline" : 				{
					"destination" : [ "obj-89", 0 ],
					"disabled" : 0,
					"hidden" : 0,
					"source" : [ "obj-87", 0 ]
				}

			}
, 			{
				"patchline" : 				{
					"destination" : [ "obj-87", 0 ],
					"disabled" : 0,
					"hidden" : 0,
					"source" : [ "obj-88", 1 ]
				}

			}
, 			{
				"patchline" : 				{
					"destination" : [ "obj-89", 0 ],
					"disabled" : 0,
					"hidden" : 0,
					"source" : [ "obj-88", 0 ]
				}

			}
, 			{
				"patchline" : 				{
					"destination" : [ "obj-92", 1 ],
					"disabled" : 0,
					"hidden" : 0,
					"source" : [ "obj-89", 0 ]
				}

			}
, 			{
				"patchline" : 				{
					"destination" : [ "obj-92", 0 ],
					"disabled" : 0,
					"hidden" : 0,
					"source" : [ "obj-89", 0 ]
				}

			}
, 			{
				"patchline" : 				{
					"destination" : [ "obj-89", 0 ],
					"disabled" : 0,
					"hidden" : 0,
					"source" : [ "obj-91", 0 ]
				}

			}
, 			{
				"patchline" : 				{
					"destination" : [ "obj-96", 1 ],
					"disabled" : 0,
					"hidden" : 0,
					"source" : [ "obj-93", 0 ]
				}

			}
, 			{
				"patchline" : 				{
					"destination" : [ "obj-45", 0 ],
					"disabled" : 0,
					"hidden" : 0,
					"source" : [ "obj-94", 0 ]
				}

			}
, 			{
				"patchline" : 				{
					"destination" : [ "obj-93", 1 ],
					"disabled" : 0,
					"hidden" : 0,
					"source" : [ "obj-94", 1 ]
				}

			}
, 			{
				"patchline" : 				{
					"destination" : [ "obj-102", 0 ],
					"disabled" : 0,
					"hidden" : 0,
					"source" : [ "obj-96", 0 ]
				}

			}
, 			{
				"patchline" : 				{
					"destination" : [ "obj-80", 0 ],
					"disabled" : 0,
					"hidden" : 0,
					"source" : [ "obj-96", 0 ]
				}

			}
 ],
		"dependency_cache" : [ 			{
				"name" : "voice.maxpat",
				"bootpath" : "/Users/!hmfmusic158inst/Desktop/drum_machine_sounds",
				"patcherrelativepath" : ".",
				"type" : "JSON",
				"implicit" : 1
			}
, 			{
				"name" : "o.route.mxo",
				"type" : "iLaX"
			}
, 			{
				"name" : "o.compose.mxo",
				"type" : "iLaX"
			}
, 			{
				"name" : "o.expr.codebox.mxo",
				"type" : "iLaX"
			}
, 			{
				"name" : "o.var.mxo",
				"type" : "iLaX"
			}
, 			{
				"name" : "o.pack.mxo",
				"type" : "iLaX"
			}
, 			{
				"name" : "o.listenumerate.mxo",
				"type" : "iLaX"
			}
, 			{
				"name" : "o.union.mxo",
				"type" : "iLaX"
			}
, 			{
				"name" : "o.timetag.mxo",
				"type" : "iLaX"
			}
, 			{
				"name" : "o.schedule.mxo",
				"type" : "iLaX"
			}
, 			{
				"name" : "o.display.mxo",
				"type" : "iLaX"
			}
 ]
	}

}
