{
	"patcher" : 	{
		"fileversion" : 1,
		"appversion" : 		{
			"major" : 6,
			"minor" : 1,
			"revision" : 3,
			"architecture" : "x86"
		}
,
		"rect" : [ 45.0, 44.0, 1395.0, 810.0 ],
		"bglocked" : 0,
		"openinpresentation" : 0,
		"default_fontsize" : 12.0,
		"default_fontface" : 0,
		"default_fontname" : "Helvetica Neue",
		"gridonopen" : 0,
		"gridsize" : [ 15.0, 15.0 ],
		"gridsnaponopen" : 0,
		"statusbarvisible" : 2,
		"toolbarvisible" : 1,
		"boxanimatetime" : 200,
		"imprint" : 0,
		"enablehscroll" : 1,
		"enablevscroll" : 1,
		"devicewidth" : 0.0,
		"description" : "",
		"digest" : "",
		"tags" : "",
		"boxes" : [ 			{
				"box" : 				{
					"id" : "obj-2",
					"maxclass" : "gain~",
					"numinlets" : 2,
					"numoutlets" : 2,
					"outlettype" : [ "signal", "int" ],
					"parameter_enable" : 0,
					"patching_rect" : [ 16.0, 600.0, 35.0, 165.0 ]
				}

			}
, 			{
				"box" : 				{
					"fontname" : "Helvetica Neue",
					"fontsize" : 12.0,
					"frgb" : 0.0,
					"id" : "obj-749",
					"maxclass" : "comment",
					"numinlets" : 1,
					"numoutlets" : 0,
					"patching_rect" : [ 635.25, 600.0, 303.0, 20.0 ],
					"text" : "spectroscope~ view of the cycle~ combination  output"
				}

			}
, 			{
				"box" : 				{
					"fontname" : "Helvetica Neue",
					"fontsize" : 12.0,
					"frgb" : 0.0,
					"id" : "obj-748",
					"maxclass" : "comment",
					"numinlets" : 1,
					"numoutlets" : 0,
					"patching_rect" : [ 570.0, 60.0, 223.0, 20.0 ],
					"text" : "spectroscope~ view of the saw~ output"
				}

			}
, 			{
				"box" : 				{
					"fontname" : "Helvetica Neue",
					"fontsize" : 12.0,
					"frgb" : 0.0,
					"id" : "obj-747",
					"maxclass" : "comment",
					"numinlets" : 1,
					"numoutlets" : 0,
					"patching_rect" : [ 150.0, 15.0, 330.0, 20.0 ],
					"text" : "change the frequency of the saw~ (sawtooth) oscillator here"
				}

			}
, 			{
				"box" : 				{
					"fontname" : "Helvetica Neue",
					"fontsize" : 12.0,
					"id" : "obj-90",
					"maxclass" : "newobj",
					"numinlets" : 2,
					"numoutlets" : 1,
					"outlettype" : [ "signal" ],
					"patching_rect" : [ 16.0, 555.0, 35.0, 20.0 ],
					"text" : "*~ 1."
				}

			}
, 			{
				"box" : 				{
					"id" : "obj-89",
					"maxclass" : "spectroscope~",
					"numinlets" : 2,
					"numoutlets" : 1,
					"outlettype" : [ "" ],
					"patching_rect" : [ 81.0, 600.0, 555.0, 165.0 ]
				}

			}
, 			{
				"box" : 				{
					"fontname" : "Helvetica Neue",
					"fontsize" : 12.0,
					"id" : "obj-63",
					"maxclass" : "flonum",
					"numinlets" : 1,
					"numoutlets" : 2,
					"outlettype" : [ "float", "bang" ],
					"parameter_enable" : 0,
					"patching_rect" : [ 15.0, 255.0, 50.0, 20.0 ]
				}

			}
, 			{
				"box" : 				{
					"fontname" : "Helvetica Neue",
					"fontsize" : 12.0,
					"id" : "obj-29",
					"maxclass" : "flonum",
					"numinlets" : 1,
					"numoutlets" : 2,
					"outlettype" : [ "float", "bang" ],
					"parameter_enable" : 0,
					"patching_rect" : [ 96.249992, 15.0, 50.0, 20.0 ]
				}

			}
, 			{
				"box" : 				{
					"id" : "obj-25",
					"maxclass" : "ezdac~",
					"numinlets" : 2,
					"numoutlets" : 0,
					"patching_rect" : [ 16.0, 781.0, 45.0, 45.0 ]
				}

			}
, 			{
				"box" : 				{
					"id" : "obj-24",
					"maxclass" : "spectroscope~",
					"numinlets" : 2,
					"numoutlets" : 1,
					"outlettype" : [ "" ],
					"patching_rect" : [ 15.0, 60.0, 555.0, 165.0 ]
				}

			}
, 			{
				"box" : 				{
					"fontname" : "Helvetica Neue",
					"fontsize" : 12.0,
					"id" : "obj-15",
					"maxclass" : "newobj",
					"numinlets" : 2,
					"numoutlets" : 1,
					"outlettype" : [ "signal" ],
					"patching_rect" : [ 15.0, 15.0, 66.0, 20.0 ],
					"text" : "saw~ 440."
				}

			}
, 			{
				"box" : 				{
					"fontname" : "Helvetica Neue",
					"fontsize" : 12.0,
					"id" : "obj-33",
					"maxclass" : "newobj",
					"numinlets" : 2,
					"numoutlets" : 1,
					"outlettype" : [ "signal" ],
					"patching_rect" : [ 16.0, 508.0, 90.0, 20.0 ],
					"text" : "*~ 0."
				}

			}
, 			{
				"box" : 				{
					"fontname" : "Helvetica Neue",
					"fontsize" : 12.0,
					"id" : "obj-30",
					"maxclass" : "newobj",
					"numinlets" : 2,
					"numoutlets" : 1,
					"outlettype" : [ "signal" ],
					"patching_rect" : [ 16.0, 463.0, 59.0, 20.0 ],
					"text" : "cycle~ 0."
				}

			}
, 			{
				"box" : 				{
					"fontname" : "Helvetica Neue",
					"fontsize" : 12.0,
					"id" : "obj-1",
					"maxclass" : "newobj",
					"numinlets" : 1,
					"numoutlets" : 2,
					"outlettype" : [ "float", "float" ],
					"patching_rect" : [ 104.999992, 374.0, 90.0, 20.0 ],
					"text" : "t f 1."
				}

			}
, 			{
				"box" : 				{
					"fontname" : "Helvetica Neue",
					"fontsize" : 12.0,
					"id" : "obj-88",
					"maxclass" : "newobj",
					"numinlets" : 2,
					"numoutlets" : 1,
					"outlettype" : [ "float" ],
					"patching_rect" : [ 176.0, 419.0, 32.5, 20.0 ],
					"text" : "/ 2."
				}

			}
, 			{
				"box" : 				{
					"fontname" : "Helvetica Neue",
					"fontsize" : 12.0,
					"id" : "obj-64",
					"maxclass" : "newobj",
					"numinlets" : 2,
					"numoutlets" : 1,
					"outlettype" : [ "float" ],
					"patching_rect" : [ 104.999992, 419.0, 32.5, 20.0 ],
					"text" : "* 2."
				}

			}
, 			{
				"box" : 				{
					"fontname" : "Helvetica Neue",
					"fontsize" : 12.0,
					"id" : "obj-41",
					"maxclass" : "newobj",
					"numinlets" : 2,
					"numoutlets" : 1,
					"outlettype" : [ "signal" ],
					"patching_rect" : [ 104.999992, 508.0, 90.0, 20.0 ],
					"text" : "*~ 0."
				}

			}
, 			{
				"box" : 				{
					"fontname" : "Helvetica Neue",
					"fontsize" : 12.0,
					"id" : "obj-42",
					"maxclass" : "newobj",
					"numinlets" : 2,
					"numoutlets" : 1,
					"outlettype" : [ "signal" ],
					"patching_rect" : [ 104.999992, 463.0, 59.0, 20.0 ],
					"text" : "cycle~ 0."
				}

			}
, 			{
				"box" : 				{
					"fontname" : "Helvetica Neue",
					"fontsize" : 12.0,
					"id" : "obj-606",
					"maxclass" : "newobj",
					"numinlets" : 1,
					"numoutlets" : 2,
					"outlettype" : [ "float", "float" ],
					"patching_rect" : [ 209.25, 374.0, 90.0, 20.0 ],
					"text" : "t f 1."
				}

			}
, 			{
				"box" : 				{
					"fontname" : "Helvetica Neue",
					"fontsize" : 12.0,
					"id" : "obj-607",
					"maxclass" : "newobj",
					"numinlets" : 2,
					"numoutlets" : 1,
					"outlettype" : [ "float" ],
					"patching_rect" : [ 280.25, 419.0, 32.5, 20.0 ],
					"text" : "/ 3."
				}

			}
, 			{
				"box" : 				{
					"fontname" : "Helvetica Neue",
					"fontsize" : 12.0,
					"id" : "obj-608",
					"maxclass" : "newobj",
					"numinlets" : 2,
					"numoutlets" : 1,
					"outlettype" : [ "float" ],
					"patching_rect" : [ 209.25, 419.0, 32.5, 20.0 ],
					"text" : "* 3."
				}

			}
, 			{
				"box" : 				{
					"fontname" : "Helvetica Neue",
					"fontsize" : 12.0,
					"id" : "obj-609",
					"maxclass" : "newobj",
					"numinlets" : 2,
					"numoutlets" : 1,
					"outlettype" : [ "signal" ],
					"patching_rect" : [ 209.25, 508.0, 90.0, 20.0 ],
					"text" : "*~ 0."
				}

			}
, 			{
				"box" : 				{
					"fontname" : "Helvetica Neue",
					"fontsize" : 12.0,
					"id" : "obj-610",
					"maxclass" : "newobj",
					"numinlets" : 2,
					"numoutlets" : 1,
					"outlettype" : [ "signal" ],
					"patching_rect" : [ 209.25, 463.0, 59.0, 20.0 ],
					"text" : "cycle~ 0."
				}

			}
, 			{
				"box" : 				{
					"fontname" : "Helvetica Neue",
					"fontsize" : 12.0,
					"id" : "obj-611",
					"maxclass" : "newobj",
					"numinlets" : 1,
					"numoutlets" : 2,
					"outlettype" : [ "float", "float" ],
					"patching_rect" : [ 313.5, 374.0, 90.0, 20.0 ],
					"text" : "t f 1."
				}

			}
, 			{
				"box" : 				{
					"fontname" : "Helvetica Neue",
					"fontsize" : 12.0,
					"id" : "obj-612",
					"maxclass" : "newobj",
					"numinlets" : 2,
					"numoutlets" : 1,
					"outlettype" : [ "float" ],
					"patching_rect" : [ 384.5, 419.0, 32.5, 20.0 ],
					"text" : "/ 4."
				}

			}
, 			{
				"box" : 				{
					"fontname" : "Helvetica Neue",
					"fontsize" : 12.0,
					"id" : "obj-613",
					"maxclass" : "newobj",
					"numinlets" : 2,
					"numoutlets" : 1,
					"outlettype" : [ "float" ],
					"patching_rect" : [ 313.5, 419.0, 32.5, 20.0 ],
					"text" : "* 4."
				}

			}
, 			{
				"box" : 				{
					"fontname" : "Helvetica Neue",
					"fontsize" : 12.0,
					"id" : "obj-614",
					"maxclass" : "newobj",
					"numinlets" : 2,
					"numoutlets" : 1,
					"outlettype" : [ "signal" ],
					"patching_rect" : [ 313.5, 508.0, 90.0, 20.0 ],
					"text" : "*~ 0."
				}

			}
, 			{
				"box" : 				{
					"fontname" : "Helvetica Neue",
					"fontsize" : 12.0,
					"id" : "obj-615",
					"maxclass" : "newobj",
					"numinlets" : 2,
					"numoutlets" : 1,
					"outlettype" : [ "signal" ],
					"patching_rect" : [ 313.5, 463.0, 59.0, 20.0 ],
					"text" : "cycle~ 0."
				}

			}
, 			{
				"box" : 				{
					"fontname" : "Helvetica Neue",
					"fontsize" : 12.0,
					"id" : "obj-616",
					"maxclass" : "newobj",
					"numinlets" : 1,
					"numoutlets" : 2,
					"outlettype" : [ "float", "float" ],
					"patching_rect" : [ 417.75, 374.0, 90.0, 20.0 ],
					"text" : "t f 1."
				}

			}
, 			{
				"box" : 				{
					"fontname" : "Helvetica Neue",
					"fontsize" : 12.0,
					"id" : "obj-617",
					"maxclass" : "newobj",
					"numinlets" : 2,
					"numoutlets" : 1,
					"outlettype" : [ "float" ],
					"patching_rect" : [ 488.75, 419.0, 32.5, 20.0 ],
					"text" : "/ 5."
				}

			}
, 			{
				"box" : 				{
					"fontname" : "Helvetica Neue",
					"fontsize" : 12.0,
					"id" : "obj-618",
					"maxclass" : "newobj",
					"numinlets" : 2,
					"numoutlets" : 1,
					"outlettype" : [ "float" ],
					"patching_rect" : [ 417.75, 419.0, 32.5, 20.0 ],
					"text" : "* 5."
				}

			}
, 			{
				"box" : 				{
					"fontname" : "Helvetica Neue",
					"fontsize" : 12.0,
					"id" : "obj-619",
					"maxclass" : "newobj",
					"numinlets" : 2,
					"numoutlets" : 1,
					"outlettype" : [ "signal" ],
					"patching_rect" : [ 417.75, 508.0, 90.0, 20.0 ],
					"text" : "*~ 0."
				}

			}
, 			{
				"box" : 				{
					"fontname" : "Helvetica Neue",
					"fontsize" : 12.0,
					"id" : "obj-620",
					"maxclass" : "newobj",
					"numinlets" : 2,
					"numoutlets" : 1,
					"outlettype" : [ "signal" ],
					"patching_rect" : [ 417.75, 463.0, 59.0, 20.0 ],
					"text" : "cycle~ 0."
				}

			}
, 			{
				"box" : 				{
					"fontname" : "Helvetica Neue",
					"fontsize" : 12.0,
					"id" : "obj-621",
					"maxclass" : "newobj",
					"numinlets" : 1,
					"numoutlets" : 2,
					"outlettype" : [ "float", "float" ],
					"patching_rect" : [ 522.0, 374.0, 90.0, 20.0 ],
					"text" : "t f 1."
				}

			}
, 			{
				"box" : 				{
					"fontname" : "Helvetica Neue",
					"fontsize" : 12.0,
					"id" : "obj-622",
					"maxclass" : "newobj",
					"numinlets" : 2,
					"numoutlets" : 1,
					"outlettype" : [ "float" ],
					"patching_rect" : [ 593.0, 419.0, 32.5, 20.0 ],
					"text" : "/ 6."
				}

			}
, 			{
				"box" : 				{
					"fontname" : "Helvetica Neue",
					"fontsize" : 12.0,
					"id" : "obj-623",
					"maxclass" : "newobj",
					"numinlets" : 2,
					"numoutlets" : 1,
					"outlettype" : [ "float" ],
					"patching_rect" : [ 522.0, 419.0, 32.5, 20.0 ],
					"text" : "* 6."
				}

			}
, 			{
				"box" : 				{
					"fontname" : "Helvetica Neue",
					"fontsize" : 12.0,
					"id" : "obj-624",
					"maxclass" : "newobj",
					"numinlets" : 2,
					"numoutlets" : 1,
					"outlettype" : [ "signal" ],
					"patching_rect" : [ 522.0, 508.0, 90.0, 20.0 ],
					"text" : "*~ 0."
				}

			}
, 			{
				"box" : 				{
					"fontname" : "Helvetica Neue",
					"fontsize" : 12.0,
					"id" : "obj-625",
					"maxclass" : "newobj",
					"numinlets" : 2,
					"numoutlets" : 1,
					"outlettype" : [ "signal" ],
					"patching_rect" : [ 522.0, 463.0, 59.0, 20.0 ],
					"text" : "cycle~ 0."
				}

			}
, 			{
				"box" : 				{
					"fontname" : "Helvetica Neue",
					"fontsize" : 12.0,
					"id" : "obj-626",
					"maxclass" : "newobj",
					"numinlets" : 1,
					"numoutlets" : 2,
					"outlettype" : [ "float", "float" ],
					"patching_rect" : [ 626.25, 374.0, 90.0, 20.0 ],
					"text" : "t f 1."
				}

			}
, 			{
				"box" : 				{
					"fontname" : "Helvetica Neue",
					"fontsize" : 12.0,
					"id" : "obj-627",
					"maxclass" : "newobj",
					"numinlets" : 2,
					"numoutlets" : 1,
					"outlettype" : [ "float" ],
					"patching_rect" : [ 697.25, 419.0, 32.5, 20.0 ],
					"text" : "/ 7."
				}

			}
, 			{
				"box" : 				{
					"fontname" : "Helvetica Neue",
					"fontsize" : 12.0,
					"id" : "obj-628",
					"maxclass" : "newobj",
					"numinlets" : 2,
					"numoutlets" : 1,
					"outlettype" : [ "float" ],
					"patching_rect" : [ 626.25, 419.0, 32.5, 20.0 ],
					"text" : "* 7."
				}

			}
, 			{
				"box" : 				{
					"fontname" : "Helvetica Neue",
					"fontsize" : 12.0,
					"id" : "obj-629",
					"maxclass" : "newobj",
					"numinlets" : 2,
					"numoutlets" : 1,
					"outlettype" : [ "signal" ],
					"patching_rect" : [ 626.25, 508.0, 90.0, 20.0 ],
					"text" : "*~ 0."
				}

			}
, 			{
				"box" : 				{
					"fontname" : "Helvetica Neue",
					"fontsize" : 12.0,
					"id" : "obj-630",
					"maxclass" : "newobj",
					"numinlets" : 2,
					"numoutlets" : 1,
					"outlettype" : [ "signal" ],
					"patching_rect" : [ 626.25, 463.0, 59.0, 20.0 ],
					"text" : "cycle~ 0."
				}

			}
, 			{
				"box" : 				{
					"fontname" : "Helvetica Neue",
					"fontsize" : 12.0,
					"id" : "obj-631",
					"maxclass" : "newobj",
					"numinlets" : 1,
					"numoutlets" : 2,
					"outlettype" : [ "float", "float" ],
					"patching_rect" : [ 730.5, 374.0, 90.0, 20.0 ],
					"text" : "t f 1."
				}

			}
, 			{
				"box" : 				{
					"fontname" : "Helvetica Neue",
					"fontsize" : 12.0,
					"id" : "obj-632",
					"maxclass" : "newobj",
					"numinlets" : 2,
					"numoutlets" : 1,
					"outlettype" : [ "float" ],
					"patching_rect" : [ 801.5, 419.0, 32.5, 20.0 ],
					"text" : "/ 8."
				}

			}
, 			{
				"box" : 				{
					"fontname" : "Helvetica Neue",
					"fontsize" : 12.0,
					"id" : "obj-633",
					"maxclass" : "newobj",
					"numinlets" : 2,
					"numoutlets" : 1,
					"outlettype" : [ "float" ],
					"patching_rect" : [ 730.5, 419.0, 32.5, 20.0 ],
					"text" : "* 8."
				}

			}
, 			{
				"box" : 				{
					"fontname" : "Helvetica Neue",
					"fontsize" : 12.0,
					"id" : "obj-634",
					"maxclass" : "newobj",
					"numinlets" : 2,
					"numoutlets" : 1,
					"outlettype" : [ "signal" ],
					"patching_rect" : [ 730.5, 508.0, 90.0, 20.0 ],
					"text" : "*~ 0."
				}

			}
, 			{
				"box" : 				{
					"fontname" : "Helvetica Neue",
					"fontsize" : 12.0,
					"id" : "obj-635",
					"maxclass" : "newobj",
					"numinlets" : 2,
					"numoutlets" : 1,
					"outlettype" : [ "signal" ],
					"patching_rect" : [ 730.5, 463.0, 59.0, 20.0 ],
					"text" : "cycle~ 0."
				}

			}
, 			{
				"box" : 				{
					"fontname" : "Helvetica Neue",
					"fontsize" : 12.0,
					"id" : "obj-636",
					"maxclass" : "newobj",
					"numinlets" : 1,
					"numoutlets" : 2,
					"outlettype" : [ "float", "float" ],
					"patching_rect" : [ 834.75, 374.0, 90.0, 20.0 ],
					"text" : "t f 1."
				}

			}
, 			{
				"box" : 				{
					"fontname" : "Helvetica Neue",
					"fontsize" : 12.0,
					"id" : "obj-637",
					"maxclass" : "newobj",
					"numinlets" : 2,
					"numoutlets" : 1,
					"outlettype" : [ "float" ],
					"patching_rect" : [ 905.75, 419.0, 32.5, 20.0 ],
					"text" : "/ 9."
				}

			}
, 			{
				"box" : 				{
					"fontname" : "Helvetica Neue",
					"fontsize" : 12.0,
					"id" : "obj-638",
					"maxclass" : "newobj",
					"numinlets" : 2,
					"numoutlets" : 1,
					"outlettype" : [ "float" ],
					"patching_rect" : [ 834.75, 419.0, 32.5, 20.0 ],
					"text" : "* 9."
				}

			}
, 			{
				"box" : 				{
					"fontname" : "Helvetica Neue",
					"fontsize" : 12.0,
					"id" : "obj-639",
					"maxclass" : "newobj",
					"numinlets" : 2,
					"numoutlets" : 1,
					"outlettype" : [ "signal" ],
					"patching_rect" : [ 834.75, 508.0, 90.0, 20.0 ],
					"text" : "*~ 0."
				}

			}
, 			{
				"box" : 				{
					"fontname" : "Helvetica Neue",
					"fontsize" : 12.0,
					"id" : "obj-640",
					"maxclass" : "newobj",
					"numinlets" : 2,
					"numoutlets" : 1,
					"outlettype" : [ "signal" ],
					"patching_rect" : [ 834.75, 463.0, 59.0, 20.0 ],
					"text" : "cycle~ 0."
				}

			}
, 			{
				"box" : 				{
					"fontname" : "Helvetica Neue",
					"fontsize" : 12.0,
					"id" : "obj-641",
					"maxclass" : "newobj",
					"numinlets" : 1,
					"numoutlets" : 2,
					"outlettype" : [ "float", "float" ],
					"patching_rect" : [ 939.0, 374.0, 90.0, 20.0 ],
					"text" : "t f 1."
				}

			}
, 			{
				"box" : 				{
					"fontname" : "Helvetica Neue",
					"fontsize" : 12.0,
					"id" : "obj-642",
					"maxclass" : "newobj",
					"numinlets" : 2,
					"numoutlets" : 1,
					"outlettype" : [ "float" ],
					"patching_rect" : [ 1010.0, 419.0, 33.0, 20.0 ],
					"text" : "/ 10."
				}

			}
, 			{
				"box" : 				{
					"fontname" : "Helvetica Neue",
					"fontsize" : 12.0,
					"id" : "obj-643",
					"maxclass" : "newobj",
					"numinlets" : 2,
					"numoutlets" : 1,
					"outlettype" : [ "float" ],
					"patching_rect" : [ 939.0, 419.0, 33.0, 20.0 ],
					"text" : "* 10."
				}

			}
, 			{
				"box" : 				{
					"fontname" : "Helvetica Neue",
					"fontsize" : 12.0,
					"id" : "obj-644",
					"maxclass" : "newobj",
					"numinlets" : 2,
					"numoutlets" : 1,
					"outlettype" : [ "signal" ],
					"patching_rect" : [ 939.0, 508.0, 90.0, 20.0 ],
					"text" : "*~ 0."
				}

			}
, 			{
				"box" : 				{
					"fontname" : "Helvetica Neue",
					"fontsize" : 12.0,
					"id" : "obj-645",
					"maxclass" : "newobj",
					"numinlets" : 2,
					"numoutlets" : 1,
					"outlettype" : [ "signal" ],
					"patching_rect" : [ 939.0, 463.0, 59.0, 20.0 ],
					"text" : "cycle~ 0."
				}

			}
, 			{
				"box" : 				{
					"fontname" : "Helvetica Neue",
					"fontsize" : 12.0,
					"id" : "obj-646",
					"maxclass" : "newobj",
					"numinlets" : 1,
					"numoutlets" : 2,
					"outlettype" : [ "float", "float" ],
					"patching_rect" : [ 1050.25, 374.0, 90.0, 20.0 ],
					"text" : "t f 1."
				}

			}
, 			{
				"box" : 				{
					"fontname" : "Helvetica Neue",
					"fontsize" : 12.0,
					"id" : "obj-647",
					"maxclass" : "newobj",
					"numinlets" : 2,
					"numoutlets" : 1,
					"outlettype" : [ "float" ],
					"patching_rect" : [ 1121.25, 419.0, 33.0, 20.0 ],
					"text" : "/ 11."
				}

			}
, 			{
				"box" : 				{
					"fontname" : "Helvetica Neue",
					"fontsize" : 12.0,
					"id" : "obj-648",
					"maxclass" : "newobj",
					"numinlets" : 2,
					"numoutlets" : 1,
					"outlettype" : [ "float" ],
					"patching_rect" : [ 1050.25, 419.0, 33.0, 20.0 ],
					"text" : "* 11."
				}

			}
, 			{
				"box" : 				{
					"fontname" : "Helvetica Neue",
					"fontsize" : 12.0,
					"id" : "obj-649",
					"maxclass" : "newobj",
					"numinlets" : 2,
					"numoutlets" : 1,
					"outlettype" : [ "signal" ],
					"patching_rect" : [ 1050.25, 508.0, 90.0, 20.0 ],
					"text" : "*~ 0."
				}

			}
, 			{
				"box" : 				{
					"fontname" : "Helvetica Neue",
					"fontsize" : 12.0,
					"id" : "obj-650",
					"maxclass" : "newobj",
					"numinlets" : 2,
					"numoutlets" : 1,
					"outlettype" : [ "signal" ],
					"patching_rect" : [ 1050.25, 463.0, 59.0, 20.0 ],
					"text" : "cycle~ 0."
				}

			}
, 			{
				"box" : 				{
					"fontname" : "Helvetica Neue",
					"fontsize" : 12.0,
					"id" : "obj-651",
					"maxclass" : "newobj",
					"numinlets" : 1,
					"numoutlets" : 2,
					"outlettype" : [ "float", "float" ],
					"patching_rect" : [ 1161.5, 374.0, 90.0, 20.0 ],
					"text" : "t f 1."
				}

			}
, 			{
				"box" : 				{
					"fontname" : "Helvetica Neue",
					"fontsize" : 12.0,
					"id" : "obj-652",
					"maxclass" : "newobj",
					"numinlets" : 2,
					"numoutlets" : 1,
					"outlettype" : [ "float" ],
					"patching_rect" : [ 1232.5, 419.0, 33.0, 20.0 ],
					"text" : "/ 12."
				}

			}
, 			{
				"box" : 				{
					"fontname" : "Helvetica Neue",
					"fontsize" : 12.0,
					"id" : "obj-653",
					"maxclass" : "newobj",
					"numinlets" : 2,
					"numoutlets" : 1,
					"outlettype" : [ "float" ],
					"patching_rect" : [ 1161.5, 419.0, 33.0, 20.0 ],
					"text" : "* 12."
				}

			}
, 			{
				"box" : 				{
					"fontname" : "Helvetica Neue",
					"fontsize" : 12.0,
					"id" : "obj-654",
					"maxclass" : "newobj",
					"numinlets" : 2,
					"numoutlets" : 1,
					"outlettype" : [ "signal" ],
					"patching_rect" : [ 1161.5, 508.0, 90.0, 20.0 ],
					"text" : "*~ 0."
				}

			}
, 			{
				"box" : 				{
					"fontname" : "Helvetica Neue",
					"fontsize" : 12.0,
					"id" : "obj-655",
					"maxclass" : "newobj",
					"numinlets" : 2,
					"numoutlets" : 1,
					"outlettype" : [ "signal" ],
					"patching_rect" : [ 1161.5, 463.0, 59.0, 20.0 ],
					"text" : "cycle~ 0."
				}

			}
, 			{
				"box" : 				{
					"fontname" : "Helvetica Neue",
					"fontsize" : 12.0,
					"id" : "obj-656",
					"maxclass" : "newobj",
					"numinlets" : 1,
					"numoutlets" : 2,
					"outlettype" : [ "float", "float" ],
					"patching_rect" : [ 1272.75, 374.0, 90.0, 20.0 ],
					"text" : "t f 1."
				}

			}
, 			{
				"box" : 				{
					"fontname" : "Helvetica Neue",
					"fontsize" : 12.0,
					"id" : "obj-657",
					"maxclass" : "newobj",
					"numinlets" : 2,
					"numoutlets" : 1,
					"outlettype" : [ "float" ],
					"patching_rect" : [ 1343.75, 419.0, 33.0, 20.0 ],
					"text" : "/ 13."
				}

			}
, 			{
				"box" : 				{
					"fontname" : "Helvetica Neue",
					"fontsize" : 12.0,
					"id" : "obj-658",
					"maxclass" : "newobj",
					"numinlets" : 2,
					"numoutlets" : 1,
					"outlettype" : [ "float" ],
					"patching_rect" : [ 1272.75, 419.0, 33.0, 20.0 ],
					"text" : "* 13."
				}

			}
, 			{
				"box" : 				{
					"fontname" : "Helvetica Neue",
					"fontsize" : 12.0,
					"id" : "obj-659",
					"maxclass" : "newobj",
					"numinlets" : 2,
					"numoutlets" : 1,
					"outlettype" : [ "signal" ],
					"patching_rect" : [ 1272.75, 508.0, 90.0, 20.0 ],
					"text" : "*~ 0."
				}

			}
, 			{
				"box" : 				{
					"fontname" : "Helvetica Neue",
					"fontsize" : 12.0,
					"id" : "obj-660",
					"maxclass" : "newobj",
					"numinlets" : 2,
					"numoutlets" : 1,
					"outlettype" : [ "signal" ],
					"patching_rect" : [ 1272.75, 463.0, 59.0, 20.0 ],
					"text" : "cycle~ 0."
				}

			}
, 			{
				"box" : 				{
					"fontname" : "Helvetica Neue",
					"fontsize" : 12.0,
					"id" : "obj-661",
					"maxclass" : "newobj",
					"numinlets" : 1,
					"numoutlets" : 2,
					"outlettype" : [ "float", "float" ],
					"patching_rect" : [ 1384.0, 374.0, 90.0, 20.0 ],
					"text" : "t f 1."
				}

			}
, 			{
				"box" : 				{
					"fontname" : "Helvetica Neue",
					"fontsize" : 12.0,
					"id" : "obj-662",
					"maxclass" : "newobj",
					"numinlets" : 2,
					"numoutlets" : 1,
					"outlettype" : [ "float" ],
					"patching_rect" : [ 1455.0, 419.0, 33.0, 20.0 ],
					"text" : "/ 14."
				}

			}
, 			{
				"box" : 				{
					"fontname" : "Helvetica Neue",
					"fontsize" : 12.0,
					"id" : "obj-663",
					"maxclass" : "newobj",
					"numinlets" : 2,
					"numoutlets" : 1,
					"outlettype" : [ "float" ],
					"patching_rect" : [ 1384.0, 419.0, 33.0, 20.0 ],
					"text" : "* 14."
				}

			}
, 			{
				"box" : 				{
					"fontname" : "Helvetica Neue",
					"fontsize" : 12.0,
					"id" : "obj-664",
					"maxclass" : "newobj",
					"numinlets" : 2,
					"numoutlets" : 1,
					"outlettype" : [ "signal" ],
					"patching_rect" : [ 1384.0, 508.0, 90.0, 20.0 ],
					"text" : "*~ 0."
				}

			}
, 			{
				"box" : 				{
					"fontname" : "Helvetica Neue",
					"fontsize" : 12.0,
					"id" : "obj-665",
					"maxclass" : "newobj",
					"numinlets" : 2,
					"numoutlets" : 1,
					"outlettype" : [ "signal" ],
					"patching_rect" : [ 1384.0, 463.0, 59.0, 20.0 ],
					"text" : "cycle~ 0."
				}

			}
, 			{
				"box" : 				{
					"fontname" : "Helvetica Neue",
					"fontsize" : 12.0,
					"id" : "obj-666",
					"maxclass" : "newobj",
					"numinlets" : 1,
					"numoutlets" : 2,
					"outlettype" : [ "float", "float" ],
					"patching_rect" : [ 1495.25, 374.0, 90.0, 20.0 ],
					"text" : "t f 1."
				}

			}
, 			{
				"box" : 				{
					"fontname" : "Helvetica Neue",
					"fontsize" : 12.0,
					"id" : "obj-667",
					"maxclass" : "newobj",
					"numinlets" : 2,
					"numoutlets" : 1,
					"outlettype" : [ "float" ],
					"patching_rect" : [ 1566.25, 419.0, 33.0, 20.0 ],
					"text" : "/ 15."
				}

			}
, 			{
				"box" : 				{
					"fontname" : "Helvetica Neue",
					"fontsize" : 12.0,
					"id" : "obj-668",
					"maxclass" : "newobj",
					"numinlets" : 2,
					"numoutlets" : 1,
					"outlettype" : [ "float" ],
					"patching_rect" : [ 1495.25, 419.0, 33.0, 20.0 ],
					"text" : "* 15."
				}

			}
, 			{
				"box" : 				{
					"fontname" : "Helvetica Neue",
					"fontsize" : 12.0,
					"id" : "obj-669",
					"maxclass" : "newobj",
					"numinlets" : 2,
					"numoutlets" : 1,
					"outlettype" : [ "signal" ],
					"patching_rect" : [ 1495.25, 508.0, 90.0, 20.0 ],
					"text" : "*~ 0."
				}

			}
, 			{
				"box" : 				{
					"fontname" : "Helvetica Neue",
					"fontsize" : 12.0,
					"id" : "obj-670",
					"maxclass" : "newobj",
					"numinlets" : 2,
					"numoutlets" : 1,
					"outlettype" : [ "signal" ],
					"patching_rect" : [ 1495.25, 463.0, 59.0, 20.0 ],
					"text" : "cycle~ 0."
				}

			}
, 			{
				"box" : 				{
					"fontname" : "Helvetica Neue",
					"fontsize" : 12.0,
					"id" : "obj-671",
					"maxclass" : "newobj",
					"numinlets" : 1,
					"numoutlets" : 2,
					"outlettype" : [ "float", "float" ],
					"patching_rect" : [ 1606.5, 374.0, 90.0, 20.0 ],
					"text" : "t f 1."
				}

			}
, 			{
				"box" : 				{
					"fontname" : "Helvetica Neue",
					"fontsize" : 12.0,
					"id" : "obj-672",
					"maxclass" : "newobj",
					"numinlets" : 2,
					"numoutlets" : 1,
					"outlettype" : [ "float" ],
					"patching_rect" : [ 1677.5, 419.0, 33.0, 20.0 ],
					"text" : "/ 16."
				}

			}
, 			{
				"box" : 				{
					"fontname" : "Helvetica Neue",
					"fontsize" : 12.0,
					"id" : "obj-673",
					"maxclass" : "newobj",
					"numinlets" : 2,
					"numoutlets" : 1,
					"outlettype" : [ "float" ],
					"patching_rect" : [ 1606.5, 419.0, 33.0, 20.0 ],
					"text" : "* 16."
				}

			}
, 			{
				"box" : 				{
					"fontname" : "Helvetica Neue",
					"fontsize" : 12.0,
					"id" : "obj-674",
					"maxclass" : "newobj",
					"numinlets" : 2,
					"numoutlets" : 1,
					"outlettype" : [ "signal" ],
					"patching_rect" : [ 1606.5, 508.0, 90.0, 20.0 ],
					"text" : "*~ 0."
				}

			}
, 			{
				"box" : 				{
					"fontname" : "Helvetica Neue",
					"fontsize" : 12.0,
					"id" : "obj-675",
					"maxclass" : "newobj",
					"numinlets" : 2,
					"numoutlets" : 1,
					"outlettype" : [ "signal" ],
					"patching_rect" : [ 1606.5, 463.0, 59.0, 20.0 ],
					"text" : "cycle~ 0."
				}

			}
, 			{
				"box" : 				{
					"fontname" : "Helvetica Neue",
					"fontsize" : 12.0,
					"id" : "obj-676",
					"maxclass" : "newobj",
					"numinlets" : 1,
					"numoutlets" : 2,
					"outlettype" : [ "float", "float" ],
					"patching_rect" : [ 1717.75, 374.0, 90.0, 20.0 ],
					"text" : "t f 1."
				}

			}
, 			{
				"box" : 				{
					"fontname" : "Helvetica Neue",
					"fontsize" : 12.0,
					"id" : "obj-677",
					"maxclass" : "newobj",
					"numinlets" : 2,
					"numoutlets" : 1,
					"outlettype" : [ "float" ],
					"patching_rect" : [ 1788.75, 419.0, 33.0, 20.0 ],
					"text" : "/ 17."
				}

			}
, 			{
				"box" : 				{
					"fontname" : "Helvetica Neue",
					"fontsize" : 12.0,
					"id" : "obj-678",
					"maxclass" : "newobj",
					"numinlets" : 2,
					"numoutlets" : 1,
					"outlettype" : [ "float" ],
					"patching_rect" : [ 1717.75, 419.0, 33.0, 20.0 ],
					"text" : "* 17."
				}

			}
, 			{
				"box" : 				{
					"fontname" : "Helvetica Neue",
					"fontsize" : 12.0,
					"id" : "obj-679",
					"maxclass" : "newobj",
					"numinlets" : 2,
					"numoutlets" : 1,
					"outlettype" : [ "signal" ],
					"patching_rect" : [ 1717.75, 508.0, 90.0, 20.0 ],
					"text" : "*~ 0."
				}

			}
, 			{
				"box" : 				{
					"fontname" : "Helvetica Neue",
					"fontsize" : 12.0,
					"id" : "obj-680",
					"maxclass" : "newobj",
					"numinlets" : 2,
					"numoutlets" : 1,
					"outlettype" : [ "signal" ],
					"patching_rect" : [ 1717.75, 463.0, 59.0, 20.0 ],
					"text" : "cycle~ 0."
				}

			}
, 			{
				"box" : 				{
					"fontname" : "Helvetica Neue",
					"fontsize" : 12.0,
					"id" : "obj-681",
					"maxclass" : "newobj",
					"numinlets" : 1,
					"numoutlets" : 2,
					"outlettype" : [ "float", "float" ],
					"patching_rect" : [ 1829.0, 374.0, 90.0, 20.0 ],
					"text" : "t f 1."
				}

			}
, 			{
				"box" : 				{
					"fontname" : "Helvetica Neue",
					"fontsize" : 12.0,
					"id" : "obj-682",
					"maxclass" : "newobj",
					"numinlets" : 2,
					"numoutlets" : 1,
					"outlettype" : [ "float" ],
					"patching_rect" : [ 1900.0, 419.0, 33.0, 20.0 ],
					"text" : "/ 18."
				}

			}
, 			{
				"box" : 				{
					"fontname" : "Helvetica Neue",
					"fontsize" : 12.0,
					"id" : "obj-683",
					"maxclass" : "newobj",
					"numinlets" : 2,
					"numoutlets" : 1,
					"outlettype" : [ "float" ],
					"patching_rect" : [ 1829.0, 419.0, 33.0, 20.0 ],
					"text" : "* 18."
				}

			}
, 			{
				"box" : 				{
					"fontname" : "Helvetica Neue",
					"fontsize" : 12.0,
					"id" : "obj-684",
					"maxclass" : "newobj",
					"numinlets" : 2,
					"numoutlets" : 1,
					"outlettype" : [ "signal" ],
					"patching_rect" : [ 1829.0, 508.0, 90.0, 20.0 ],
					"text" : "*~ 0."
				}

			}
, 			{
				"box" : 				{
					"fontname" : "Helvetica Neue",
					"fontsize" : 12.0,
					"id" : "obj-685",
					"maxclass" : "newobj",
					"numinlets" : 2,
					"numoutlets" : 1,
					"outlettype" : [ "signal" ],
					"patching_rect" : [ 1829.0, 463.0, 59.0, 20.0 ],
					"text" : "cycle~ 0."
				}

			}
, 			{
				"box" : 				{
					"fontname" : "Helvetica Neue",
					"fontsize" : 12.0,
					"id" : "obj-686",
					"maxclass" : "newobj",
					"numinlets" : 1,
					"numoutlets" : 2,
					"outlettype" : [ "float", "float" ],
					"patching_rect" : [ 1940.25, 374.0, 90.0, 20.0 ],
					"text" : "t f 1."
				}

			}
, 			{
				"box" : 				{
					"fontname" : "Helvetica Neue",
					"fontsize" : 12.0,
					"id" : "obj-687",
					"maxclass" : "newobj",
					"numinlets" : 2,
					"numoutlets" : 1,
					"outlettype" : [ "float" ],
					"patching_rect" : [ 2011.25, 419.0, 33.0, 20.0 ],
					"text" : "/ 19."
				}

			}
, 			{
				"box" : 				{
					"fontname" : "Helvetica Neue",
					"fontsize" : 12.0,
					"id" : "obj-688",
					"maxclass" : "newobj",
					"numinlets" : 2,
					"numoutlets" : 1,
					"outlettype" : [ "float" ],
					"patching_rect" : [ 1940.25, 419.0, 33.0, 20.0 ],
					"text" : "* 19."
				}

			}
, 			{
				"box" : 				{
					"fontname" : "Helvetica Neue",
					"fontsize" : 12.0,
					"id" : "obj-689",
					"maxclass" : "newobj",
					"numinlets" : 2,
					"numoutlets" : 1,
					"outlettype" : [ "signal" ],
					"patching_rect" : [ 1940.25, 508.0, 90.0, 20.0 ],
					"text" : "*~ 0."
				}

			}
, 			{
				"box" : 				{
					"fontname" : "Helvetica Neue",
					"fontsize" : 12.0,
					"id" : "obj-690",
					"maxclass" : "newobj",
					"numinlets" : 2,
					"numoutlets" : 1,
					"outlettype" : [ "signal" ],
					"patching_rect" : [ 1940.25, 463.0, 59.0, 20.0 ],
					"text" : "cycle~ 0."
				}

			}
, 			{
				"box" : 				{
					"fontname" : "Helvetica Neue",
					"fontsize" : 12.0,
					"id" : "obj-691",
					"maxclass" : "newobj",
					"numinlets" : 1,
					"numoutlets" : 2,
					"outlettype" : [ "float", "float" ],
					"patching_rect" : [ 2051.5, 374.0, 90.0, 20.0 ],
					"text" : "t f 1."
				}

			}
, 			{
				"box" : 				{
					"fontname" : "Helvetica Neue",
					"fontsize" : 12.0,
					"id" : "obj-692",
					"maxclass" : "newobj",
					"numinlets" : 2,
					"numoutlets" : 1,
					"outlettype" : [ "float" ],
					"patching_rect" : [ 2122.5, 419.0, 33.0, 20.0 ],
					"text" : "/ 20."
				}

			}
, 			{
				"box" : 				{
					"fontname" : "Helvetica Neue",
					"fontsize" : 12.0,
					"id" : "obj-693",
					"maxclass" : "newobj",
					"numinlets" : 2,
					"numoutlets" : 1,
					"outlettype" : [ "float" ],
					"patching_rect" : [ 2051.5, 419.0, 33.0, 20.0 ],
					"text" : "* 20."
				}

			}
, 			{
				"box" : 				{
					"fontname" : "Helvetica Neue",
					"fontsize" : 12.0,
					"id" : "obj-694",
					"maxclass" : "newobj",
					"numinlets" : 2,
					"numoutlets" : 1,
					"outlettype" : [ "signal" ],
					"patching_rect" : [ 2051.5, 508.0, 90.0, 20.0 ],
					"text" : "*~ 0."
				}

			}
, 			{
				"box" : 				{
					"fontname" : "Helvetica Neue",
					"fontsize" : 12.0,
					"id" : "obj-695",
					"maxclass" : "newobj",
					"numinlets" : 2,
					"numoutlets" : 1,
					"outlettype" : [ "signal" ],
					"patching_rect" : [ 2051.5, 463.0, 59.0, 20.0 ],
					"text" : "cycle~ 0."
				}

			}
, 			{
				"box" : 				{
					"fontname" : "Helvetica Neue",
					"fontsize" : 12.0,
					"id" : "obj-696",
					"maxclass" : "newobj",
					"numinlets" : 1,
					"numoutlets" : 2,
					"outlettype" : [ "float", "float" ],
					"patching_rect" : [ 2162.75, 374.0, 90.0, 20.0 ],
					"text" : "t f 1."
				}

			}
, 			{
				"box" : 				{
					"fontname" : "Helvetica Neue",
					"fontsize" : 12.0,
					"id" : "obj-697",
					"maxclass" : "newobj",
					"numinlets" : 2,
					"numoutlets" : 1,
					"outlettype" : [ "float" ],
					"patching_rect" : [ 2233.75, 419.0, 33.0, 20.0 ],
					"text" : "/ 21."
				}

			}
, 			{
				"box" : 				{
					"fontname" : "Helvetica Neue",
					"fontsize" : 12.0,
					"id" : "obj-698",
					"maxclass" : "newobj",
					"numinlets" : 2,
					"numoutlets" : 1,
					"outlettype" : [ "float" ],
					"patching_rect" : [ 2162.75, 419.0, 33.0, 20.0 ],
					"text" : "* 21."
				}

			}
, 			{
				"box" : 				{
					"fontname" : "Helvetica Neue",
					"fontsize" : 12.0,
					"id" : "obj-699",
					"maxclass" : "newobj",
					"numinlets" : 2,
					"numoutlets" : 1,
					"outlettype" : [ "signal" ],
					"patching_rect" : [ 2162.75, 508.0, 90.0, 20.0 ],
					"text" : "*~ 0."
				}

			}
, 			{
				"box" : 				{
					"fontname" : "Helvetica Neue",
					"fontsize" : 12.0,
					"id" : "obj-700",
					"maxclass" : "newobj",
					"numinlets" : 2,
					"numoutlets" : 1,
					"outlettype" : [ "signal" ],
					"patching_rect" : [ 2162.75, 463.0, 59.0, 20.0 ],
					"text" : "cycle~ 0."
				}

			}
, 			{
				"box" : 				{
					"fontname" : "Helvetica Neue",
					"fontsize" : 12.0,
					"id" : "obj-701",
					"maxclass" : "newobj",
					"numinlets" : 1,
					"numoutlets" : 2,
					"outlettype" : [ "float", "float" ],
					"patching_rect" : [ 2274.0, 374.0, 90.0, 20.0 ],
					"text" : "t f 1."
				}

			}
, 			{
				"box" : 				{
					"fontname" : "Helvetica Neue",
					"fontsize" : 12.0,
					"id" : "obj-702",
					"maxclass" : "newobj",
					"numinlets" : 2,
					"numoutlets" : 1,
					"outlettype" : [ "float" ],
					"patching_rect" : [ 2345.0, 419.0, 33.0, 20.0 ],
					"text" : "/ 22."
				}

			}
, 			{
				"box" : 				{
					"fontname" : "Helvetica Neue",
					"fontsize" : 12.0,
					"id" : "obj-703",
					"maxclass" : "newobj",
					"numinlets" : 2,
					"numoutlets" : 1,
					"outlettype" : [ "float" ],
					"patching_rect" : [ 2274.0, 419.0, 33.0, 20.0 ],
					"text" : "* 22."
				}

			}
, 			{
				"box" : 				{
					"fontname" : "Helvetica Neue",
					"fontsize" : 12.0,
					"id" : "obj-704",
					"maxclass" : "newobj",
					"numinlets" : 2,
					"numoutlets" : 1,
					"outlettype" : [ "signal" ],
					"patching_rect" : [ 2274.0, 508.0, 90.0, 20.0 ],
					"text" : "*~ 0."
				}

			}
, 			{
				"box" : 				{
					"fontname" : "Helvetica Neue",
					"fontsize" : 12.0,
					"id" : "obj-705",
					"maxclass" : "newobj",
					"numinlets" : 2,
					"numoutlets" : 1,
					"outlettype" : [ "signal" ],
					"patching_rect" : [ 2274.0, 463.0, 59.0, 20.0 ],
					"text" : "cycle~ 0."
				}

			}
, 			{
				"box" : 				{
					"fontname" : "Helvetica Neue",
					"fontsize" : 12.0,
					"id" : "obj-706",
					"maxclass" : "newobj",
					"numinlets" : 1,
					"numoutlets" : 2,
					"outlettype" : [ "float", "float" ],
					"patching_rect" : [ 2385.25, 374.0, 90.0, 20.0 ],
					"text" : "t f 1."
				}

			}
, 			{
				"box" : 				{
					"fontname" : "Helvetica Neue",
					"fontsize" : 12.0,
					"id" : "obj-707",
					"maxclass" : "newobj",
					"numinlets" : 2,
					"numoutlets" : 1,
					"outlettype" : [ "float" ],
					"patching_rect" : [ 2456.25, 419.0, 33.0, 20.0 ],
					"text" : "/ 23."
				}

			}
, 			{
				"box" : 				{
					"fontname" : "Helvetica Neue",
					"fontsize" : 12.0,
					"id" : "obj-708",
					"maxclass" : "newobj",
					"numinlets" : 2,
					"numoutlets" : 1,
					"outlettype" : [ "float" ],
					"patching_rect" : [ 2385.25, 419.0, 33.0, 20.0 ],
					"text" : "* 23."
				}

			}
, 			{
				"box" : 				{
					"fontname" : "Helvetica Neue",
					"fontsize" : 12.0,
					"id" : "obj-709",
					"maxclass" : "newobj",
					"numinlets" : 2,
					"numoutlets" : 1,
					"outlettype" : [ "signal" ],
					"patching_rect" : [ 2385.25, 508.0, 90.0, 20.0 ],
					"text" : "*~ 0."
				}

			}
, 			{
				"box" : 				{
					"fontname" : "Helvetica Neue",
					"fontsize" : 12.0,
					"id" : "obj-710",
					"maxclass" : "newobj",
					"numinlets" : 2,
					"numoutlets" : 1,
					"outlettype" : [ "signal" ],
					"patching_rect" : [ 2385.25, 463.0, 59.0, 20.0 ],
					"text" : "cycle~ 0."
				}

			}
, 			{
				"box" : 				{
					"fontname" : "Helvetica Neue",
					"fontsize" : 12.0,
					"id" : "obj-711",
					"maxclass" : "newobj",
					"numinlets" : 1,
					"numoutlets" : 2,
					"outlettype" : [ "float", "float" ],
					"patching_rect" : [ 2496.5, 374.0, 90.0, 20.0 ],
					"text" : "t f 1."
				}

			}
, 			{
				"box" : 				{
					"fontname" : "Helvetica Neue",
					"fontsize" : 12.0,
					"id" : "obj-712",
					"maxclass" : "newobj",
					"numinlets" : 2,
					"numoutlets" : 1,
					"outlettype" : [ "float" ],
					"patching_rect" : [ 2567.5, 419.0, 33.0, 20.0 ],
					"text" : "/ 24."
				}

			}
, 			{
				"box" : 				{
					"fontname" : "Helvetica Neue",
					"fontsize" : 12.0,
					"id" : "obj-713",
					"maxclass" : "newobj",
					"numinlets" : 2,
					"numoutlets" : 1,
					"outlettype" : [ "float" ],
					"patching_rect" : [ 2496.5, 419.0, 33.0, 20.0 ],
					"text" : "* 24."
				}

			}
, 			{
				"box" : 				{
					"fontname" : "Helvetica Neue",
					"fontsize" : 12.0,
					"id" : "obj-714",
					"maxclass" : "newobj",
					"numinlets" : 2,
					"numoutlets" : 1,
					"outlettype" : [ "signal" ],
					"patching_rect" : [ 2496.5, 508.0, 90.0, 20.0 ],
					"text" : "*~ 0."
				}

			}
, 			{
				"box" : 				{
					"fontname" : "Helvetica Neue",
					"fontsize" : 12.0,
					"id" : "obj-715",
					"maxclass" : "newobj",
					"numinlets" : 2,
					"numoutlets" : 1,
					"outlettype" : [ "signal" ],
					"patching_rect" : [ 2496.5, 463.0, 59.0, 20.0 ],
					"text" : "cycle~ 0."
				}

			}
, 			{
				"box" : 				{
					"fontname" : "Helvetica Neue",
					"fontsize" : 12.0,
					"id" : "obj-716",
					"maxclass" : "newobj",
					"numinlets" : 1,
					"numoutlets" : 2,
					"outlettype" : [ "float", "float" ],
					"patching_rect" : [ 2607.75, 374.0, 90.0, 20.0 ],
					"text" : "t f 1."
				}

			}
, 			{
				"box" : 				{
					"fontname" : "Helvetica Neue",
					"fontsize" : 12.0,
					"id" : "obj-717",
					"maxclass" : "newobj",
					"numinlets" : 2,
					"numoutlets" : 1,
					"outlettype" : [ "float" ],
					"patching_rect" : [ 2678.75, 419.0, 33.0, 20.0 ],
					"text" : "/ 25."
				}

			}
, 			{
				"box" : 				{
					"fontname" : "Helvetica Neue",
					"fontsize" : 12.0,
					"id" : "obj-718",
					"maxclass" : "newobj",
					"numinlets" : 2,
					"numoutlets" : 1,
					"outlettype" : [ "float" ],
					"patching_rect" : [ 2607.75, 419.0, 33.0, 20.0 ],
					"text" : "* 25."
				}

			}
, 			{
				"box" : 				{
					"fontname" : "Helvetica Neue",
					"fontsize" : 12.0,
					"id" : "obj-719",
					"maxclass" : "newobj",
					"numinlets" : 2,
					"numoutlets" : 1,
					"outlettype" : [ "signal" ],
					"patching_rect" : [ 2607.75, 508.0, 90.0, 20.0 ],
					"text" : "*~ 0."
				}

			}
, 			{
				"box" : 				{
					"fontname" : "Helvetica Neue",
					"fontsize" : 12.0,
					"id" : "obj-720",
					"maxclass" : "newobj",
					"numinlets" : 2,
					"numoutlets" : 1,
					"outlettype" : [ "signal" ],
					"patching_rect" : [ 2607.75, 463.0, 59.0, 20.0 ],
					"text" : "cycle~ 0."
				}

			}
, 			{
				"box" : 				{
					"fontname" : "Helvetica Neue",
					"fontsize" : 12.0,
					"id" : "obj-721",
					"maxclass" : "newobj",
					"numinlets" : 1,
					"numoutlets" : 2,
					"outlettype" : [ "float", "float" ],
					"patching_rect" : [ 2719.0, 374.0, 90.0, 20.0 ],
					"text" : "t f 1."
				}

			}
, 			{
				"box" : 				{
					"fontname" : "Helvetica Neue",
					"fontsize" : 12.0,
					"id" : "obj-722",
					"maxclass" : "newobj",
					"numinlets" : 2,
					"numoutlets" : 1,
					"outlettype" : [ "float" ],
					"patching_rect" : [ 2790.0, 419.0, 33.0, 20.0 ],
					"text" : "/ 26."
				}

			}
, 			{
				"box" : 				{
					"fontname" : "Helvetica Neue",
					"fontsize" : 12.0,
					"id" : "obj-723",
					"maxclass" : "newobj",
					"numinlets" : 2,
					"numoutlets" : 1,
					"outlettype" : [ "float" ],
					"patching_rect" : [ 2719.0, 419.0, 33.0, 20.0 ],
					"text" : "* 26."
				}

			}
, 			{
				"box" : 				{
					"fontname" : "Helvetica Neue",
					"fontsize" : 12.0,
					"id" : "obj-724",
					"maxclass" : "newobj",
					"numinlets" : 2,
					"numoutlets" : 1,
					"outlettype" : [ "signal" ],
					"patching_rect" : [ 2719.0, 508.0, 90.0, 20.0 ],
					"text" : "*~ 0."
				}

			}
, 			{
				"box" : 				{
					"fontname" : "Helvetica Neue",
					"fontsize" : 12.0,
					"id" : "obj-725",
					"maxclass" : "newobj",
					"numinlets" : 2,
					"numoutlets" : 1,
					"outlettype" : [ "signal" ],
					"patching_rect" : [ 2719.0, 463.0, 59.0, 20.0 ],
					"text" : "cycle~ 0."
				}

			}
, 			{
				"box" : 				{
					"fontname" : "Helvetica Neue",
					"fontsize" : 12.0,
					"id" : "obj-726",
					"maxclass" : "newobj",
					"numinlets" : 1,
					"numoutlets" : 2,
					"outlettype" : [ "float", "float" ],
					"patching_rect" : [ 2830.25, 374.0, 90.0, 20.0 ],
					"text" : "t f 1."
				}

			}
, 			{
				"box" : 				{
					"fontname" : "Helvetica Neue",
					"fontsize" : 12.0,
					"id" : "obj-727",
					"maxclass" : "newobj",
					"numinlets" : 2,
					"numoutlets" : 1,
					"outlettype" : [ "float" ],
					"patching_rect" : [ 2901.25, 419.0, 33.0, 20.0 ],
					"text" : "/ 27."
				}

			}
, 			{
				"box" : 				{
					"fontname" : "Helvetica Neue",
					"fontsize" : 12.0,
					"id" : "obj-728",
					"maxclass" : "newobj",
					"numinlets" : 2,
					"numoutlets" : 1,
					"outlettype" : [ "float" ],
					"patching_rect" : [ 2830.25, 419.0, 33.0, 20.0 ],
					"text" : "* 27."
				}

			}
, 			{
				"box" : 				{
					"fontname" : "Helvetica Neue",
					"fontsize" : 12.0,
					"id" : "obj-729",
					"maxclass" : "newobj",
					"numinlets" : 2,
					"numoutlets" : 1,
					"outlettype" : [ "signal" ],
					"patching_rect" : [ 2830.25, 508.0, 90.0, 20.0 ],
					"text" : "*~ 0."
				}

			}
, 			{
				"box" : 				{
					"fontname" : "Helvetica Neue",
					"fontsize" : 12.0,
					"id" : "obj-730",
					"maxclass" : "newobj",
					"numinlets" : 2,
					"numoutlets" : 1,
					"outlettype" : [ "signal" ],
					"patching_rect" : [ 2830.25, 463.0, 59.0, 20.0 ],
					"text" : "cycle~ 0."
				}

			}
, 			{
				"box" : 				{
					"fontname" : "Helvetica Neue",
					"fontsize" : 12.0,
					"id" : "obj-731",
					"maxclass" : "newobj",
					"numinlets" : 1,
					"numoutlets" : 2,
					"outlettype" : [ "float", "float" ],
					"patching_rect" : [ 2941.5, 374.0, 90.0, 20.0 ],
					"text" : "t f 1."
				}

			}
, 			{
				"box" : 				{
					"fontname" : "Helvetica Neue",
					"fontsize" : 12.0,
					"id" : "obj-732",
					"maxclass" : "newobj",
					"numinlets" : 2,
					"numoutlets" : 1,
					"outlettype" : [ "float" ],
					"patching_rect" : [ 3012.5, 419.0, 33.0, 20.0 ],
					"text" : "/ 28."
				}

			}
, 			{
				"box" : 				{
					"fontname" : "Helvetica Neue",
					"fontsize" : 12.0,
					"id" : "obj-733",
					"maxclass" : "newobj",
					"numinlets" : 2,
					"numoutlets" : 1,
					"outlettype" : [ "float" ],
					"patching_rect" : [ 2941.5, 419.0, 33.0, 20.0 ],
					"text" : "* 28."
				}

			}
, 			{
				"box" : 				{
					"fontname" : "Helvetica Neue",
					"fontsize" : 12.0,
					"id" : "obj-734",
					"maxclass" : "newobj",
					"numinlets" : 2,
					"numoutlets" : 1,
					"outlettype" : [ "signal" ],
					"patching_rect" : [ 2941.5, 508.0, 90.0, 20.0 ],
					"text" : "*~ 0."
				}

			}
, 			{
				"box" : 				{
					"fontname" : "Helvetica Neue",
					"fontsize" : 12.0,
					"id" : "obj-735",
					"maxclass" : "newobj",
					"numinlets" : 2,
					"numoutlets" : 1,
					"outlettype" : [ "signal" ],
					"patching_rect" : [ 2941.5, 463.0, 59.0, 20.0 ],
					"text" : "cycle~ 0."
				}

			}
, 			{
				"box" : 				{
					"fontname" : "Helvetica Neue",
					"fontsize" : 12.0,
					"id" : "obj-736",
					"maxclass" : "newobj",
					"numinlets" : 1,
					"numoutlets" : 2,
					"outlettype" : [ "float", "float" ],
					"patching_rect" : [ 3052.75, 374.0, 90.0, 20.0 ],
					"text" : "t f 1."
				}

			}
, 			{
				"box" : 				{
					"fontname" : "Helvetica Neue",
					"fontsize" : 12.0,
					"id" : "obj-737",
					"maxclass" : "newobj",
					"numinlets" : 2,
					"numoutlets" : 1,
					"outlettype" : [ "float" ],
					"patching_rect" : [ 3123.75, 419.0, 33.0, 20.0 ],
					"text" : "/ 29."
				}

			}
, 			{
				"box" : 				{
					"fontname" : "Helvetica Neue",
					"fontsize" : 12.0,
					"id" : "obj-738",
					"maxclass" : "newobj",
					"numinlets" : 2,
					"numoutlets" : 1,
					"outlettype" : [ "float" ],
					"patching_rect" : [ 3052.75, 419.0, 33.0, 20.0 ],
					"text" : "* 29."
				}

			}
, 			{
				"box" : 				{
					"fontname" : "Helvetica Neue",
					"fontsize" : 12.0,
					"id" : "obj-739",
					"maxclass" : "newobj",
					"numinlets" : 2,
					"numoutlets" : 1,
					"outlettype" : [ "signal" ],
					"patching_rect" : [ 3052.75, 508.0, 90.0, 20.0 ],
					"text" : "*~ 0."
				}

			}
, 			{
				"box" : 				{
					"fontname" : "Helvetica Neue",
					"fontsize" : 12.0,
					"id" : "obj-740",
					"maxclass" : "newobj",
					"numinlets" : 2,
					"numoutlets" : 1,
					"outlettype" : [ "signal" ],
					"patching_rect" : [ 3052.75, 463.0, 59.0, 20.0 ],
					"text" : "cycle~ 0."
				}

			}
, 			{
				"box" : 				{
					"fontname" : "Helvetica Neue",
					"fontsize" : 12.0,
					"id" : "obj-741",
					"maxclass" : "newobj",
					"numinlets" : 1,
					"numoutlets" : 2,
					"outlettype" : [ "float", "float" ],
					"patching_rect" : [ 3164.0, 374.0, 90.0, 20.0 ],
					"text" : "t f 1."
				}

			}
, 			{
				"box" : 				{
					"fontname" : "Helvetica Neue",
					"fontsize" : 12.0,
					"id" : "obj-742",
					"maxclass" : "newobj",
					"numinlets" : 2,
					"numoutlets" : 1,
					"outlettype" : [ "float" ],
					"patching_rect" : [ 3235.0, 419.0, 33.0, 20.0 ],
					"text" : "/ 30."
				}

			}
, 			{
				"box" : 				{
					"fontname" : "Helvetica Neue",
					"fontsize" : 12.0,
					"id" : "obj-743",
					"maxclass" : "newobj",
					"numinlets" : 2,
					"numoutlets" : 1,
					"outlettype" : [ "float" ],
					"patching_rect" : [ 3164.0, 419.0, 33.0, 20.0 ],
					"text" : "* 30."
				}

			}
, 			{
				"box" : 				{
					"fontname" : "Helvetica Neue",
					"fontsize" : 12.0,
					"id" : "obj-744",
					"maxclass" : "newobj",
					"numinlets" : 2,
					"numoutlets" : 1,
					"outlettype" : [ "signal" ],
					"patching_rect" : [ 3164.0, 508.0, 90.0, 20.0 ],
					"text" : "*~ 0."
				}

			}
, 			{
				"box" : 				{
					"fontname" : "Helvetica Neue",
					"fontsize" : 12.0,
					"id" : "obj-745",
					"maxclass" : "newobj",
					"numinlets" : 2,
					"numoutlets" : 1,
					"outlettype" : [ "signal" ],
					"patching_rect" : [ 3164.0, 463.0, 59.0, 20.0 ],
					"text" : "cycle~ 0."
				}

			}
 ],
		"lines" : [ 			{
				"patchline" : 				{
					"destination" : [ "obj-64", 0 ],
					"disabled" : 0,
					"hidden" : 0,
					"source" : [ "obj-1", 0 ]
				}

			}
, 			{
				"patchline" : 				{
					"destination" : [ "obj-88", 0 ],
					"disabled" : 0,
					"hidden" : 0,
					"source" : [ "obj-1", 1 ]
				}

			}
, 			{
				"patchline" : 				{
					"destination" : [ "obj-24", 0 ],
					"disabled" : 0,
					"hidden" : 0,
					"source" : [ "obj-15", 0 ]
				}

			}
, 			{
				"patchline" : 				{
					"destination" : [ "obj-25", 1 ],
					"disabled" : 0,
					"hidden" : 0,
					"source" : [ "obj-2", 0 ]
				}

			}
, 			{
				"patchline" : 				{
					"destination" : [ "obj-25", 0 ],
					"disabled" : 0,
					"hidden" : 0,
					"source" : [ "obj-2", 0 ]
				}

			}
, 			{
				"patchline" : 				{
					"destination" : [ "obj-15", 0 ],
					"disabled" : 0,
					"hidden" : 0,
					"source" : [ "obj-29", 0 ]
				}

			}
, 			{
				"patchline" : 				{
					"destination" : [ "obj-63", 0 ],
					"disabled" : 0,
					"hidden" : 0,
					"source" : [ "obj-29", 0 ]
				}

			}
, 			{
				"patchline" : 				{
					"destination" : [ "obj-33", 0 ],
					"disabled" : 0,
					"hidden" : 0,
					"source" : [ "obj-30", 0 ]
				}

			}
, 			{
				"patchline" : 				{
					"destination" : [ "obj-90", 0 ],
					"disabled" : 0,
					"hidden" : 0,
					"source" : [ "obj-33", 0 ]
				}

			}
, 			{
				"patchline" : 				{
					"destination" : [ "obj-90", 0 ],
					"disabled" : 0,
					"hidden" : 0,
					"source" : [ "obj-41", 0 ]
				}

			}
, 			{
				"patchline" : 				{
					"destination" : [ "obj-41", 0 ],
					"disabled" : 0,
					"hidden" : 0,
					"source" : [ "obj-42", 0 ]
				}

			}
, 			{
				"patchline" : 				{
					"destination" : [ "obj-607", 0 ],
					"disabled" : 0,
					"hidden" : 0,
					"source" : [ "obj-606", 1 ]
				}

			}
, 			{
				"patchline" : 				{
					"destination" : [ "obj-608", 0 ],
					"disabled" : 0,
					"hidden" : 0,
					"source" : [ "obj-606", 0 ]
				}

			}
, 			{
				"patchline" : 				{
					"destination" : [ "obj-609", 1 ],
					"disabled" : 0,
					"hidden" : 0,
					"source" : [ "obj-607", 0 ]
				}

			}
, 			{
				"patchline" : 				{
					"destination" : [ "obj-610", 0 ],
					"disabled" : 0,
					"hidden" : 0,
					"source" : [ "obj-608", 0 ]
				}

			}
, 			{
				"patchline" : 				{
					"destination" : [ "obj-90", 0 ],
					"disabled" : 0,
					"hidden" : 0,
					"source" : [ "obj-609", 0 ]
				}

			}
, 			{
				"patchline" : 				{
					"destination" : [ "obj-609", 0 ],
					"disabled" : 0,
					"hidden" : 0,
					"source" : [ "obj-610", 0 ]
				}

			}
, 			{
				"patchline" : 				{
					"destination" : [ "obj-612", 0 ],
					"disabled" : 0,
					"hidden" : 0,
					"source" : [ "obj-611", 1 ]
				}

			}
, 			{
				"patchline" : 				{
					"destination" : [ "obj-613", 0 ],
					"disabled" : 0,
					"hidden" : 0,
					"source" : [ "obj-611", 0 ]
				}

			}
, 			{
				"patchline" : 				{
					"destination" : [ "obj-614", 1 ],
					"disabled" : 0,
					"hidden" : 0,
					"source" : [ "obj-612", 0 ]
				}

			}
, 			{
				"patchline" : 				{
					"destination" : [ "obj-615", 0 ],
					"disabled" : 0,
					"hidden" : 0,
					"source" : [ "obj-613", 0 ]
				}

			}
, 			{
				"patchline" : 				{
					"destination" : [ "obj-90", 0 ],
					"disabled" : 0,
					"hidden" : 0,
					"source" : [ "obj-614", 0 ]
				}

			}
, 			{
				"patchline" : 				{
					"destination" : [ "obj-614", 0 ],
					"disabled" : 0,
					"hidden" : 0,
					"source" : [ "obj-615", 0 ]
				}

			}
, 			{
				"patchline" : 				{
					"destination" : [ "obj-617", 0 ],
					"disabled" : 0,
					"hidden" : 0,
					"source" : [ "obj-616", 1 ]
				}

			}
, 			{
				"patchline" : 				{
					"destination" : [ "obj-618", 0 ],
					"disabled" : 0,
					"hidden" : 0,
					"source" : [ "obj-616", 0 ]
				}

			}
, 			{
				"patchline" : 				{
					"destination" : [ "obj-619", 1 ],
					"disabled" : 0,
					"hidden" : 0,
					"source" : [ "obj-617", 0 ]
				}

			}
, 			{
				"patchline" : 				{
					"destination" : [ "obj-620", 0 ],
					"disabled" : 0,
					"hidden" : 0,
					"source" : [ "obj-618", 0 ]
				}

			}
, 			{
				"patchline" : 				{
					"destination" : [ "obj-90", 0 ],
					"disabled" : 0,
					"hidden" : 0,
					"source" : [ "obj-619", 0 ]
				}

			}
, 			{
				"patchline" : 				{
					"destination" : [ "obj-619", 0 ],
					"disabled" : 0,
					"hidden" : 0,
					"source" : [ "obj-620", 0 ]
				}

			}
, 			{
				"patchline" : 				{
					"destination" : [ "obj-622", 0 ],
					"disabled" : 0,
					"hidden" : 0,
					"source" : [ "obj-621", 1 ]
				}

			}
, 			{
				"patchline" : 				{
					"destination" : [ "obj-623", 0 ],
					"disabled" : 0,
					"hidden" : 0,
					"source" : [ "obj-621", 0 ]
				}

			}
, 			{
				"patchline" : 				{
					"destination" : [ "obj-624", 1 ],
					"disabled" : 0,
					"hidden" : 0,
					"source" : [ "obj-622", 0 ]
				}

			}
, 			{
				"patchline" : 				{
					"destination" : [ "obj-625", 0 ],
					"disabled" : 0,
					"hidden" : 0,
					"source" : [ "obj-623", 0 ]
				}

			}
, 			{
				"patchline" : 				{
					"destination" : [ "obj-90", 0 ],
					"disabled" : 0,
					"hidden" : 0,
					"source" : [ "obj-624", 0 ]
				}

			}
, 			{
				"patchline" : 				{
					"destination" : [ "obj-624", 0 ],
					"disabled" : 0,
					"hidden" : 0,
					"source" : [ "obj-625", 0 ]
				}

			}
, 			{
				"patchline" : 				{
					"destination" : [ "obj-627", 0 ],
					"disabled" : 0,
					"hidden" : 0,
					"source" : [ "obj-626", 1 ]
				}

			}
, 			{
				"patchline" : 				{
					"destination" : [ "obj-628", 0 ],
					"disabled" : 0,
					"hidden" : 0,
					"source" : [ "obj-626", 0 ]
				}

			}
, 			{
				"patchline" : 				{
					"destination" : [ "obj-629", 1 ],
					"disabled" : 0,
					"hidden" : 0,
					"source" : [ "obj-627", 0 ]
				}

			}
, 			{
				"patchline" : 				{
					"destination" : [ "obj-630", 0 ],
					"disabled" : 0,
					"hidden" : 0,
					"source" : [ "obj-628", 0 ]
				}

			}
, 			{
				"patchline" : 				{
					"destination" : [ "obj-90", 0 ],
					"disabled" : 0,
					"hidden" : 0,
					"source" : [ "obj-629", 0 ]
				}

			}
, 			{
				"patchline" : 				{
					"destination" : [ "obj-1", 0 ],
					"disabled" : 0,
					"hidden" : 0,
					"source" : [ "obj-63", 0 ]
				}

			}
, 			{
				"patchline" : 				{
					"destination" : [ "obj-30", 0 ],
					"disabled" : 0,
					"hidden" : 0,
					"source" : [ "obj-63", 0 ]
				}

			}
, 			{
				"patchline" : 				{
					"destination" : [ "obj-606", 0 ],
					"disabled" : 0,
					"hidden" : 0,
					"source" : [ "obj-63", 0 ]
				}

			}
, 			{
				"patchline" : 				{
					"destination" : [ "obj-611", 0 ],
					"disabled" : 0,
					"hidden" : 0,
					"source" : [ "obj-63", 0 ]
				}

			}
, 			{
				"patchline" : 				{
					"destination" : [ "obj-616", 0 ],
					"disabled" : 0,
					"hidden" : 0,
					"source" : [ "obj-63", 0 ]
				}

			}
, 			{
				"patchline" : 				{
					"destination" : [ "obj-621", 0 ],
					"disabled" : 0,
					"hidden" : 0,
					"source" : [ "obj-63", 0 ]
				}

			}
, 			{
				"patchline" : 				{
					"destination" : [ "obj-626", 0 ],
					"disabled" : 0,
					"hidden" : 0,
					"source" : [ "obj-63", 0 ]
				}

			}
, 			{
				"patchline" : 				{
					"destination" : [ "obj-631", 0 ],
					"disabled" : 0,
					"hidden" : 0,
					"source" : [ "obj-63", 0 ]
				}

			}
, 			{
				"patchline" : 				{
					"destination" : [ "obj-636", 0 ],
					"disabled" : 0,
					"hidden" : 0,
					"source" : [ "obj-63", 0 ]
				}

			}
, 			{
				"patchline" : 				{
					"destination" : [ "obj-641", 0 ],
					"disabled" : 0,
					"hidden" : 0,
					"source" : [ "obj-63", 0 ]
				}

			}
, 			{
				"patchline" : 				{
					"destination" : [ "obj-646", 0 ],
					"disabled" : 0,
					"hidden" : 0,
					"source" : [ "obj-63", 0 ]
				}

			}
, 			{
				"patchline" : 				{
					"destination" : [ "obj-651", 0 ],
					"disabled" : 0,
					"hidden" : 0,
					"source" : [ "obj-63", 0 ]
				}

			}
, 			{
				"patchline" : 				{
					"destination" : [ "obj-656", 0 ],
					"disabled" : 0,
					"hidden" : 0,
					"source" : [ "obj-63", 0 ]
				}

			}
, 			{
				"patchline" : 				{
					"destination" : [ "obj-661", 0 ],
					"disabled" : 0,
					"hidden" : 0,
					"source" : [ "obj-63", 0 ]
				}

			}
, 			{
				"patchline" : 				{
					"destination" : [ "obj-666", 0 ],
					"disabled" : 0,
					"hidden" : 0,
					"source" : [ "obj-63", 0 ]
				}

			}
, 			{
				"patchline" : 				{
					"destination" : [ "obj-671", 0 ],
					"disabled" : 0,
					"hidden" : 0,
					"source" : [ "obj-63", 0 ]
				}

			}
, 			{
				"patchline" : 				{
					"destination" : [ "obj-676", 0 ],
					"disabled" : 0,
					"hidden" : 0,
					"source" : [ "obj-63", 0 ]
				}

			}
, 			{
				"patchline" : 				{
					"destination" : [ "obj-681", 0 ],
					"disabled" : 0,
					"hidden" : 0,
					"source" : [ "obj-63", 0 ]
				}

			}
, 			{
				"patchline" : 				{
					"destination" : [ "obj-686", 0 ],
					"disabled" : 0,
					"hidden" : 0,
					"source" : [ "obj-63", 0 ]
				}

			}
, 			{
				"patchline" : 				{
					"destination" : [ "obj-691", 0 ],
					"disabled" : 0,
					"hidden" : 0,
					"source" : [ "obj-63", 0 ]
				}

			}
, 			{
				"patchline" : 				{
					"destination" : [ "obj-696", 0 ],
					"disabled" : 0,
					"hidden" : 0,
					"source" : [ "obj-63", 0 ]
				}

			}
, 			{
				"patchline" : 				{
					"destination" : [ "obj-701", 0 ],
					"disabled" : 0,
					"hidden" : 0,
					"source" : [ "obj-63", 0 ]
				}

			}
, 			{
				"patchline" : 				{
					"destination" : [ "obj-706", 0 ],
					"disabled" : 0,
					"hidden" : 0,
					"source" : [ "obj-63", 0 ]
				}

			}
, 			{
				"patchline" : 				{
					"destination" : [ "obj-711", 0 ],
					"disabled" : 0,
					"hidden" : 0,
					"source" : [ "obj-63", 0 ]
				}

			}
, 			{
				"patchline" : 				{
					"destination" : [ "obj-716", 0 ],
					"disabled" : 0,
					"hidden" : 0,
					"source" : [ "obj-63", 0 ]
				}

			}
, 			{
				"patchline" : 				{
					"destination" : [ "obj-721", 0 ],
					"disabled" : 0,
					"hidden" : 0,
					"source" : [ "obj-63", 0 ]
				}

			}
, 			{
				"patchline" : 				{
					"destination" : [ "obj-726", 0 ],
					"disabled" : 0,
					"hidden" : 0,
					"source" : [ "obj-63", 0 ]
				}

			}
, 			{
				"patchline" : 				{
					"destination" : [ "obj-731", 0 ],
					"disabled" : 0,
					"hidden" : 0,
					"source" : [ "obj-63", 0 ]
				}

			}
, 			{
				"patchline" : 				{
					"destination" : [ "obj-736", 0 ],
					"disabled" : 0,
					"hidden" : 0,
					"source" : [ "obj-63", 0 ]
				}

			}
, 			{
				"patchline" : 				{
					"destination" : [ "obj-741", 0 ],
					"disabled" : 0,
					"hidden" : 0,
					"source" : [ "obj-63", 0 ]
				}

			}
, 			{
				"patchline" : 				{
					"destination" : [ "obj-629", 0 ],
					"disabled" : 0,
					"hidden" : 0,
					"source" : [ "obj-630", 0 ]
				}

			}
, 			{
				"patchline" : 				{
					"destination" : [ "obj-632", 0 ],
					"disabled" : 0,
					"hidden" : 0,
					"source" : [ "obj-631", 1 ]
				}

			}
, 			{
				"patchline" : 				{
					"destination" : [ "obj-633", 0 ],
					"disabled" : 0,
					"hidden" : 0,
					"source" : [ "obj-631", 0 ]
				}

			}
, 			{
				"patchline" : 				{
					"destination" : [ "obj-634", 1 ],
					"disabled" : 0,
					"hidden" : 0,
					"source" : [ "obj-632", 0 ]
				}

			}
, 			{
				"patchline" : 				{
					"destination" : [ "obj-635", 0 ],
					"disabled" : 0,
					"hidden" : 0,
					"source" : [ "obj-633", 0 ]
				}

			}
, 			{
				"patchline" : 				{
					"destination" : [ "obj-90", 0 ],
					"disabled" : 0,
					"hidden" : 0,
					"source" : [ "obj-634", 0 ]
				}

			}
, 			{
				"patchline" : 				{
					"destination" : [ "obj-634", 0 ],
					"disabled" : 0,
					"hidden" : 0,
					"source" : [ "obj-635", 0 ]
				}

			}
, 			{
				"patchline" : 				{
					"destination" : [ "obj-637", 0 ],
					"disabled" : 0,
					"hidden" : 0,
					"source" : [ "obj-636", 1 ]
				}

			}
, 			{
				"patchline" : 				{
					"destination" : [ "obj-638", 0 ],
					"disabled" : 0,
					"hidden" : 0,
					"source" : [ "obj-636", 0 ]
				}

			}
, 			{
				"patchline" : 				{
					"destination" : [ "obj-639", 1 ],
					"disabled" : 0,
					"hidden" : 0,
					"source" : [ "obj-637", 0 ]
				}

			}
, 			{
				"patchline" : 				{
					"destination" : [ "obj-640", 0 ],
					"disabled" : 0,
					"hidden" : 0,
					"source" : [ "obj-638", 0 ]
				}

			}
, 			{
				"patchline" : 				{
					"destination" : [ "obj-90", 0 ],
					"disabled" : 0,
					"hidden" : 0,
					"source" : [ "obj-639", 0 ]
				}

			}
, 			{
				"patchline" : 				{
					"destination" : [ "obj-42", 0 ],
					"disabled" : 0,
					"hidden" : 0,
					"source" : [ "obj-64", 0 ]
				}

			}
, 			{
				"patchline" : 				{
					"destination" : [ "obj-639", 0 ],
					"disabled" : 0,
					"hidden" : 0,
					"source" : [ "obj-640", 0 ]
				}

			}
, 			{
				"patchline" : 				{
					"destination" : [ "obj-642", 0 ],
					"disabled" : 0,
					"hidden" : 0,
					"source" : [ "obj-641", 1 ]
				}

			}
, 			{
				"patchline" : 				{
					"destination" : [ "obj-643", 0 ],
					"disabled" : 0,
					"hidden" : 0,
					"source" : [ "obj-641", 0 ]
				}

			}
, 			{
				"patchline" : 				{
					"destination" : [ "obj-644", 1 ],
					"disabled" : 0,
					"hidden" : 0,
					"source" : [ "obj-642", 0 ]
				}

			}
, 			{
				"patchline" : 				{
					"destination" : [ "obj-645", 0 ],
					"disabled" : 0,
					"hidden" : 0,
					"source" : [ "obj-643", 0 ]
				}

			}
, 			{
				"patchline" : 				{
					"destination" : [ "obj-90", 0 ],
					"disabled" : 0,
					"hidden" : 0,
					"source" : [ "obj-644", 0 ]
				}

			}
, 			{
				"patchline" : 				{
					"destination" : [ "obj-644", 0 ],
					"disabled" : 0,
					"hidden" : 0,
					"source" : [ "obj-645", 0 ]
				}

			}
, 			{
				"patchline" : 				{
					"destination" : [ "obj-647", 0 ],
					"disabled" : 0,
					"hidden" : 0,
					"source" : [ "obj-646", 1 ]
				}

			}
, 			{
				"patchline" : 				{
					"destination" : [ "obj-648", 0 ],
					"disabled" : 0,
					"hidden" : 0,
					"source" : [ "obj-646", 0 ]
				}

			}
, 			{
				"patchline" : 				{
					"destination" : [ "obj-649", 1 ],
					"disabled" : 0,
					"hidden" : 0,
					"source" : [ "obj-647", 0 ]
				}

			}
, 			{
				"patchline" : 				{
					"destination" : [ "obj-650", 0 ],
					"disabled" : 0,
					"hidden" : 0,
					"source" : [ "obj-648", 0 ]
				}

			}
, 			{
				"patchline" : 				{
					"destination" : [ "obj-90", 0 ],
					"disabled" : 0,
					"hidden" : 0,
					"source" : [ "obj-649", 0 ]
				}

			}
, 			{
				"patchline" : 				{
					"destination" : [ "obj-649", 0 ],
					"disabled" : 0,
					"hidden" : 0,
					"source" : [ "obj-650", 0 ]
				}

			}
, 			{
				"patchline" : 				{
					"destination" : [ "obj-652", 0 ],
					"disabled" : 0,
					"hidden" : 0,
					"source" : [ "obj-651", 1 ]
				}

			}
, 			{
				"patchline" : 				{
					"destination" : [ "obj-653", 0 ],
					"disabled" : 0,
					"hidden" : 0,
					"source" : [ "obj-651", 0 ]
				}

			}
, 			{
				"patchline" : 				{
					"destination" : [ "obj-654", 1 ],
					"disabled" : 0,
					"hidden" : 0,
					"source" : [ "obj-652", 0 ]
				}

			}
, 			{
				"patchline" : 				{
					"destination" : [ "obj-655", 0 ],
					"disabled" : 0,
					"hidden" : 0,
					"source" : [ "obj-653", 0 ]
				}

			}
, 			{
				"patchline" : 				{
					"destination" : [ "obj-90", 0 ],
					"disabled" : 0,
					"hidden" : 0,
					"source" : [ "obj-654", 0 ]
				}

			}
, 			{
				"patchline" : 				{
					"destination" : [ "obj-654", 0 ],
					"disabled" : 0,
					"hidden" : 0,
					"source" : [ "obj-655", 0 ]
				}

			}
, 			{
				"patchline" : 				{
					"destination" : [ "obj-657", 0 ],
					"disabled" : 0,
					"hidden" : 0,
					"source" : [ "obj-656", 1 ]
				}

			}
, 			{
				"patchline" : 				{
					"destination" : [ "obj-658", 0 ],
					"disabled" : 0,
					"hidden" : 0,
					"source" : [ "obj-656", 0 ]
				}

			}
, 			{
				"patchline" : 				{
					"destination" : [ "obj-659", 1 ],
					"disabled" : 0,
					"hidden" : 0,
					"source" : [ "obj-657", 0 ]
				}

			}
, 			{
				"patchline" : 				{
					"destination" : [ "obj-660", 0 ],
					"disabled" : 0,
					"hidden" : 0,
					"source" : [ "obj-658", 0 ]
				}

			}
, 			{
				"patchline" : 				{
					"destination" : [ "obj-90", 0 ],
					"disabled" : 0,
					"hidden" : 0,
					"source" : [ "obj-659", 0 ]
				}

			}
, 			{
				"patchline" : 				{
					"destination" : [ "obj-659", 0 ],
					"disabled" : 0,
					"hidden" : 0,
					"source" : [ "obj-660", 0 ]
				}

			}
, 			{
				"patchline" : 				{
					"destination" : [ "obj-662", 0 ],
					"disabled" : 0,
					"hidden" : 0,
					"source" : [ "obj-661", 1 ]
				}

			}
, 			{
				"patchline" : 				{
					"destination" : [ "obj-663", 0 ],
					"disabled" : 0,
					"hidden" : 0,
					"source" : [ "obj-661", 0 ]
				}

			}
, 			{
				"patchline" : 				{
					"destination" : [ "obj-664", 1 ],
					"disabled" : 0,
					"hidden" : 0,
					"source" : [ "obj-662", 0 ]
				}

			}
, 			{
				"patchline" : 				{
					"destination" : [ "obj-665", 0 ],
					"disabled" : 0,
					"hidden" : 0,
					"source" : [ "obj-663", 0 ]
				}

			}
, 			{
				"patchline" : 				{
					"destination" : [ "obj-90", 0 ],
					"disabled" : 0,
					"hidden" : 0,
					"source" : [ "obj-664", 0 ]
				}

			}
, 			{
				"patchline" : 				{
					"destination" : [ "obj-664", 0 ],
					"disabled" : 0,
					"hidden" : 0,
					"source" : [ "obj-665", 0 ]
				}

			}
, 			{
				"patchline" : 				{
					"destination" : [ "obj-667", 0 ],
					"disabled" : 0,
					"hidden" : 0,
					"source" : [ "obj-666", 1 ]
				}

			}
, 			{
				"patchline" : 				{
					"destination" : [ "obj-668", 0 ],
					"disabled" : 0,
					"hidden" : 0,
					"source" : [ "obj-666", 0 ]
				}

			}
, 			{
				"patchline" : 				{
					"destination" : [ "obj-669", 1 ],
					"disabled" : 0,
					"hidden" : 0,
					"source" : [ "obj-667", 0 ]
				}

			}
, 			{
				"patchline" : 				{
					"destination" : [ "obj-670", 0 ],
					"disabled" : 0,
					"hidden" : 0,
					"source" : [ "obj-668", 0 ]
				}

			}
, 			{
				"patchline" : 				{
					"destination" : [ "obj-90", 0 ],
					"disabled" : 0,
					"hidden" : 0,
					"source" : [ "obj-669", 0 ]
				}

			}
, 			{
				"patchline" : 				{
					"destination" : [ "obj-669", 0 ],
					"disabled" : 0,
					"hidden" : 0,
					"source" : [ "obj-670", 0 ]
				}

			}
, 			{
				"patchline" : 				{
					"destination" : [ "obj-672", 0 ],
					"disabled" : 0,
					"hidden" : 0,
					"source" : [ "obj-671", 1 ]
				}

			}
, 			{
				"patchline" : 				{
					"destination" : [ "obj-673", 0 ],
					"disabled" : 0,
					"hidden" : 0,
					"source" : [ "obj-671", 0 ]
				}

			}
, 			{
				"patchline" : 				{
					"destination" : [ "obj-674", 1 ],
					"disabled" : 0,
					"hidden" : 0,
					"source" : [ "obj-672", 0 ]
				}

			}
, 			{
				"patchline" : 				{
					"destination" : [ "obj-675", 0 ],
					"disabled" : 0,
					"hidden" : 0,
					"source" : [ "obj-673", 0 ]
				}

			}
, 			{
				"patchline" : 				{
					"destination" : [ "obj-90", 0 ],
					"disabled" : 0,
					"hidden" : 0,
					"source" : [ "obj-674", 0 ]
				}

			}
, 			{
				"patchline" : 				{
					"destination" : [ "obj-674", 0 ],
					"disabled" : 0,
					"hidden" : 0,
					"source" : [ "obj-675", 0 ]
				}

			}
, 			{
				"patchline" : 				{
					"destination" : [ "obj-677", 0 ],
					"disabled" : 0,
					"hidden" : 0,
					"source" : [ "obj-676", 1 ]
				}

			}
, 			{
				"patchline" : 				{
					"destination" : [ "obj-678", 0 ],
					"disabled" : 0,
					"hidden" : 0,
					"source" : [ "obj-676", 0 ]
				}

			}
, 			{
				"patchline" : 				{
					"destination" : [ "obj-679", 1 ],
					"disabled" : 0,
					"hidden" : 0,
					"source" : [ "obj-677", 0 ]
				}

			}
, 			{
				"patchline" : 				{
					"destination" : [ "obj-680", 0 ],
					"disabled" : 0,
					"hidden" : 0,
					"source" : [ "obj-678", 0 ]
				}

			}
, 			{
				"patchline" : 				{
					"destination" : [ "obj-90", 0 ],
					"disabled" : 0,
					"hidden" : 0,
					"source" : [ "obj-679", 0 ]
				}

			}
, 			{
				"patchline" : 				{
					"destination" : [ "obj-679", 0 ],
					"disabled" : 0,
					"hidden" : 0,
					"source" : [ "obj-680", 0 ]
				}

			}
, 			{
				"patchline" : 				{
					"destination" : [ "obj-682", 0 ],
					"disabled" : 0,
					"hidden" : 0,
					"source" : [ "obj-681", 1 ]
				}

			}
, 			{
				"patchline" : 				{
					"destination" : [ "obj-683", 0 ],
					"disabled" : 0,
					"hidden" : 0,
					"source" : [ "obj-681", 0 ]
				}

			}
, 			{
				"patchline" : 				{
					"destination" : [ "obj-684", 1 ],
					"disabled" : 0,
					"hidden" : 0,
					"source" : [ "obj-682", 0 ]
				}

			}
, 			{
				"patchline" : 				{
					"destination" : [ "obj-685", 0 ],
					"disabled" : 0,
					"hidden" : 0,
					"source" : [ "obj-683", 0 ]
				}

			}
, 			{
				"patchline" : 				{
					"destination" : [ "obj-90", 0 ],
					"disabled" : 0,
					"hidden" : 0,
					"source" : [ "obj-684", 0 ]
				}

			}
, 			{
				"patchline" : 				{
					"destination" : [ "obj-684", 0 ],
					"disabled" : 0,
					"hidden" : 0,
					"source" : [ "obj-685", 0 ]
				}

			}
, 			{
				"patchline" : 				{
					"destination" : [ "obj-687", 0 ],
					"disabled" : 0,
					"hidden" : 0,
					"source" : [ "obj-686", 1 ]
				}

			}
, 			{
				"patchline" : 				{
					"destination" : [ "obj-688", 0 ],
					"disabled" : 0,
					"hidden" : 0,
					"source" : [ "obj-686", 0 ]
				}

			}
, 			{
				"patchline" : 				{
					"destination" : [ "obj-689", 1 ],
					"disabled" : 0,
					"hidden" : 0,
					"source" : [ "obj-687", 0 ]
				}

			}
, 			{
				"patchline" : 				{
					"destination" : [ "obj-690", 0 ],
					"disabled" : 0,
					"hidden" : 0,
					"source" : [ "obj-688", 0 ]
				}

			}
, 			{
				"patchline" : 				{
					"destination" : [ "obj-90", 0 ],
					"disabled" : 0,
					"hidden" : 0,
					"source" : [ "obj-689", 0 ]
				}

			}
, 			{
				"patchline" : 				{
					"destination" : [ "obj-689", 0 ],
					"disabled" : 0,
					"hidden" : 0,
					"source" : [ "obj-690", 0 ]
				}

			}
, 			{
				"patchline" : 				{
					"destination" : [ "obj-692", 0 ],
					"disabled" : 0,
					"hidden" : 0,
					"source" : [ "obj-691", 1 ]
				}

			}
, 			{
				"patchline" : 				{
					"destination" : [ "obj-693", 0 ],
					"disabled" : 0,
					"hidden" : 0,
					"source" : [ "obj-691", 0 ]
				}

			}
, 			{
				"patchline" : 				{
					"destination" : [ "obj-694", 1 ],
					"disabled" : 0,
					"hidden" : 0,
					"source" : [ "obj-692", 0 ]
				}

			}
, 			{
				"patchline" : 				{
					"destination" : [ "obj-695", 0 ],
					"disabled" : 0,
					"hidden" : 0,
					"source" : [ "obj-693", 0 ]
				}

			}
, 			{
				"patchline" : 				{
					"destination" : [ "obj-90", 0 ],
					"disabled" : 0,
					"hidden" : 0,
					"source" : [ "obj-694", 0 ]
				}

			}
, 			{
				"patchline" : 				{
					"destination" : [ "obj-694", 0 ],
					"disabled" : 0,
					"hidden" : 0,
					"source" : [ "obj-695", 0 ]
				}

			}
, 			{
				"patchline" : 				{
					"destination" : [ "obj-697", 0 ],
					"disabled" : 0,
					"hidden" : 0,
					"source" : [ "obj-696", 1 ]
				}

			}
, 			{
				"patchline" : 				{
					"destination" : [ "obj-698", 0 ],
					"disabled" : 0,
					"hidden" : 0,
					"source" : [ "obj-696", 0 ]
				}

			}
, 			{
				"patchline" : 				{
					"destination" : [ "obj-699", 1 ],
					"disabled" : 0,
					"hidden" : 0,
					"source" : [ "obj-697", 0 ]
				}

			}
, 			{
				"patchline" : 				{
					"destination" : [ "obj-700", 0 ],
					"disabled" : 0,
					"hidden" : 0,
					"source" : [ "obj-698", 0 ]
				}

			}
, 			{
				"patchline" : 				{
					"destination" : [ "obj-90", 0 ],
					"disabled" : 0,
					"hidden" : 0,
					"source" : [ "obj-699", 0 ]
				}

			}
, 			{
				"patchline" : 				{
					"destination" : [ "obj-699", 0 ],
					"disabled" : 0,
					"hidden" : 0,
					"source" : [ "obj-700", 0 ]
				}

			}
, 			{
				"patchline" : 				{
					"destination" : [ "obj-702", 0 ],
					"disabled" : 0,
					"hidden" : 0,
					"source" : [ "obj-701", 1 ]
				}

			}
, 			{
				"patchline" : 				{
					"destination" : [ "obj-703", 0 ],
					"disabled" : 0,
					"hidden" : 0,
					"source" : [ "obj-701", 0 ]
				}

			}
, 			{
				"patchline" : 				{
					"destination" : [ "obj-704", 1 ],
					"disabled" : 0,
					"hidden" : 0,
					"source" : [ "obj-702", 0 ]
				}

			}
, 			{
				"patchline" : 				{
					"destination" : [ "obj-705", 0 ],
					"disabled" : 0,
					"hidden" : 0,
					"source" : [ "obj-703", 0 ]
				}

			}
, 			{
				"patchline" : 				{
					"destination" : [ "obj-90", 0 ],
					"disabled" : 0,
					"hidden" : 0,
					"source" : [ "obj-704", 0 ]
				}

			}
, 			{
				"patchline" : 				{
					"destination" : [ "obj-704", 0 ],
					"disabled" : 0,
					"hidden" : 0,
					"source" : [ "obj-705", 0 ]
				}

			}
, 			{
				"patchline" : 				{
					"destination" : [ "obj-707", 0 ],
					"disabled" : 0,
					"hidden" : 0,
					"source" : [ "obj-706", 1 ]
				}

			}
, 			{
				"patchline" : 				{
					"destination" : [ "obj-708", 0 ],
					"disabled" : 0,
					"hidden" : 0,
					"source" : [ "obj-706", 0 ]
				}

			}
, 			{
				"patchline" : 				{
					"destination" : [ "obj-709", 1 ],
					"disabled" : 0,
					"hidden" : 0,
					"source" : [ "obj-707", 0 ]
				}

			}
, 			{
				"patchline" : 				{
					"destination" : [ "obj-710", 0 ],
					"disabled" : 0,
					"hidden" : 0,
					"source" : [ "obj-708", 0 ]
				}

			}
, 			{
				"patchline" : 				{
					"destination" : [ "obj-90", 0 ],
					"disabled" : 0,
					"hidden" : 0,
					"source" : [ "obj-709", 0 ]
				}

			}
, 			{
				"patchline" : 				{
					"destination" : [ "obj-709", 0 ],
					"disabled" : 0,
					"hidden" : 0,
					"source" : [ "obj-710", 0 ]
				}

			}
, 			{
				"patchline" : 				{
					"destination" : [ "obj-712", 0 ],
					"disabled" : 0,
					"hidden" : 0,
					"source" : [ "obj-711", 1 ]
				}

			}
, 			{
				"patchline" : 				{
					"destination" : [ "obj-713", 0 ],
					"disabled" : 0,
					"hidden" : 0,
					"source" : [ "obj-711", 0 ]
				}

			}
, 			{
				"patchline" : 				{
					"destination" : [ "obj-714", 1 ],
					"disabled" : 0,
					"hidden" : 0,
					"source" : [ "obj-712", 0 ]
				}

			}
, 			{
				"patchline" : 				{
					"destination" : [ "obj-715", 0 ],
					"disabled" : 0,
					"hidden" : 0,
					"source" : [ "obj-713", 0 ]
				}

			}
, 			{
				"patchline" : 				{
					"destination" : [ "obj-90", 0 ],
					"disabled" : 0,
					"hidden" : 0,
					"source" : [ "obj-714", 0 ]
				}

			}
, 			{
				"patchline" : 				{
					"destination" : [ "obj-714", 0 ],
					"disabled" : 0,
					"hidden" : 0,
					"source" : [ "obj-715", 0 ]
				}

			}
, 			{
				"patchline" : 				{
					"destination" : [ "obj-717", 0 ],
					"disabled" : 0,
					"hidden" : 0,
					"source" : [ "obj-716", 1 ]
				}

			}
, 			{
				"patchline" : 				{
					"destination" : [ "obj-718", 0 ],
					"disabled" : 0,
					"hidden" : 0,
					"source" : [ "obj-716", 0 ]
				}

			}
, 			{
				"patchline" : 				{
					"destination" : [ "obj-719", 1 ],
					"disabled" : 0,
					"hidden" : 0,
					"source" : [ "obj-717", 0 ]
				}

			}
, 			{
				"patchline" : 				{
					"destination" : [ "obj-720", 0 ],
					"disabled" : 0,
					"hidden" : 0,
					"source" : [ "obj-718", 0 ]
				}

			}
, 			{
				"patchline" : 				{
					"destination" : [ "obj-90", 0 ],
					"disabled" : 0,
					"hidden" : 0,
					"source" : [ "obj-719", 0 ]
				}

			}
, 			{
				"patchline" : 				{
					"destination" : [ "obj-719", 0 ],
					"disabled" : 0,
					"hidden" : 0,
					"source" : [ "obj-720", 0 ]
				}

			}
, 			{
				"patchline" : 				{
					"destination" : [ "obj-722", 0 ],
					"disabled" : 0,
					"hidden" : 0,
					"source" : [ "obj-721", 1 ]
				}

			}
, 			{
				"patchline" : 				{
					"destination" : [ "obj-723", 0 ],
					"disabled" : 0,
					"hidden" : 0,
					"source" : [ "obj-721", 0 ]
				}

			}
, 			{
				"patchline" : 				{
					"destination" : [ "obj-724", 1 ],
					"disabled" : 0,
					"hidden" : 0,
					"source" : [ "obj-722", 0 ]
				}

			}
, 			{
				"patchline" : 				{
					"destination" : [ "obj-725", 0 ],
					"disabled" : 0,
					"hidden" : 0,
					"source" : [ "obj-723", 0 ]
				}

			}
, 			{
				"patchline" : 				{
					"destination" : [ "obj-90", 0 ],
					"disabled" : 0,
					"hidden" : 0,
					"source" : [ "obj-724", 0 ]
				}

			}
, 			{
				"patchline" : 				{
					"destination" : [ "obj-724", 0 ],
					"disabled" : 0,
					"hidden" : 0,
					"source" : [ "obj-725", 0 ]
				}

			}
, 			{
				"patchline" : 				{
					"destination" : [ "obj-727", 0 ],
					"disabled" : 0,
					"hidden" : 0,
					"source" : [ "obj-726", 1 ]
				}

			}
, 			{
				"patchline" : 				{
					"destination" : [ "obj-728", 0 ],
					"disabled" : 0,
					"hidden" : 0,
					"source" : [ "obj-726", 0 ]
				}

			}
, 			{
				"patchline" : 				{
					"destination" : [ "obj-729", 1 ],
					"disabled" : 0,
					"hidden" : 0,
					"source" : [ "obj-727", 0 ]
				}

			}
, 			{
				"patchline" : 				{
					"destination" : [ "obj-730", 0 ],
					"disabled" : 0,
					"hidden" : 0,
					"source" : [ "obj-728", 0 ]
				}

			}
, 			{
				"patchline" : 				{
					"destination" : [ "obj-90", 0 ],
					"disabled" : 0,
					"hidden" : 0,
					"source" : [ "obj-729", 0 ]
				}

			}
, 			{
				"patchline" : 				{
					"destination" : [ "obj-729", 0 ],
					"disabled" : 0,
					"hidden" : 0,
					"source" : [ "obj-730", 0 ]
				}

			}
, 			{
				"patchline" : 				{
					"destination" : [ "obj-732", 0 ],
					"disabled" : 0,
					"hidden" : 0,
					"source" : [ "obj-731", 1 ]
				}

			}
, 			{
				"patchline" : 				{
					"destination" : [ "obj-733", 0 ],
					"disabled" : 0,
					"hidden" : 0,
					"source" : [ "obj-731", 0 ]
				}

			}
, 			{
				"patchline" : 				{
					"destination" : [ "obj-734", 1 ],
					"disabled" : 0,
					"hidden" : 0,
					"source" : [ "obj-732", 0 ]
				}

			}
, 			{
				"patchline" : 				{
					"destination" : [ "obj-735", 0 ],
					"disabled" : 0,
					"hidden" : 0,
					"source" : [ "obj-733", 0 ]
				}

			}
, 			{
				"patchline" : 				{
					"destination" : [ "obj-90", 0 ],
					"disabled" : 0,
					"hidden" : 0,
					"source" : [ "obj-734", 0 ]
				}

			}
, 			{
				"patchline" : 				{
					"destination" : [ "obj-734", 0 ],
					"disabled" : 0,
					"hidden" : 0,
					"source" : [ "obj-735", 0 ]
				}

			}
, 			{
				"patchline" : 				{
					"destination" : [ "obj-737", 0 ],
					"disabled" : 0,
					"hidden" : 0,
					"source" : [ "obj-736", 1 ]
				}

			}
, 			{
				"patchline" : 				{
					"destination" : [ "obj-738", 0 ],
					"disabled" : 0,
					"hidden" : 0,
					"source" : [ "obj-736", 0 ]
				}

			}
, 			{
				"patchline" : 				{
					"destination" : [ "obj-739", 1 ],
					"disabled" : 0,
					"hidden" : 0,
					"source" : [ "obj-737", 0 ]
				}

			}
, 			{
				"patchline" : 				{
					"destination" : [ "obj-740", 0 ],
					"disabled" : 0,
					"hidden" : 0,
					"source" : [ "obj-738", 0 ]
				}

			}
, 			{
				"patchline" : 				{
					"destination" : [ "obj-90", 0 ],
					"disabled" : 0,
					"hidden" : 0,
					"source" : [ "obj-739", 0 ]
				}

			}
, 			{
				"patchline" : 				{
					"destination" : [ "obj-739", 0 ],
					"disabled" : 0,
					"hidden" : 0,
					"source" : [ "obj-740", 0 ]
				}

			}
, 			{
				"patchline" : 				{
					"destination" : [ "obj-742", 0 ],
					"disabled" : 0,
					"hidden" : 0,
					"source" : [ "obj-741", 1 ]
				}

			}
, 			{
				"patchline" : 				{
					"destination" : [ "obj-743", 0 ],
					"disabled" : 0,
					"hidden" : 0,
					"source" : [ "obj-741", 0 ]
				}

			}
, 			{
				"patchline" : 				{
					"destination" : [ "obj-744", 1 ],
					"disabled" : 0,
					"hidden" : 0,
					"source" : [ "obj-742", 0 ]
				}

			}
, 			{
				"patchline" : 				{
					"destination" : [ "obj-745", 0 ],
					"disabled" : 0,
					"hidden" : 0,
					"source" : [ "obj-743", 0 ]
				}

			}
, 			{
				"patchline" : 				{
					"destination" : [ "obj-90", 0 ],
					"disabled" : 0,
					"hidden" : 0,
					"source" : [ "obj-744", 0 ]
				}

			}
, 			{
				"patchline" : 				{
					"destination" : [ "obj-744", 0 ],
					"disabled" : 0,
					"hidden" : 0,
					"source" : [ "obj-745", 0 ]
				}

			}
, 			{
				"patchline" : 				{
					"destination" : [ "obj-41", 1 ],
					"disabled" : 0,
					"hidden" : 0,
					"source" : [ "obj-88", 0 ]
				}

			}
, 			{
				"patchline" : 				{
					"destination" : [ "obj-2", 0 ],
					"disabled" : 0,
					"hidden" : 0,
					"source" : [ "obj-90", 0 ]
				}

			}
, 			{
				"patchline" : 				{
					"destination" : [ "obj-89", 0 ],
					"disabled" : 0,
					"hidden" : 0,
					"source" : [ "obj-90", 0 ]
				}

			}
 ],
		"parameters" : 		{

		}
,
		"dependency_cache" : [  ]
	}

}
