{
	"patcher" : 	{
		"fileversion" : 1,
		"appversion" : 		{
			"major" : 6,
			"minor" : 0,
			"revision" : 3
		}
,
		"rect" : [ 95.0, 99.0, 957.0, 564.0 ],
		"bglocked" : 0,
		"openinpresentation" : 1,
		"default_fontsize" : 12.0,
		"default_fontface" : 0,
		"default_fontname" : "Arial",
		"gridonopen" : 0,
		"gridsize" : [ 4.0, 4.0 ],
		"gridsnaponopen" : 0,
		"statusbarvisible" : 0,
		"toolbarvisible" : 1,
		"boxanimatetime" : 200,
		"imprint" : 0,
		"enablehscroll" : 1,
		"enablevscroll" : 1,
		"devicewidth" : 0.0,
		"description" : "",
		"digest" : "",
		"tags" : "",
		"boxes" : [ 			{
				"box" : 				{
					"fontname" : "Arial Bold",
					"fontsize" : 16.0,
					"id" : "obj-23",
					"maxclass" : "comment",
					"numinlets" : 1,
					"numoutlets" : 0,
					"patching_rect" : [ 10.0, 458.75, 142.0, 25.0 ],
					"presentation" : 1,
					"presentation_rect" : [ 697.0, 356.5, 142.0, 25.0 ],
					"text" : "Advanced Topics"
				}

			}
, 			{
				"box" : 				{
					"button" : 1,
					"clicktabcolor" : [ 0.27451, 0.443137, 0.690196, 1.0 ],
					"fontname" : "Arial",
					"fontsize" : 12.0,
					"id" : "obj-21",
					"maxclass" : "tab",
					"numinlets" : 1,
					"numoutlets" : 3,
					"outlettype" : [ "int", "", "" ],
					"parameter_enable" : 0,
					"patching_rect" : [ 10.0, 491.133545, 142.0, 43.0 ],
					"presentation" : 1,
					"presentation_rect" : [ 699.0, 384.767029, 232.0, 50.732971 ],
					"tabcolor" : [ 0.156863, 0.356863, 0.466667, 1.0 ],
					"tabs" : [ "Using Collections", "Using poly~" ],
					"textcolor" : [ 1.0, 1.0, 1.0, 1.0 ]
				}

			}
, 			{
				"box" : 				{
					"button" : 1,
					"clicktabcolor" : [ 0.27451, 0.443137, 0.690196, 1.0 ],
					"fontname" : "Arial",
					"fontsize" : 12.0,
					"id" : "obj-20",
					"maxclass" : "tab",
					"numinlets" : 1,
					"numoutlets" : 3,
					"outlettype" : [ "int", "", "" ],
					"parameter_enable" : 0,
					"patching_rect" : [ 699.0, 272.133514, 192.0, 44.0 ],
					"presentation" : 1,
					"presentation_rect" : [ 698.0, 271.133514, 233.0, 51.732971 ],
					"tabcolor" : [ 0.156863, 0.356863, 0.466667, 1.0 ],
					"tabs" : [ "Using MIDI Data", "MIDI Synthesizer" ],
					"textcolor" : [ 1.0, 1.0, 1.0, 1.0 ]
				}

			}
, 			{
				"box" : 				{
					"fontname" : "Arial Bold",
					"fontsize" : 16.0,
					"id" : "obj-14",
					"maxclass" : "comment",
					"numinlets" : 1,
					"numoutlets" : 0,
					"patching_rect" : [ 704.0, 247.866486, 97.0, 25.0 ],
					"presentation" : 1,
					"presentation_rect" : [ 699.0, 241.866486, 44.0, 25.0 ],
					"text" : "MIDI"
				}

			}
, 			{
				"box" : 				{
					"button" : 1,
					"clicktabcolor" : [ 0.27451, 0.443137, 0.690196, 1.0 ],
					"fontname" : "Arial",
					"fontsize" : 12.0,
					"id" : "obj-10",
					"maxclass" : "tab",
					"numinlets" : 1,
					"numoutlets" : 3,
					"outlettype" : [ "int", "", "" ],
					"parameter_enable" : 0,
					"patching_rect" : [ 328.0, 317.0, 147.0, 30.0 ],
					"presentation" : 1,
					"presentation_rect" : [ 240.0, 363.633514, 210.5, 52.0 ],
					"tabcolor" : [ 0.156863, 0.356863, 0.466667, 1.0 ],
					"tabs" : [ "Envelope Generator", "Step Sequencer" ],
					"textcolor" : [ 1.0, 1.0, 1.0, 1.0 ]
				}

			}
, 			{
				"box" : 				{
					"fontname" : "Arial",
					"fontsize" : 12.0,
					"id" : "obj-9",
					"maxclass" : "comment",
					"numinlets" : 1,
					"numoutlets" : 0,
					"patching_rect" : [ 774.0, 132.883514, 61.0, 20.0 ],
					"presentation" : 1,
					"presentation_rect" : [ 827.0, 186.366486, 61.0, 20.0 ],
					"text" : "Sampling"
				}

			}
, 			{
				"box" : 				{
					"fontname" : "Arial",
					"fontsize" : 12.0,
					"id" : "obj-8",
					"maxclass" : "comment",
					"numinlets" : 1,
					"numoutlets" : 0,
					"patching_rect" : [ 774.0, 114.366486, 62.0, 20.0 ],
					"presentation" : 1,
					"presentation_rect" : [ 827.0, 158.866486, 62.0, 20.0 ],
					"text" : "FM Synth"
				}

			}
, 			{
				"box" : 				{
					"fontname" : "Arial",
					"fontsize" : 12.0,
					"id" : "obj-7",
					"linecount" : 2,
					"maxclass" : "comment",
					"numinlets" : 1,
					"numoutlets" : 0,
					"patching_rect" : [ 774.0, 94.366486, 94.0, 34.0 ],
					"presentation" : 1,
					"presentation_rect" : [ 826.5, 132.866486, 100.0, 20.0 ],
					"text" : "Theremin, Part 2"
				}

			}
, 			{
				"box" : 				{
					"fontname" : "Arial",
					"fontsize" : 12.0,
					"id" : "obj-5",
					"maxclass" : "comment",
					"numinlets" : 1,
					"numoutlets" : 0,
					"patching_rect" : [ 774.0, 76.0, 101.0, 20.0 ],
					"presentation" : 1,
					"presentation_rect" : [ 827.0, 106.366486, 101.0, 20.0 ],
					"text" : "Build a Theremin"
				}

			}
, 			{
				"box" : 				{
					"button" : 1,
					"clicktabcolor" : [ 0.27451, 0.443137, 0.690196, 1.0 ],
					"fontname" : "Arial",
					"fontsize" : 12.0,
					"id" : "obj-4",
					"maxclass" : "tab",
					"numinlets" : 1,
					"numoutlets" : 3,
					"outlettype" : [ "int", "", "" ],
					"parameter_enable" : 0,
					"patching_rect" : [ 344.0, 383.75, 141.0, 58.0 ],
					"presentation" : 1,
					"presentation_rect" : [ 13.0, 319.133514, 204.0, 101.774872 ],
					"tabcolor" : [ 0.156863, 0.356863, 0.466667, 1.0 ],
					"tabs" : [ "Using line and line~", "Data Management", "Random Number Generators", "Patch Communication" ],
					"textcolor" : [ 1.0, 1.0, 1.0, 1.0 ]
				}

			}
, 			{
				"box" : 				{
					"button" : 1,
					"clicktabcolor" : [ 0.27451, 0.443137, 0.690196, 1.0 ],
					"fontname" : "Arial",
					"fontsize" : 12.0,
					"id" : "obj-6",
					"maxclass" : "tab",
					"numinlets" : 1,
					"numoutlets" : 3,
					"outlettype" : [ "int", "", "" ],
					"parameter_enable" : 0,
					"patching_rect" : [ 17.0, 366.133514, 107.0, 18.0 ],
					"presentation" : 1,
					"presentation_rect" : [ 13.0, 453.408386, 204.0, 27.0 ],
					"tabcolor" : [ 0.156863, 0.356863, 0.466667, 1.0 ],
					"tabs" : [ "Physics of Musical Sound" ],
					"textcolor" : [ 1.0, 1.0, 1.0, 1.0 ]
				}

			}
, 			{
				"box" : 				{
					"button" : 1,
					"clicktabcolor" : [ 0.27451, 0.443137, 0.690196, 1.0 ],
					"fontname" : "Arial",
					"fontsize" : 12.0,
					"id" : "obj-77",
					"maxclass" : "tab",
					"numinlets" : 1,
					"numoutlets" : 3,
					"outlettype" : [ "int", "", "" ],
					"parameter_enable" : 0,
					"patching_rect" : [ 368.0, 247.0, 107.0, 18.0 ],
					"presentation" : 1,
					"presentation_rect" : [ 700.0, 498.133514, 226.5, 27.0 ],
					"tabcolor" : [ 0.156863, 0.356863, 0.466667, 1.0 ],
					"tabs" : [ "Spectral Tutorials" ],
					"textcolor" : [ 1.0, 1.0, 1.0, 1.0 ]
				}

			}
, 			{
				"box" : 				{
					"fontname" : "Arial Bold",
					"fontsize" : 16.0,
					"id" : "obj-76",
					"maxclass" : "comment",
					"numinlets" : 1,
					"numoutlets" : 0,
					"patching_rect" : [ 365.0, 220.0, 120.0, 25.0 ],
					"presentation" : 1,
					"presentation_rect" : [ 700.0, 472.133514, 120.0, 25.0 ],
					"text" : "Spectral Tools"
				}

			}
, 			{
				"box" : 				{
					"button" : 1,
					"clicktabcolor" : [ 0.27451, 0.443137, 0.690196, 1.0 ],
					"fontname" : "Arial",
					"fontsize" : 12.0,
					"id" : "obj-74",
					"maxclass" : "tab",
					"numinlets" : 1,
					"numoutlets" : 3,
					"outlettype" : [ "int", "", "" ],
					"parameter_enable" : 0,
					"patching_rect" : [ 147.0, 248.0, 192.0, 44.0 ],
					"presentation" : 1,
					"presentation_rect" : [ 471.0, 421.908386, 192.0, 105.0 ],
					"tabcolor" : [ 0.156863, 0.356863, 0.466667, 1.0 ],
					"tabs" : [ "Amplitude (onset) Detection", "Pitch Detection", "Tempo Tracking", "Timbre Analysis" ],
					"textcolor" : [ 1.0, 1.0, 1.0, 1.0 ]
				}

			}
, 			{
				"box" : 				{
					"fontname" : "Arial Bold",
					"fontsize" : 16.0,
					"id" : "obj-73",
					"maxclass" : "comment",
					"numinlets" : 1,
					"numoutlets" : 0,
					"patching_rect" : [ 147.0, 220.0, 158.0, 25.0 ],
					"presentation" : 1,
					"presentation_rect" : [ 471.0, 395.908386, 158.0, 25.0 ],
					"text" : "Live Analysis Tools"
				}

			}
, 			{
				"box" : 				{
					"button" : 1,
					"clicktabcolor" : [ 0.27451, 0.443137, 0.690196, 1.0 ],
					"fontname" : "Arial",
					"fontsize" : 12.0,
					"id" : "obj-63",
					"maxclass" : "tab",
					"numinlets" : 1,
					"numoutlets" : 3,
					"outlettype" : [ "int", "", "" ],
					"parameter_enable" : 0,
					"patching_rect" : [ 21.0, 111.0, 192.0, 86.0 ],
					"presentation" : 1,
					"presentation_rect" : [ 13.0, 101.0, 204.0, 203.0 ],
					"tabcolor" : [ 0.156863, 0.356863, 0.466667, 1.0 ],
					"tabs" : [ "Data Types", "How Objects Work", "Order of Operations", "Audio Input/Output", "Recording Soundfiles", "Mixer", "Creating a Timeline" ],
					"textcolor" : [ 1.0, 1.0, 1.0, 1.0 ]
				}

			}
, 			{
				"box" : 				{
					"fontname" : "Arial Bold",
					"fontsize" : 16.0,
					"id" : "obj-62",
					"maxclass" : "comment",
					"numinlets" : 1,
					"numoutlets" : 0,
					"patching_rect" : [ 501.0, 172.883514, 205.0, 25.0 ],
					"presentation" : 1,
					"presentation_rect" : [ 470.0, 73.133514, 205.0, 25.0 ],
					"text" : "Digital Signal Processing"
				}

			}
, 			{
				"box" : 				{
					"fontname" : "Arial Bold",
					"fontsize" : 16.0,
					"id" : "obj-61",
					"maxclass" : "comment",
					"numinlets" : 1,
					"numoutlets" : 0,
					"patching_rect" : [ 20.0, 220.0, 97.0, 25.0 ],
					"presentation" : 1,
					"presentation_rect" : [ 700.0, 74.866486, 97.0, 25.0 ],
					"text" : "Boot Camp"
				}

			}
, 			{
				"box" : 				{
					"fontname" : "Arial Bold",
					"fontsize" : 16.0,
					"id" : "obj-60",
					"maxclass" : "comment",
					"numinlets" : 1,
					"numoutlets" : 0,
					"patching_rect" : [ 450.0, 82.133514, 87.0, 25.0 ],
					"presentation" : 1,
					"presentation_rect" : [ 241.25, 441.133514, 87.0, 25.0 ],
					"text" : "Sampling"
				}

			}
, 			{
				"box" : 				{
					"fontname" : "Arial Bold",
					"fontsize" : 16.0,
					"id" : "obj-59",
					"maxclass" : "comment",
					"numinlets" : 1,
					"numoutlets" : 0,
					"patching_rect" : [ 234.0, 78.0, 87.0, 25.0 ],
					"presentation" : 1,
					"presentation_rect" : [ 239.0, 71.133514, 87.0, 25.0 ],
					"text" : "Synthesis"
				}

			}
, 			{
				"box" : 				{
					"fontname" : "Arial Bold",
					"fontsize" : 16.0,
					"id" : "obj-58",
					"maxclass" : "comment",
					"numinlets" : 1,
					"numoutlets" : 0,
					"patching_rect" : [ 21.0, 80.0, 138.0, 25.0 ],
					"presentation" : 1,
					"presentation_rect" : [ 13.0, 72.133514, 138.0, 25.0 ],
					"text" : "Max/MSP Basics"
				}

			}
, 			{
				"box" : 				{
					"fontname" : "Arial",
					"fontsize" : 12.0,
					"id" : "obj-2",
					"maxclass" : "newobj",
					"numinlets" : 2,
					"numoutlets" : 2,
					"outlettype" : [ "", "" ],
					"patching_rect" : [ 187.0, 402.75, 80.0, 20.0 ],
					"text" : "route symbol"
				}

			}
, 			{
				"box" : 				{
					"coll_data" : 					{
						"count" : 50,
						"data" : [ 							{
								"key" : "Data Types",
								"value" : [ "Data Types.maxpat" ]
							}
, 							{
								"key" : "How Objects Work",
								"value" : [ "How Objects Work.maxpat" ]
							}
, 							{
								"key" : "Order of Operations",
								"value" : [ "Order of Operations.maxpat" ]
							}
, 							{
								"key" : "Audio Input/Output",
								"value" : [ "Audio Input.maxpat" ]
							}
, 							{
								"key" : "Recording Soundfiles",
								"value" : [ "Recording Soundfiles.maxpat" ]
							}
, 							{
								"key" : "Mixer",
								"value" : [ "Mixer.maxpat" ]
							}
, 							{
								"key" : "Creating a Timeline",
								"value" : [ "Timeline.maxpat" ]
							}
, 							{
								"key" : "Using line and line~",
								"value" : [ "Control Data.maxpat" ]
							}
, 							{
								"key" : "Data Management",
								"value" : [ "data_management.maxpat" ]
							}
, 							{
								"key" : "Random Number Generators",
								"value" : [ "random.maxpat" ]
							}
, 							{
								"key" : "Patch Communication",
								"value" : [ "communication.maxpat" ]
							}
, 							{
								"key" : "Physics of Musical Sound",
								"value" : [ "Physics of Musical Sound.maxpat" ]
							}
, 							{
								"key" : "Simple Synth (oscillator)",
								"value" : [ "Simple Synth.maxpat" ]
							}
, 							{
								"key" : "More Oscillators",
								"value" : [ "More Oscillators.maxpat" ]
							}
, 							{
								"key" : "Additive Synth 1",
								"value" : [ "Additive Synth 1.maxpat" ]
							}
, 							{
								"key" : "Additive Synth 2",
								"value" : [ "Additive Synth 2.maxpat" ]
							}
, 							{
								"key" : "Amplitude/Ring Modulation",
								"value" : [ "Ring Modulation" ]
							}
, 							{
								"key" : "Frequency Modulation",
								"value" : [ "Frequency Modulation" ]
							}
, 							{
								"key" : "Subtractive Synthesis",
								"value" : [ "Subtractive Synthesis" ]
							}
, 							{
								"key" : "Granular Synthesis",
								"value" : [ "granularized.maxpat" ]
							}
, 							{
								"key" : "Wavetable Synthesis",
								"value" : [ "j. " ]
							}
, 							{
								"key" : "Physical Modeling",
								"value" : [ "plucked-string.maxpat" ]
							}
, 							{
								"key" : "Envelope Generator",
								"value" : [ "Envelope Generator " ]
							}
, 							{
								"key" : "Step Sequencer",
								"value" : [ "live.step.maxhelp" ]
							}
, 							{
								"key" : "buffer~ and groove~",
								"value" : [ "groove~.maxhelp" ]
							}
, 							{
								"key" : "Live Sampling",
								"value" : [ "live-sampling.maxpat" ]
							}
, 							{
								"key" : "Gate",
								"value" : [ "gate.maxpat" ]
							}
, 							{
								"key" : "Simple Delay",
								"value" : [ "delay.maxpat" ]
							}
, 							{
								"key" : "Variable Delay",
								"value" : [ "changingdelay.maxpat" ]
							}
, 							{
								"key" : "Filters (EQ)",
								"value" : [ "filtergraph~.maxhelp" ]
							}
, 							{
								"key" : "Flanger, Chorus, Comb Filter",
								"value" : [ "chorus.maxpat" ]
							}
, 							{
								"key" : "Distortion",
								"value" : [ "distortion.maxpat" ]
							}
, 							{
								"key" : "Pitch Shifting/Harmonization",
								"value" : [ "pitchshifting-playground.maxpat" ]
							}
, 							{
								"key" : "Tremolo",
								"value" : [ "tremolo.maxpat" ]
							}
, 							{
								"key" : "Reverb",
								"value" : [ "reverb.maxpat" ]
							}
, 							{
								"key" : "Vocoder",
								"value" : [ "classic_vocoder.maxpat" ]
							}
, 							{
								"key" : "Amplitude (onset) Detection",
								"value" : [ "Amplitude Detection.maxpat" ]
							}
, 							{
								"key" : "Pitch Detection",
								"value" : [ "pitch~.help.pat" ]
							}
, 							{
								"key" : "Tempo Tracking",
								"value" : [ "beat~.help.pat" ]
							}
, 							{
								"key" : "Timbre Analysis",
								"value" : [ "Timbre Analysis" ]
							}
, 							{
								"key" : "Spectral Tutorials",
								"value" : [ "00-overview.maxpat" ]
							}
, 							{
								"key" : "Lesson 1",
								"value" : [ "lesson_1.maxpat" ]
							}
, 							{
								"key" : "Lesson 2",
								"value" : [ "lesson_2.maxpat" ]
							}
, 							{
								"key" : "Lesson 3",
								"value" : [ "lesson_4_fm.maxpat" ]
							}
, 							{
								"key" : "Lesson 4",
								"value" : [ "lesson_4_sampling.maxpat" ]
							}
, 							{
								"key" : "Basic Waveforms",
								"value" : [ "2d. Basic Waveforms.maxpat" ]
							}
, 							{
								"key" : "Using Collections",
								"value" : [ "coll.maxhelp" ]
							}
, 							{
								"key" : "Using poly~",
								"value" : [ "poly~.maxhelp" ]
							}
, 							{
								"key" : "Using MIDI Data",
								"value" : [ "mididata.maxpat" ]
							}
, 							{
								"key" : "MIDI Synthesizer",
								"value" : [ "Internal_Synth_OSC.maxpat" ]
							}
 ]
					}
,
					"fontname" : "Arial",
					"fontsize" : 12.0,
					"id" : "obj-47",
					"maxclass" : "newobj",
					"numinlets" : 1,
					"numoutlets" : 4,
					"outlettype" : [ "", "", "", "" ],
					"patching_rect" : [ 187.0, 368.75, 120.0, 20.0 ],
					"saved_object_attributes" : 					{
						"embed" : 1
					}
,
					"text" : "coll m158_filelookup"
				}

			}
, 			{
				"box" : 				{
					"fontface" : 2,
					"fontname" : "Arial",
					"fontsize" : 14.0,
					"frgb" : [ 1.0, 1.0, 1.0, 1.0 ],
					"id" : "obj-70",
					"linecount" : 3,
					"maxclass" : "comment",
					"numinlets" : 1,
					"numoutlets" : 0,
					"patching_rect" : [ 316.0, 17.0, 440.0, 55.0 ],
					"presentation" : 1,
					"presentation_linecount" : 2,
					"presentation_rect" : [ 322.5, 17.0, 500.0, 39.0 ],
					"text" : "For this patch to work you must go to: www.cnmat.berkeley.edu/downloads.\nDownload \"Everything\" (for Mac or Windows) and place in Max path.",
					"textcolor" : [ 1.0, 1.0, 1.0, 1.0 ]
				}

			}
, 			{
				"box" : 				{
					"fontface" : 1,
					"fontname" : "Arial Bold",
					"fontsize" : 25.0,
					"id" : "obj-3",
					"maxclass" : "comment",
					"numinlets" : 1,
					"numoutlets" : 0,
					"patching_rect" : [ 23.0, 19.0, 293.0, 35.0 ],
					"presentation" : 1,
					"presentation_rect" : [ 23.0, 19.0, 293.0, 35.0 ],
					"text" : "Music 158 Master Patch"
				}

			}
, 			{
				"box" : 				{
					"fontname" : "Arial",
					"fontsize" : 12.0,
					"id" : "obj-1",
					"maxclass" : "newobj",
					"numinlets" : 1,
					"numoutlets" : 1,
					"outlettype" : [ "" ],
					"patching_rect" : [ 187.0, 458.75, 55.0, 20.0 ],
					"text" : "pcontrol"
				}

			}
, 			{
				"box" : 				{
					"fontname" : "Arial",
					"fontsize" : 12.0,
					"id" : "obj-41",
					"maxclass" : "newobj",
					"numinlets" : 1,
					"numoutlets" : 1,
					"outlettype" : [ "" ],
					"patching_rect" : [ 187.0, 430.75, 83.0, 20.0 ],
					"text" : "prepend load"
				}

			}
, 			{
				"box" : 				{
					"bgcolor" : [ 0.481176, 0.686275, 0.887915, 1.0 ],
					"id" : "obj-17",
					"ignoreclick" : 1,
					"maxclass" : "panel",
					"numinlets" : 1,
					"numoutlets" : 0,
					"patching_rect" : [ 8.0, 8.0, 754.0, 58.0 ],
					"presentation" : 1,
					"presentation_rect" : [ 8.0, 8.0, 832.0, 56.0 ],
					"rounded" : 15
				}

			}
, 			{
				"box" : 				{
					"button" : 1,
					"clicktabcolor" : [ 0.27451, 0.443137, 0.690196, 1.0 ],
					"fontname" : "Arial",
					"fontsize" : 12.0,
					"id" : "obj-50",
					"maxclass" : "tab",
					"numinlets" : 1,
					"numoutlets" : 3,
					"outlettype" : [ "int", "", "" ],
					"parameter_enable" : 0,
					"patching_rect" : [ 21.0, 247.5, 90.0, 88.5 ],
					"presentation" : 1,
					"presentation_rect" : [ 699.0, 103.366486, 128.0, 105.0 ],
					"tabcolor" : [ 0.156863, 0.356863, 0.466667, 1.0 ],
					"tabs" : [ "Lesson 1", "Lesson 2", "Lesson 3", "Lesson 4" ],
					"textcolor" : [ 1.0, 1.0, 1.0, 1.0 ]
				}

			}
, 			{
				"box" : 				{
					"button" : 1,
					"clicktabcolor" : [ 0.27451, 0.443137, 0.690196, 1.0 ],
					"fontname" : "Arial",
					"fontsize" : 12.0,
					"id" : "obj-51",
					"maxclass" : "tab",
					"numinlets" : 1,
					"numoutlets" : 3,
					"outlettype" : [ "int", "", "" ],
					"parameter_enable" : 0,
					"patching_rect" : [ 235.0, 106.866486, 192.0, 86.0 ],
					"presentation" : 1,
					"presentation_rect" : [ 240.0, 106.366486, 210.5, 240.133514 ],
					"tabcolor" : [ 0.156863, 0.356863, 0.466667, 1.0 ],
					"tabs" : [ "Simple Synth (oscillator)", "More Oscillators", "Additive Synth 1", "Additive Synth 2", "Amplitude/Ring Modulation", "Frequency Modulation", "Subtractive Synthesis", "Physical Modeling" ],
					"textcolor" : [ 1.0, 1.0, 1.0, 1.0 ]
				}

			}
, 			{
				"box" : 				{
					"button" : 1,
					"clicktabcolor" : [ 0.27451, 0.443137, 0.690196, 1.0 ],
					"fontname" : "Arial",
					"fontsize" : 12.0,
					"id" : "obj-52",
					"maxclass" : "tab",
					"numinlets" : 1,
					"numoutlets" : 3,
					"outlettype" : [ "int", "", "" ],
					"parameter_enable" : 0,
					"patching_rect" : [ 451.0, 109.0, 192.0, 44.0 ],
					"presentation" : 1,
					"presentation_rect" : [ 240.0, 466.908386, 210.5, 68.591614 ],
					"tabcolor" : [ 0.156863, 0.356863, 0.466667, 1.0 ],
					"tabs" : [ "buffer~ and groove~", "Live Sampling", "Granular Synthesis" ],
					"textcolor" : [ 1.0, 1.0, 1.0, 1.0 ]
				}

			}
, 			{
				"box" : 				{
					"button" : 1,
					"clicktabcolor" : [ 0.27451, 0.443137, 0.690196, 1.0 ],
					"fontname" : "Arial",
					"fontsize" : 12.0,
					"id" : "obj-53",
					"maxclass" : "tab",
					"numinlets" : 1,
					"numoutlets" : 3,
					"outlettype" : [ "int", "", "" ],
					"parameter_enable" : 0,
					"patching_rect" : [ 506.5, 203.75, 181.0, 168.0 ],
					"presentation" : 1,
					"presentation_rect" : [ 471.0, 103.0, 205.0, 268.0 ],
					"tabcolor" : [ 0.156863, 0.356863, 0.466667, 1.0 ],
					"tabs" : [ "Gate", "Simple Delay", "Variable Delay", "Filters (EQ)", "Flanger, Chorus, Comb Filter", "Distortion", "Pitch Shifting/Harmonization", "Tremolo", "Reverb", "Vocoder" ],
					"textcolor" : [ 1.0, 1.0, 1.0, 1.0 ]
				}

			}
, 			{
				"box" : 				{
					"background" : 1,
					"bgcolor" : [ 0.369651, 0.411428, 1.0, 1.0 ],
					"id" : "obj-22",
					"ignoreclick" : 1,
					"maxclass" : "panel",
					"numinlets" : 1,
					"numoutlets" : 0,
					"patching_rect" : [ 10.0, 454.866486, 149.0, 89.0 ],
					"presentation" : 1,
					"presentation_rect" : [ 692.0, 356.5, 247.0, 87.633514 ],
					"rounded" : 15
				}

			}
, 			{
				"box" : 				{
					"background" : 1,
					"bgcolor" : [ 0.652942, 0.610036, 0.541645, 1.0 ],
					"id" : "obj-13",
					"ignoreclick" : 1,
					"maxclass" : "panel",
					"numinlets" : 1,
					"numoutlets" : 0,
					"patching_rect" : [ 697.0, 235.866486, 120.0, 133.0 ],
					"presentation" : 1,
					"presentation_rect" : [ 692.0, 235.866486, 247.0, 110.633514 ],
					"rounded" : 15
				}

			}
, 			{
				"box" : 				{
					"background" : 1,
					"bgcolor" : [ 0.998442, 1.0, 0.633534, 1.0 ],
					"id" : "obj-75",
					"ignoreclick" : 1,
					"maxclass" : "panel",
					"numinlets" : 1,
					"numoutlets" : 0,
					"patching_rect" : [ 361.5, 216.0, 126.5, 59.0 ],
					"presentation" : 1,
					"presentation_rect" : [ 692.0, 466.908386, 249.0, 70.591614 ],
					"rounded" : 15
				}

			}
, 			{
				"box" : 				{
					"background" : 1,
					"bgcolor" : [ 1.0, 0.720457, 0.541917, 1.0 ],
					"id" : "obj-72",
					"ignoreclick" : 1,
					"maxclass" : "panel",
					"numinlets" : 1,
					"numoutlets" : 0,
					"patching_rect" : [ 140.0, 216.0, 214.0, 87.0 ],
					"presentation" : 1,
					"presentation_rect" : [ 464.0, 392.908386, 221.0, 148.0 ],
					"rounded" : 15
				}

			}
, 			{
				"box" : 				{
					"background" : 1,
					"bgcolor" : [ 0.424256, 0.375098, 0.734853, 1.0 ],
					"id" : "obj-15",
					"ignoreclick" : 1,
					"maxclass" : "panel",
					"numinlets" : 1,
					"numoutlets" : 0,
					"patching_rect" : [ 15.0, 76.0, 210.0, 136.0 ],
					"presentation" : 1,
					"presentation_rect" : [ 8.0, 69.133514, 217.0, 466.366486 ],
					"rounded" : 15
				}

			}
, 			{
				"box" : 				{
					"background" : 1,
					"bgcolor" : [ 0.368525, 0.800901, 0.507374, 1.0 ],
					"id" : "obj-48",
					"ignoreclick" : 1,
					"maxclass" : "panel",
					"numinlets" : 1,
					"numoutlets" : 0,
					"patching_rect" : [ 231.0, 76.0, 209.0, 127.866486 ],
					"presentation" : 1,
					"presentation_rect" : [ 236.0, 69.133514, 221.0, 364.0 ],
					"rounded" : 15
				}

			}
, 			{
				"box" : 				{
					"background" : 1,
					"bgcolor" : [ 1.0, 0.818182, 0.818182, 1.0 ],
					"id" : "obj-67",
					"ignoreclick" : 1,
					"maxclass" : "panel",
					"numinlets" : 1,
					"numoutlets" : 0,
					"patching_rect" : [ 443.0, 76.0, 205.0, 86.0 ],
					"presentation" : 1,
					"presentation_rect" : [ 235.0, 441.133514, 221.0, 101.366486 ],
					"rounded" : 15
				}

			}
, 			{
				"box" : 				{
					"background" : 1,
					"bgcolor" : [ 0.578319, 0.901353, 1.0, 1.0 ],
					"id" : "obj-29",
					"ignoreclick" : 1,
					"maxclass" : "panel",
					"numinlets" : 1,
					"numoutlets" : 0,
					"patching_rect" : [ 497.0, 167.75, 209.0, 217.0 ],
					"presentation" : 1,
					"presentation_rect" : [ 464.0, 68.866486, 221.0, 315.0 ],
					"rounded" : 15
				}

			}
, 			{
				"box" : 				{
					"background" : 1,
					"bgcolor" : [ 0.491339, 0.538543, 0.216918, 1.0 ],
					"id" : "obj-16",
					"ignoreclick" : 1,
					"maxclass" : "panel",
					"numinlets" : 1,
					"numoutlets" : 0,
					"patching_rect" : [ 14.0, 214.0, 120.0, 133.0 ],
					"presentation" : 1,
					"presentation_rect" : [ 692.0, 68.866486, 247.0, 154.0 ],
					"rounded" : 15
				}

			}
 ],
		"lines" : [ 			{
				"patchline" : 				{
					"destination" : [ "obj-47", 0 ],
					"disabled" : 0,
					"hidden" : 0,
					"source" : [ "obj-10", 1 ]
				}

			}
, 			{
				"patchline" : 				{
					"destination" : [ "obj-41", 0 ],
					"disabled" : 0,
					"hidden" : 0,
					"source" : [ "obj-2", 0 ]
				}

			}
, 			{
				"patchline" : 				{
					"destination" : [ "obj-47", 0 ],
					"disabled" : 0,
					"hidden" : 0,
					"source" : [ "obj-20", 1 ]
				}

			}
, 			{
				"patchline" : 				{
					"destination" : [ "obj-47", 0 ],
					"disabled" : 0,
					"hidden" : 0,
					"source" : [ "obj-21", 1 ]
				}

			}
, 			{
				"patchline" : 				{
					"destination" : [ "obj-47", 0 ],
					"disabled" : 0,
					"hidden" : 0,
					"source" : [ "obj-4", 1 ]
				}

			}
, 			{
				"patchline" : 				{
					"destination" : [ "obj-1", 0 ],
					"disabled" : 0,
					"hidden" : 0,
					"source" : [ "obj-41", 0 ]
				}

			}
, 			{
				"patchline" : 				{
					"destination" : [ "obj-2", 0 ],
					"disabled" : 0,
					"hidden" : 0,
					"source" : [ "obj-47", 0 ]
				}

			}
, 			{
				"patchline" : 				{
					"destination" : [ "obj-47", 0 ],
					"disabled" : 0,
					"hidden" : 0,
					"source" : [ "obj-50", 1 ]
				}

			}
, 			{
				"patchline" : 				{
					"destination" : [ "obj-47", 0 ],
					"disabled" : 0,
					"hidden" : 0,
					"source" : [ "obj-51", 1 ]
				}

			}
, 			{
				"patchline" : 				{
					"destination" : [ "obj-47", 0 ],
					"disabled" : 0,
					"hidden" : 0,
					"source" : [ "obj-52", 1 ]
				}

			}
, 			{
				"patchline" : 				{
					"destination" : [ "obj-47", 0 ],
					"disabled" : 0,
					"hidden" : 0,
					"source" : [ "obj-53", 1 ]
				}

			}
, 			{
				"patchline" : 				{
					"destination" : [ "obj-47", 0 ],
					"disabled" : 0,
					"hidden" : 0,
					"source" : [ "obj-6", 1 ]
				}

			}
, 			{
				"patchline" : 				{
					"destination" : [ "obj-47", 0 ],
					"disabled" : 0,
					"hidden" : 0,
					"source" : [ "obj-63", 1 ]
				}

			}
, 			{
				"patchline" : 				{
					"destination" : [ "obj-47", 0 ],
					"disabled" : 0,
					"hidden" : 0,
					"source" : [ "obj-74", 1 ]
				}

			}
, 			{
				"patchline" : 				{
					"destination" : [ "obj-47", 0 ],
					"disabled" : 0,
					"hidden" : 0,
					"source" : [ "obj-77", 1 ]
				}

			}
 ],
		"dependency_cache" : [  ]
	}

}
