{
	"patcher" : 	{
		"fileversion" : 1,
		"appversion" : 		{
			"major" : 7,
			"minor" : 0,
			"revision" : 6,
			"architecture" : "x64",
			"modernui" : 1
		}
,
		"rect" : [ 144.0, 45.0, 1193.0, 851.0 ],
		"bglocked" : 0,
		"openinpresentation" : 0,
		"default_fontsize" : 12.0,
		"default_fontface" : 0,
		"default_fontname" : "Arial",
		"gridonopen" : 1,
		"gridsize" : [ 15.0, 15.0 ],
		"gridsnaponopen" : 1,
		"objectsnaponopen" : 1,
		"statusbarvisible" : 2,
		"toolbarvisible" : 1,
		"lefttoolbarpinned" : 0,
		"toptoolbarpinned" : 0,
		"righttoolbarpinned" : 0,
		"bottomtoolbarpinned" : 0,
		"toolbars_unpinned_last_save" : 15,
		"tallnewobj" : 0,
		"boxanimatetime" : 200,
		"enablehscroll" : 1,
		"enablevscroll" : 1,
		"devicewidth" : 0.0,
		"description" : "",
		"digest" : "",
		"tags" : "",
		"style" : "",
		"subpatcher_template" : "no-menus",
		"boxes" : [ 			{
				"box" : 				{
					"id" : "obj-62",
					"maxclass" : "newobj",
					"numinlets" : 1,
					"numoutlets" : 0,
					"patcher" : 					{
						"fileversion" : 1,
						"appversion" : 						{
							"major" : 7,
							"minor" : 0,
							"revision" : 6,
							"architecture" : "x64",
							"modernui" : 1
						}
,
						"rect" : [ 0.0, 0.0, 640.0, 480.0 ],
						"bglocked" : 0,
						"openinpresentation" : 0,
						"default_fontsize" : 12.0,
						"default_fontface" : 0,
						"default_fontname" : "Arial",
						"gridonopen" : 1,
						"gridsize" : [ 15.0, 15.0 ],
						"gridsnaponopen" : 1,
						"objectsnaponopen" : 1,
						"statusbarvisible" : 2,
						"toolbarvisible" : 1,
						"lefttoolbarpinned" : 0,
						"toptoolbarpinned" : 0,
						"righttoolbarpinned" : 0,
						"bottomtoolbarpinned" : 0,
						"toolbars_unpinned_last_save" : 15,
						"tallnewobj" : 0,
						"boxanimatetime" : 200,
						"enablehscroll" : 1,
						"enablevscroll" : 1,
						"devicewidth" : 0.0,
						"description" : "",
						"digest" : "",
						"tags" : "",
						"style" : "",
						"subpatcher_template" : "no-menus",
						"boxes" : [ 							{
								"box" : 								{
									"fontface" : 0,
									"fontsize" : 12.0,
									"id" : "obj-60",
									"linecount" : 15,
									"maxclass" : "o.compose",
									"numinlets" : 2,
									"numoutlets" : 1,
									"outlettype" : [ "" ],
									"patching_rect" : [ 50.0, 100.0, 527.0, 214.0 ],
									"saved_bundle_data" : [ 35, 98, 117, 110, 100, 108, 101, 0, 0, 0, 0, 0, 0, 0, 0, 0, 0, 0, 0, 68, 47, 117, 112, 47, 102, 117, 110, 99, 47, 118, 97, 108, 117, 101, 0, 0, 44, 100, 100, 100, 100, 100, 0, 0, 0, 0, 0, 0, 0, 0, 0, 0, 63, -16, 0, 0, 0, 0, 0, 0, 63, -46, -86, -84, 32, 0, 0, 0, 63, -68, -13, -53, 64, 0, 0, 0, 0, 0, 0, 0, 0, 0, 0, 0, 2, 0, -105, 90, 0, 0, 0, 72, 47, 117, 112, 47, 102, 117, 110, 99, 47, 100, 101, 108, 116, 97, 84, 105, 109, 101, 0, 0, 44, 100, 100, 100, 100, 100, 0, 0, 0, 0, 0, 0, 0, 0, 0, 0, 63, -48, 25, 113, -64, 0, 0, 0, 0, 0, 0, 0, 0, 0, 0, 0, 63, -35, 4, -60, -128, 0, 0, 0, 63, -46, -31, -55, -64, 0, 0, 0, 74, 90, 93, 27, 0, 0, 0, 68, 47, 117, 112, 47, 102, 117, 110, 99, 47, 99, 117, 114, 118, 101, 0, 0, 44, 100, 100, 100, 100, 100, 0, 0, 0, 0, 0, 0, 0, 0, 0, 0, 63, -31, -62, -113, 96, 0, 0, 0, 0, 0, 0, 0, 0, 0, 0, 0, 0, 0, 0, 0, 0, 0, 0, 0, 63, -31, -103, -103, -96, 0, 0, 0, 0, 0, 0, 0, 0, 0, 0, 72, 47, 100, 111, 119, 110, 47, 102, 117, 110, 99, 47, 118, 97, 108, 117, 101, 0, 0, 0, 0, 44, 100, 100, 100, 100, 100, 0, 0, 0, 0, 0, 0, 0, 0, 0, 0, 63, -16, 0, 0, 0, 0, 0, 0, 63, -68, -13, -53, 64, 0, 0, 0, 63, -16, 0, 0, 0, 0, 0, 0, 0, 0, 0, 0, 0, 0, 0, 0, 2, 0, -105, 90, 0, 0, 0, 76, 47, 100, 111, 119, 110, 47, 102, 117, 110, 99, 47, 100, 101, 108, 116, 97, 84, 105, 109, 101, 0, 0, 0, 0, 44, 100, 100, 100, 100, 100, 0, 0, 0, 0, 0, 0, 0, 0, 0, 0, 0, 0, 0, 0, 0, 0, 0, 0, 63, -59, -35, 1, 0, 0, 0, 0, 63, -24, 63, -102, 64, 0, 0, 0, 63, -78, 73, 41, 0, 0, 0, 0, 74, 90, 93, 27, 0, 0, 0, 72, 47, 100, 111, 119, 110, 47, 102, 117, 110, 99, 47, 99, 117, 114, 118, 101, 0, 0, 0, 0, 44, 100, 100, 100, 100, 100, 0, 0, 0, 0, 0, 0, 0, 0, 0, 0, 63, -31, -62, -113, 96, 0, 0, 0, -65, -28, -52, -52, -64, 0, 0, 0, 63, -20, -52, -52, -64, 0, 0, 0, 63, -31, -103, -103, -96, 0, 0, 0, 0, 0, 0, 0, 0, 0, 0, 72, 47, 108, 101, 102, 116, 47, 102, 117, 110, 99, 47, 118, 97, 108, 117, 101, 0, 0, 0, 0, 44, 100, 100, 100, 100, 100, 0, 0, 0, 0, 0, 0, 0, 0, 0, 0, 63, -16, 0, 0, 0, 0, 0, 0, 63, -57, -98, 123, -128, 0, 0, 0, 63, -110, 73, 33, -64, 0, 0, 0, 0, 0, 0, 0, 0, 0, 0, 0, 2, 0, -105, 90, 0, 0, 0, 76, 47, 108, 101, 102, 116, 47, 102, 117, 110, 99, 47, 100, 101, 108, 116, 97, 84, 105, 109, 101, 0, 0, 0, 0, 44, 100, 100, 100, 100, 100, 0, 0, 0, 0, 0, 0, 0, 0, 0, 0, 0, 0, 0, 0, 0, 0, 0, 0, 63, -72, -91, 94, 0, 0, 0, 0, 63, -31, 74, -68, 64, 0, 0, 0, 63, -41, 65, 49, -128, 0, 0, 0, 74, 90, 93, 27, 0, 0, 0, 72, 47, 108, 101, 102, 116, 47, 102, 117, 110, 99, 47, 99, 117, 114, 118, 101, 0, 0, 0, 0, 44, 100, 100, 100, 100, 100, 0, 0, 0, 0, 0, 0, 0, 0, 0, 0, 63, -31, -62, -113, 96, 0, 0, 0, 0, 0, 0, 0, 0, 0, 0, 0, 0, 0, 0, 0, 0, 0, 0, 0, 63, -31, -103, -103, -96, 0, 0, 0, 0, 0, 0, 0, 0, 0, 0, 72, 47, 114, 105, 103, 104, 116, 47, 102, 117, 110, 99, 47, 118, 97, 108, 117, 101, 0, 0, 0, 44, 100, 100, 100, 100, 100, 0, 0, 0, 0, 0, 0, 0, 0, 0, 0, 63, -57, -98, 123, -128, 0, 0, 0, 63, -47, 36, -111, -96, 0, 0, 0, 63, -16, 0, 0, 0, 0, 0, 0, 0, 0, 0, 0, 0, 0, 0, 0, 2, 0, -105, 90, 0, 0, 0, 76, 47, 114, 105, 103, 104, 116, 47, 102, 117, 110, 99, 47, 100, 101, 108, 116, 97, 84, 105, 109, 101, 0, 0, 0, 44, 100, 100, 100, 100, 100, 0, 0, 0, 0, 0, 0, 0, 0, 0, 0, 63, -29, 46, 28, -32, 0, 0, 0, 63, -47, 23, -37, 0, 0, 0, 0, 63, -66, 54, 8, 0, 0, 0, 0, 63, -113, -51, 40, 0, 0, 0, 0, 74, 90, 93, 27, 0, 0, 0, 72, 47, 114, 105, 103, 104, 116, 47, 102, 117, 110, 99, 47, 99, 117, 114, 118, 101, 0, 0, 0, 44, 100, 100, 100, 100, 100, 0, 0, 0, 0, 0, 0, 0, 0, 0, 0, 63, -31, -62, -113, 96, 0, 0, 0, 0, 0, 0, 0, 0, 0, 0, 0, 63, -26, 102, 102, 96, 0, 0, 0, -65, -21, 10, 61, -128, 0, 0, 0, 0, 0, 0, 0, 0, 0, 0, 72, 47, 99, 101, 110, 116, 101, 114, 47, 102, 117, 110, 99, 47, 118, 97, 108, 117, 101, 0, 0, 44, 100, 100, 100, 100, 100, 0, 0, 0, 0, 0, 0, 0, 0, 0, 0, 63, -40, -61, 13, 64, 0, 0, 0, 63, -19, -25, -98, -32, 0, 0, 0, 63, -43, -74, -36, -96, 0, 0, 0, 0, 0, 0, 0, 0, 0, 0, 0, 2, 0, -105, 90, 0, 0, 0, 76, 47, 99, 101, 110, 116, 101, 114, 47, 102, 117, 110, 99, 47, 100, 101, 108, 116, 97, 84, 105, 109, 101, 0, 0, 44, 100, 100, 100, 100, 100, 0, 0, 0, 0, 0, 0, 0, 0, 0, 0, 63, -53, 7, -14, 64, 0, 0, 0, 63, -46, 124, 6, -32, 0, 0, 0, 63, -54, 60, 108, -128, 0, 0, 0, 63, -46, -31, -55, -64, 0, 0, 0, 74, 90, 93, 27, 0, 0, 0, 72, 47, 99, 101, 110, 116, 101, 114, 47, 102, 117, 110, 99, 47, 99, 117, 114, 118, 101, 0, 0, 44, 100, 100, 100, 100, 100, 0, 0, 0, 0, 0, 0, 0, 0, 0, 0, 0, 0, 0, 0, 0, 0, 0, 0, 0, 0, 0, 0, 0, 0, 0, 0, 63, -45, 51, 51, 64, 0, 0, 0, -65, -42, 102, 102, 96, 0, 0, 0, 0, 0, 0, 0 ],
									"saved_bundle_length" : 1164,
									"text" : "/up/func/value : [0., 1., 0.291667, 0.113095, 0.],\n/up/func/deltaTime : [0., 0.251553, 0., 0.453416, 0.295031],\n/up/func/curve : [0., 0.555, 0., 0., 0.55],\n/down/func/value : [0., 1., 0.113095, 1., 0.],\n/down/func/deltaTime : [0., 0., 0.170807, 0.757764, 0.0714288],\n/down/func/curve : [0., 0.555, -0.65, 0.9, 0.55],\n/left/func/value : [0., 1., 0.184524, 0.0178571, 0.],\n/left/func/deltaTime : [0., 0., 0.0962733, 0.540373, 0.363354],\n/left/func/curve : [0., 0.555, 0., 0., 0.55],\n/right/func/value : [0., 0.184524, 0.267857, 1., 0.],\n/right/func/deltaTime : [0., 0.599379, 0.267081, 0.118012, 0.015528],\n/right/func/curve : [0., 0.555, 0., 0.7, -0.845],\n/center/func/value : [0., 0.386905, 0.934524, 0.339286, 0.],\n/center/func/deltaTime : [0., 0.21118, 0.28882, 0.204969, 0.295031],\n/center/func/curve : [0., 0., 0., 0.3, -0.35]",
									"textcolor" : [ 0.188, 0.188, 0.188, 1.0 ]
								}

							}
, 							{
								"box" : 								{
									"comment" : "",
									"id" : "obj-61",
									"maxclass" : "inlet",
									"numinlets" : 0,
									"numoutlets" : 1,
									"outlettype" : [ "" ],
									"patching_rect" : [ 558.0, 40.0, 30.0, 30.0 ],
									"style" : ""
								}

							}
 ],
						"lines" : [ 							{
								"patchline" : 								{
									"destination" : [ "obj-60", 1 ],
									"disabled" : 0,
									"hidden" : 0,
									"source" : [ "obj-61", 0 ]
								}

							}
 ]
					}
,
					"patching_rect" : [ 417.5, 357.0, 19.0, 22.0 ],
					"saved_object_attributes" : 					{
						"description" : "",
						"digest" : "",
						"globalpatchername" : "",
						"style" : "",
						"tags" : ""
					}
,
					"style" : "",
					"text" : "p"
				}

			}
, 			{
				"box" : 				{
					"id" : "obj-59",
					"maxclass" : "newobj",
					"numinlets" : 1,
					"numoutlets" : 1,
					"outlettype" : [ "bang" ],
					"patching_rect" : [ 484.5, 46.0, 60.0, 22.0 ],
					"style" : "",
					"text" : "loadbang"
				}

			}
, 			{
				"box" : 				{
					"fontface" : 0,
					"fontsize" : 12.0,
					"id" : "obj-57",
					"linecount" : 3,
					"maxclass" : "o.compose",
					"numinlets" : 2,
					"numoutlets" : 1,
					"outlettype" : [ "" ],
					"patching_rect" : [ 527.5, 535.0, 484.0, 51.0 ],
					"saved_bundle_data" : [ 35, 98, 117, 110, 100, 108, 101, 0, 0, 0, 0, 0, 0, 0, 0, 0, 0, 0, 0, 60, 47, 118, 97, 108, 117, 101, 0, 0, 44, 100, 100, 100, 100, 100, 0, 0, 0, 0, 0, 0, 0, 0, 0, 0, 63, -40, -47, 102, 26, -85, 31, -8, 63, -19, -39, -61, -118, -88, -66, 0, 63, -43, -58, -43, 6, -41, -110, 69, 0, 0, 0, 0, 0, 0, 0, 0, -1, 127, 0, 0, 0, 0, 0, 64, 47, 100, 101, 108, 116, 97, 84, 105, 109, 101, 0, 0, 44, 100, 100, 100, 100, 100, 0, 0, 0, 0, 0, 0, 0, 0, 0, 0, 63, -53, 4, 57, -118, 121, -115, -10, 63, -46, 120, 18, 77, -60, -121, 92, 63, -54, 84, -101, 11, 87, 121, -47, 63, -46, -37, -125, 103, -100, -56, 12, -64, 75, -43, 81, 0, 0, 0, 60, 47, 99, 117, 114, 118, 101, 0, 0, 44, 100, 100, 100, 100, 100, 0, 0, 0, 0, 0, 0, 0, 0, 0, 0, 63, 84, -114, -16, -117, 85, 122, 101, -65, 66, -45, 98, -5, -62, -97, 74, 63, -45, 58, 18, 110, -100, 124, 22, -65, -42, 74, -19, -63, -1, 101, 125, -1, 127, 0, 0 ],
					"saved_bundle_length" : 212,
					"text" : "/value : [0., 0.387781, 0.932832, 0.340261, 0.],\n/deltaTime : [0., 0.211066, 0.288579, 0.205707, 0.294648],\n/curve : [0., 0.00125478, -0.000574516, 0.300419, -0.348323]",
					"textcolor" : [ 0.188, 0.188, 0.188, 1.0 ]
				}

			}
, 			{
				"box" : 				{
					"id" : "obj-56",
					"maxclass" : "newobj",
					"numinlets" : 1,
					"numoutlets" : 2,
					"outlettype" : [ "", "FullPacket" ],
					"patching_rect" : [ 137.5, 421.0, 129.0, 22.0 ],
					"style" : "",
					"text" : "o.route /weighted/func"
				}

			}
, 			{
				"box" : 				{
					"bgmode" : 0,
					"border" : 0,
					"clickthrough" : 0,
					"enablehscroll" : 0,
					"enablevscroll" : 0,
					"id" : "obj-3",
					"lockeddragscroll" : 0,
					"maxclass" : "bpatcher",
					"name" : "m158.o.function.maxpat",
					"numinlets" : 1,
					"numoutlets" : 1,
					"offset" : [ 0.0, 0.0 ],
					"outlettype" : [ "FullPacket" ],
					"patching_rect" : [ 137.5, 514.0, 337.0, 113.0 ],
					"viewvisibility" : 1
				}

			}
, 			{
				"box" : 				{
					"id" : "obj-54",
					"maxclass" : "button",
					"numinlets" : 1,
					"numoutlets" : 1,
					"outlettype" : [ "bang" ],
					"patching_rect" : [ 60.0, 189.0, 24.0, 24.0 ],
					"style" : ""
				}

			}
, 			{
				"box" : 				{
					"id" : "obj-52",
					"maxclass" : "newobj",
					"numinlets" : 1,
					"numoutlets" : 1,
					"outlettype" : [ "FullPacket" ],
					"patcher" : 					{
						"fileversion" : 1,
						"appversion" : 						{
							"major" : 7,
							"minor" : 0,
							"revision" : 6,
							"architecture" : "x64",
							"modernui" : 1
						}
,
						"rect" : [ 0.0, 45.0, 941.0, 851.0 ],
						"bglocked" : 0,
						"openinpresentation" : 0,
						"default_fontsize" : 12.0,
						"default_fontface" : 0,
						"default_fontname" : "Arial",
						"gridonopen" : 1,
						"gridsize" : [ 15.0, 15.0 ],
						"gridsnaponopen" : 1,
						"objectsnaponopen" : 1,
						"statusbarvisible" : 2,
						"toolbarvisible" : 1,
						"lefttoolbarpinned" : 0,
						"toptoolbarpinned" : 0,
						"righttoolbarpinned" : 0,
						"bottomtoolbarpinned" : 0,
						"toolbars_unpinned_last_save" : 15,
						"tallnewobj" : 0,
						"boxanimatetime" : 200,
						"enablehscroll" : 1,
						"enablevscroll" : 1,
						"devicewidth" : 0.0,
						"description" : "",
						"digest" : "",
						"tags" : "",
						"style" : "",
						"subpatcher_template" : "no-menus",
						"boxes" : [ 							{
								"box" : 								{
									"fontface" : 0,
									"fontsize" : 12.0,
									"id" : "obj-35",
									"linecount" : 44,
									"maxclass" : "o.expr.codebox",
									"numinlets" : 1,
									"numoutlets" : 2,
									"outlettype" : [ "FullPacket", "FullPacket" ],
									"patching_rect" : [ 50.0, 101.0, 842.0, 616.0 ],
									"text" : "# default\n/up/pos = [0., 1.],\n/down/pos = [0., -1.],\n/right/pos = [1., 0.],\n/left/pos = [-1., 0.],\n/center/pos = [0., 0.],\n/npoints = 5,\n# ... you could add other points of course!\n\n\n# get distances\n/delta/up = [ /up/pos[[0]] - /joystick/horizontal, /up/pos[[1]] - /joystick/vertical ],\n/distance/up = sqrt( /delta/up[[0]]*/delta/up[[0]] + /delta/up[[1]]*/delta/up[[1]] ),\n\n/delta/down = [ /down/pos[[0]] - /joystick/horizontal, /down/pos[[1]] - /joystick/vertical ],\n/distance/down = sqrt( /delta/down[[0]]*/delta/down[[0]] + /delta/down[[1]]*/delta/down[[1]] ),\n\n/delta/left = [ /left/pos[[0]] - /joystick/horizontal, /left/pos[[1]] - /joystick/vertical ],\n/distance/left = sqrt( /delta/left[[0]]*/delta/left[[0]] + /delta/left[[1]]*/delta/left[[1]] ),\n\n/delta/right = [ /right/pos[[0]] - /joystick/horizontal, /right/pos[[1]] - /joystick/vertical ],\n/distance/right = sqrt( /delta/right[[0]]*/delta/right[[0]] + /delta/right[[1]]*/delta/right[[1]] ),\n\n/delta/center = [ /center/pos[[0]] - /joystick/horizontal, /center/pos[[1]] - /joystick/vertical ],\n/distance/center = sqrt( /delta/center[[0]]*/delta/center[[0]] + /delta/center[[1]]*/delta/center[[1]] ),\n\n# make a list\n/distances = [ /distance/up, /distance/down, /distance/left, /distance/right, /distance/center ] ,\n\n# get inverse distance\n/inverse/dist = 1. / /distances,\n\n# normalize the list\n/norm/dist = (/inverse/dist - min(/inverse/dist)) / ( max(/inverse/dist) - min(/inverse/dist) ),\n\n# make the normalized list add up to 1\n/weights = /norm/dist / sum(/norm/dist),\n\n# rename\n/up/weight = /weights[[0]],\n/down/weight = /weights[[1]],\n/left/weight = /weights[[2]],\n/right/weight = /weights[[3]],\n/center/weight = /weights[[4]]",
									"textcolor" : [ 0.0, 0.0, 0.0, 1.0 ]
								}

							}
, 							{
								"box" : 								{
									"comment" : "",
									"id" : "obj-39",
									"maxclass" : "inlet",
									"numinlets" : 0,
									"numoutlets" : 1,
									"outlettype" : [ "FullPacket" ],
									"patching_rect" : [ 50.0, 3.0, 30.0, 30.0 ],
									"style" : ""
								}

							}
, 							{
								"box" : 								{
									"comment" : "",
									"id" : "obj-40",
									"maxclass" : "outlet",
									"numinlets" : 1,
									"numoutlets" : 0,
									"patching_rect" : [ 50.0, 786.0, 30.0, 30.0 ],
									"style" : ""
								}

							}
 ],
						"lines" : [ 							{
								"patchline" : 								{
									"destination" : [ "obj-40", 0 ],
									"disabled" : 0,
									"hidden" : 0,
									"source" : [ "obj-35", 0 ]
								}

							}
, 							{
								"patchline" : 								{
									"destination" : [ "obj-35", 0 ],
									"disabled" : 0,
									"hidden" : 0,
									"source" : [ "obj-39", 0 ]
								}

							}
 ]
					}
,
					"patching_rect" : [ 137.5, 231.0, 109.0, 22.0 ],
					"saved_object_attributes" : 					{
						"description" : "",
						"digest" : "",
						"globalpatchername" : "",
						"style" : "",
						"tags" : ""
					}
,
					"style" : "",
					"text" : "p distance weights"
				}

			}
, 			{
				"box" : 				{
					"id" : "obj-51",
					"maxclass" : "newobj",
					"numinlets" : 1,
					"numoutlets" : 1,
					"outlettype" : [ "FullPacket" ],
					"patcher" : 					{
						"fileversion" : 1,
						"appversion" : 						{
							"major" : 7,
							"minor" : 0,
							"revision" : 6,
							"architecture" : "x64",
							"modernui" : 1
						}
,
						"rect" : [ 252.0, 77.0, 1188.0, 851.0 ],
						"bglocked" : 0,
						"openinpresentation" : 0,
						"default_fontsize" : 12.0,
						"default_fontface" : 0,
						"default_fontname" : "Arial",
						"gridonopen" : 1,
						"gridsize" : [ 15.0, 15.0 ],
						"gridsnaponopen" : 1,
						"objectsnaponopen" : 1,
						"statusbarvisible" : 2,
						"toolbarvisible" : 1,
						"lefttoolbarpinned" : 0,
						"toptoolbarpinned" : 0,
						"righttoolbarpinned" : 0,
						"bottomtoolbarpinned" : 0,
						"toolbars_unpinned_last_save" : 15,
						"tallnewobj" : 0,
						"boxanimatetime" : 200,
						"enablehscroll" : 1,
						"enablevscroll" : 1,
						"devicewidth" : 0.0,
						"description" : "",
						"digest" : "",
						"tags" : "",
						"style" : "",
						"subpatcher_template" : "no-menus",
						"boxes" : [ 							{
								"box" : 								{
									"id" : "obj-5",
									"maxclass" : "comment",
									"numinlets" : 1,
									"numoutlets" : 0,
									"patching_rect" : [ 176.0, 178.0, 271.0, 20.0 ],
									"style" : "",
									"text" : "multiply each of the function values by the weight"
								}

							}
, 							{
								"box" : 								{
									"id" : "obj-1",
									"maxclass" : "newobj",
									"numinlets" : 1,
									"numoutlets" : 2,
									"outlettype" : [ "FullPacket", "FullPacket" ],
									"patching_rect" : [ 50.0, 92.0, 755.0, 22.0 ],
									"style" : "",
									"text" : "o.cond exists(/up/func/value) && exists(/down/func/value) && exists(/left/func/value) && exists(/right/func/value) && exists(/center/func/value)"
								}

							}
, 							{
								"box" : 								{
									"fontface" : 0,
									"fontsize" : 12.0,
									"id" : "obj-35",
									"linecount" : 26,
									"maxclass" : "o.expr.codebox",
									"numinlets" : 1,
									"numoutlets" : 2,
									"outlettype" : [ "FullPacket", "FullPacket" ],
									"patching_rect" : [ 50.0, 225.0, 799.0, 385.0 ],
									"text" : "/weighted/up/func/value = /up/func/value * /up/weight,\n/weighted/down/func/value = /down/func/value * /down/weight,\n/weighted/left/func/value = /left/func/value * /left/weight,\n/weighted/right/func/value = /right/func/value * /right/weight,\n/weighted/center/func/value = /center/func/value * /center/weight,\n\n/weighted/up/func/deltaTime = /up/func/deltaTime * /up/weight,\n/weighted/down/func/deltaTime = /down/func/deltaTime * /down/weight,\n/weighted/left/func/deltaTime = /left/func/deltaTime * /left/weight,\n/weighted/right/func/deltaTime = /right/func/deltaTime * /right/weight,\n/weighted/center/func/deltaTime = /center/func/deltaTime * /center/weight,\n\n/weighted/up/func/curve = /up/func/curve * /up/weight,\n/weighted/down/func/curve = /down/func/curve * /down/weight,\n/weighted/left/func/curve = /left/func/curve * /left/weight,\n/weighted/right/func/curve = /right/func/curve * /right/weight,\n/weighted/center/func/curve = /center/func/curve * /center/weight,\n\n/weighted/func/value = /weighted/up/func/value + /weighted/down/func/value + /weighted/left/func/value + /weighted/right/func/value + /weighted/center/func/value, \n\n/weighted/func/deltaTime = /weighted/up/func/deltaTime + /weighted/down/func/deltaTime + /weighted/left/func/deltaTime + /weighted/right/func/deltaTime + /weighted/center/func/deltaTime,\n\n/weighted/func/curve = /weighted/up/func/curve + /weighted/down/func/curve + /weighted/left/func/curve + /weighted/right/func/deltaTime + /weighted/center/func/curve\n",
									"textcolor" : [ 0.0, 0.0, 0.0, 1.0 ]
								}

							}
, 							{
								"box" : 								{
									"comment" : "",
									"id" : "obj-39",
									"maxclass" : "inlet",
									"numinlets" : 0,
									"numoutlets" : 1,
									"outlettype" : [ "FullPacket" ],
									"patching_rect" : [ 50.0, 40.0, 30.0, 30.0 ],
									"style" : ""
								}

							}
, 							{
								"box" : 								{
									"comment" : "",
									"id" : "obj-40",
									"maxclass" : "outlet",
									"numinlets" : 1,
									"numoutlets" : 0,
									"patching_rect" : [ 50.0, 786.0, 30.0, 30.0 ],
									"style" : ""
								}

							}
 ],
						"lines" : [ 							{
								"patchline" : 								{
									"destination" : [ "obj-35", 0 ],
									"disabled" : 0,
									"hidden" : 0,
									"source" : [ "obj-1", 0 ]
								}

							}
, 							{
								"patchline" : 								{
									"destination" : [ "obj-40", 0 ],
									"disabled" : 0,
									"hidden" : 0,
									"source" : [ "obj-35", 0 ]
								}

							}
, 							{
								"patchline" : 								{
									"destination" : [ "obj-1", 0 ],
									"disabled" : 0,
									"hidden" : 0,
									"source" : [ "obj-39", 0 ]
								}

							}
 ]
					}
,
					"patching_rect" : [ 137.5, 377.0, 129.0, 22.0 ],
					"saved_object_attributes" : 					{
						"description" : "",
						"digest" : "",
						"globalpatchername" : "",
						"style" : "",
						"tags" : ""
					}
,
					"style" : "",
					"text" : "p interpolate-functions"
				}

			}
, 			{
				"box" : 				{
					"id" : "obj-50",
					"maxclass" : "newobj",
					"numinlets" : 1,
					"numoutlets" : 1,
					"outlettype" : [ "FullPacket" ],
					"patcher" : 					{
						"fileversion" : 1,
						"appversion" : 						{
							"major" : 7,
							"minor" : 0,
							"revision" : 6,
							"architecture" : "x64",
							"modernui" : 1
						}
,
						"rect" : [ 25.0, 70.0, 1023.0, 428.0 ],
						"bglocked" : 0,
						"openinpresentation" : 0,
						"default_fontsize" : 12.0,
						"default_fontface" : 0,
						"default_fontname" : "Arial",
						"gridonopen" : 1,
						"gridsize" : [ 15.0, 15.0 ],
						"gridsnaponopen" : 1,
						"objectsnaponopen" : 1,
						"statusbarvisible" : 2,
						"toolbarvisible" : 1,
						"lefttoolbarpinned" : 0,
						"toptoolbarpinned" : 0,
						"righttoolbarpinned" : 0,
						"bottomtoolbarpinned" : 0,
						"toolbars_unpinned_last_save" : 15,
						"tallnewobj" : 0,
						"boxanimatetime" : 200,
						"enablehscroll" : 1,
						"enablevscroll" : 1,
						"devicewidth" : 0.0,
						"description" : "",
						"digest" : "",
						"tags" : "",
						"style" : "",
						"subpatcher_template" : "no-menus",
						"boxes" : [ 							{
								"box" : 								{
									"fontface" : 0,
									"fontsize" : 12.0,
									"id" : "obj-47",
									"linecount" : 3,
									"maxclass" : "o.expr.codebox",
									"numinlets" : 1,
									"numoutlets" : 2,
									"outlettype" : [ "FullPacket", "FullPacket" ],
									"patching_rect" : [ 50.0, 101.0, 798.0, 73.0 ],
									"text" : "/joystick/theta = atan2( /joystick/vertical, /joystick/horizontal ),\n/joystick/angle = (/joystick/theta / pi()) * 180.,\n/joystick/radius = sqrt( /joystick/horizontal*/joystick/horizontal + /joystick/vertical*/joystick/vertical )\n",
									"textcolor" : [ 0.0, 0.0, 0.0, 1.0 ]
								}

							}
, 							{
								"box" : 								{
									"comment" : "",
									"id" : "obj-48",
									"maxclass" : "inlet",
									"numinlets" : 0,
									"numoutlets" : 1,
									"outlettype" : [ "FullPacket" ],
									"patching_rect" : [ 50.0, 40.0, 30.0, 30.0 ],
									"style" : ""
								}

							}
, 							{
								"box" : 								{
									"comment" : "",
									"id" : "obj-49",
									"maxclass" : "outlet",
									"numinlets" : 1,
									"numoutlets" : 0,
									"patching_rect" : [ 50.0, 233.0, 30.0, 30.0 ],
									"style" : ""
								}

							}
 ],
						"lines" : [ 							{
								"patchline" : 								{
									"destination" : [ "obj-49", 0 ],
									"disabled" : 0,
									"hidden" : 0,
									"source" : [ "obj-47", 0 ]
								}

							}
, 							{
								"patchline" : 								{
									"destination" : [ "obj-47", 0 ],
									"disabled" : 0,
									"hidden" : 0,
									"source" : [ "obj-48", 0 ]
								}

							}
 ]
					}
,
					"patching_rect" : [ 137.5, 199.0, 118.0, 22.0 ],
					"saved_object_attributes" : 					{
						"description" : "",
						"digest" : "",
						"globalpatchername" : "",
						"style" : "",
						"tags" : ""
					}
,
					"style" : "",
					"text" : "p calc-joystick angle"
				}

			}
, 			{
				"box" : 				{
					"id" : "obj-42",
					"maxclass" : "newobj",
					"numinlets" : 2,
					"numoutlets" : 2,
					"outlettype" : [ "FullPacket", "FullPacket" ],
					"patching_rect" : [ 137.5, 127.0, 100.0, 22.0 ],
					"style" : "",
					"text" : "o.io.esplora"
				}

			}
, 			{
				"box" : 				{
					"fontface" : 0,
					"fontsize" : 12.0,
					"id" : "obj-34",
					"linecount" : 15,
					"maxclass" : "o.compose",
					"numinlets" : 2,
					"numoutlets" : 1,
					"outlettype" : [ "" ],
					"patching_rect" : [ 484.5, 83.5, 527.0, 214.0 ],
					"saved_bundle_data" : [ 35, 98, 117, 110, 100, 108, 101, 0, 0, 0, 0, 0, 0, 0, 0, 0, 0, 0, 0, 64, 47, 117, 112, 47, 102, 117, 110, 99, 47, 118, 97, 108, 117, 101, 0, 0, 44, 100, 100, 100, 100, 100, 0, 0, 0, 0, 0, 0, 0, 0, 0, 0, 63, -16, 0, 0, 0, 0, 0, 0, 63, -46, -86, -84, 16, -108, -94, -70, 63, -68, -13, -53, 62, 87, 83, -92, 0, 0, 0, 0, 0, 0, 0, 0, 0, 0, 0, 68, 47, 117, 112, 47, 102, 117, 110, 99, 47, 100, 101, 108, 116, 97, 84, 105, 109, 101, 0, 0, 44, 100, 100, 100, 100, 100, 0, 0, 0, 0, 0, 0, 0, 0, 0, 0, 63, -48, 25, 113, -63, 13, 123, -22, 0, 0, 0, 0, 0, 0, 0, 0, 63, -35, 4, -60, -118, -34, -21, -77, 63, -46, -31, -55, -76, 19, -104, 99, 0, 0, 0, 64, 47, 117, 112, 47, 102, 117, 110, 99, 47, 99, 117, 114, 118, 101, 0, 0, 44, 100, 100, 100, 100, 100, 0, 0, 0, 0, 0, 0, 0, 0, 0, 0, 63, -31, -62, -113, 92, 40, -11, -61, 0, 0, 0, 0, 0, 0, 0, 0, 0, 0, 0, 0, 0, 0, 0, 0, 63, -31, -103, -103, -103, -103, -103, -102, 0, 0, 0, 68, 47, 100, 111, 119, 110, 47, 102, 117, 110, 99, 47, 118, 97, 108, 117, 101, 0, 0, 0, 0, 44, 100, 100, 100, 100, 100, 0, 0, 0, 0, 0, 0, 0, 0, 0, 0, 63, -16, 0, 0, 0, 0, 0, 0, 63, -68, -13, -53, 62, 87, 83, -92, 63, -16, 0, 0, 0, 0, 0, 0, 0, 0, 0, 0, 0, 0, 0, 0, 0, 0, 0, 72, 47, 100, 111, 119, 110, 47, 102, 117, 110, 99, 47, 100, 101, 108, 116, 97, 84, 105, 109, 101, 0, 0, 0, 0, 44, 100, 100, 100, 100, 100, 0, 0, 0, 0, 0, 0, 0, 0, 0, 0, 0, 0, 0, 0, 0, 0, 0, 0, 63, -59, -35, 0, -9, 118, -60, -126, 63, -24, 63, -102, 73, -62, -63, -79, 63, -78, 73, 40, 103, -2, 22, 27, 0, 0, 0, 68, 47, 100, 111, 119, 110, 47, 102, 117, 110, 99, 47, 99, 117, 114, 118, 101, 0, 0, 0, 0, 44, 100, 100, 100, 100, 100, 0, 0, 0, 0, 0, 0, 0, 0, 0, 0, 63, -31, -62, -113, 92, 40, -11, -61, -65, -28, -52, -52, -52, -52, -52, -51, 63, -20, -52, -52, -52, -52, -52, -51, 63, -31, -103, -103, -103, -103, -103, -102, 0, 0, 0, 68, 47, 108, 101, 102, 116, 47, 102, 117, 110, 99, 47, 118, 97, 108, 117, 101, 0, 0, 0, 0, 44, 100, 100, 100, 100, 100, 0, 0, 0, 0, 0, 0, 0, 0, 0, 0, 63, -16, 0, 0, 0, 0, 0, 0, 63, -57, -98, 123, -128, -87, -34, -117, 63, -110, 73, 33, -78, 1, 111, 108, 0, 0, 0, 0, 0, 0, 0, 0, 0, 0, 0, 72, 47, 108, 101, 102, 116, 47, 102, 117, 110, 99, 47, 100, 101, 108, 116, 97, 84, 105, 109, 101, 0, 0, 0, 0, 44, 100, 100, 100, 100, 100, 0, 0, 0, 0, 0, 0, 0, 0, 0, 0, 0, 0, 0, 0, 0, 0, 0, 0, 63, -72, -91, 93, -14, -6, 94, 0, 63, -31, 74, -68, 81, 84, -122, 106, 63, -41, 65, 49, 34, -73, -70, -19, 0, 0, 0, 68, 47, 108, 101, 102, 116, 47, 102, 117, 110, 99, 47, 99, 117, 114, 118, 101, 0, 0, 0, 0, 44, 100, 100, 100, 100, 100, 0, 0, 0, 0, 0, 0, 0, 0, 0, 0, 63, -31, -62, -113, 92, 40, -11, -61, 0, 0, 0, 0, 0, 0, 0, 0, 0, 0, 0, 0, 0, 0, 0, 0, 63, -31, -103, -103, -103, -103, -103, -102, 0, 0, 0, 68, 47, 114, 105, 103, 104, 116, 47, 102, 117, 110, 99, 47, 118, 97, 108, 117, 101, 0, 0, 0, 44, 100, 100, 100, 100, 100, 0, 0, 0, 0, 0, 0, 0, 0, 0, 0, 63, -57, -98, 123, -128, -87, -34, -117, 63, -47, 36, -111, -81, -64, 76, -116, 63, -16, 0, 0, 0, 0, 0, 0, 0, 0, 0, 0, 0, 0, 0, 0, 0, 0, 0, 72, 47, 114, 105, 103, 104, 116, 47, 102, 117, 110, 99, 47, 100, 101, 108, 116, 97, 84, 105, 109, 101, 0, 0, 0, 44, 100, 100, 100, 100, 100, 0, 0, 0, 0, 0, 0, 0, 0, 0, 0, 63, -29, 46, 28, -34, 93, 24, 9, 63, -47, 23, -38, -24, 24, -126, -82, 63, -66, 54, 8, -48, -119, 25, -16, 63, -113, -51, 36, -31, 96, -40, -120, 0, 0, 0, 68, 47, 114, 105, 103, 104, 116, 47, 102, 117, 110, 99, 47, 99, 117, 114, 118, 101, 0, 0, 0, 44, 100, 100, 100, 100, 100, 0, 0, 0, 0, 0, 0, 0, 0, 0, 0, 63, -31, -62, -113, 92, 40, -11, -61, 0, 0, 0, 0, 0, 0, 0, 0, 63, -26, 102, 102, 102, 102, 102, 102, -65, -21, 10, 61, 112, -93, -41, 10, 0, 0, 0, 68, 47, 99, 101, 110, 116, 101, 114, 47, 102, 117, 110, 99, 47, 118, 97, 108, 117, 101, 0, 0, 44, 100, 100, 100, 100, 100, 0, 0, 0, 0, 0, 0, 0, 0, 0, 0, 63, -40, -61, 13, 48, 106, 43, 23, 63, -19, -25, -98, -32, 42, 119, -93, 63, -43, -74, -36, -96, 127, 102, -24, 0, 0, 0, 0, 0, 0, 0, 0, 0, 0, 0, 72, 47, 99, 101, 110, 116, 101, 114, 47, 102, 117, 110, 99, 47, 100, 101, 108, 116, 97, 84, 105, 109, 101, 0, 0, 44, 100, 100, 100, 100, 100, 0, 0, 0, 0, 0, 0, 0, 0, 0, 0, 63, -53, 7, -14, 60, -56, -34, 43, 63, -46, 124, 6, -31, -101, -112, -21, 63, -54, 60, 108, -105, -40, -49, 58, 63, -46, -31, -55, -76, 19, -104, 99, 0, 0, 0, 68, 47, 99, 101, 110, 116, 101, 114, 47, 102, 117, 110, 99, 47, 99, 117, 114, 118, 101, 0, 0, 44, 100, 100, 100, 100, 100, 0, 0, 0, 0, 0, 0, 0, 0, 0, 0, 0, 0, 0, 0, 0, 0, 0, 0, 0, 0, 0, 0, 0, 0, 0, 0, 63, -45, 51, 51, 51, 51, 51, 51, -65, -42, 102, 102, 102, 102, 102, 102 ],
					"saved_bundle_length" : 1104,
					"text" : "/up/func/value : [0., 1., 0.291667, 0.113095, 0.],\n/up/func/deltaTime : [0., 0.251553, 0., 0.453416, 0.295031],\n/up/func/curve : [0., 0.555, 0., 0., 0.55],\n/down/func/value : [0., 1., 0.113095, 1., 0.],\n/down/func/deltaTime : [0., 0., 0.170807, 0.757764, 0.0714288],\n/down/func/curve : [0., 0.555, -0.65, 0.9, 0.55],\n/left/func/value : [0., 1., 0.184524, 0.0178571, 0.],\n/left/func/deltaTime : [0., 0., 0.0962733, 0.540373, 0.363354],\n/left/func/curve : [0., 0.555, 0., 0., 0.55],\n/right/func/value : [0., 0.184524, 0.267857, 1., 0.],\n/right/func/deltaTime : [0., 0.599379, 0.267081, 0.118012, 0.015528],\n/right/func/curve : [0., 0.555, 0., 0.7, -0.845],\n/center/func/value : [0., 0.386905, 0.934524, 0.339286, 0.],\n/center/func/deltaTime : [0., 0.21118, 0.28882, 0.204969, 0.295031],\n/center/func/curve : [0., 0., 0., 0.3, -0.35]",
					"textcolor" : [ 0.188, 0.188, 0.188, 1.0 ]
				}

			}
, 			{
				"box" : 				{
					"id" : "obj-33",
					"maxclass" : "newobj",
					"numinlets" : 1,
					"numoutlets" : 1,
					"outlettype" : [ "" ],
					"patcher" : 					{
						"fileversion" : 1,
						"appversion" : 						{
							"major" : 7,
							"minor" : 0,
							"revision" : 6,
							"architecture" : "x64",
							"modernui" : 1
						}
,
						"rect" : [ 0.0, 45.0, 1440.0, 851.0 ],
						"bglocked" : 0,
						"openinpresentation" : 1,
						"default_fontsize" : 12.0,
						"default_fontface" : 0,
						"default_fontname" : "Arial",
						"gridonopen" : 1,
						"gridsize" : [ 15.0, 15.0 ],
						"gridsnaponopen" : 1,
						"objectsnaponopen" : 1,
						"statusbarvisible" : 2,
						"toolbarvisible" : 1,
						"lefttoolbarpinned" : 0,
						"toptoolbarpinned" : 0,
						"righttoolbarpinned" : 0,
						"bottomtoolbarpinned" : 0,
						"toolbars_unpinned_last_save" : 15,
						"tallnewobj" : 0,
						"boxanimatetime" : 200,
						"enablehscroll" : 1,
						"enablevscroll" : 1,
						"devicewidth" : 0.0,
						"description" : "",
						"digest" : "",
						"tags" : "",
						"style" : "",
						"subpatcher_template" : "no-menus",
						"boxes" : [ 							{
								"box" : 								{
									"id" : "obj-22",
									"maxclass" : "newobj",
									"numinlets" : 1,
									"numoutlets" : 1,
									"outlettype" : [ "bang" ],
									"patching_rect" : [ 867.0, 39.0, 60.0, 22.0 ],
									"style" : "",
									"text" : "loadbang"
								}

							}
, 							{
								"box" : 								{
									"bgcolor" : [ 0.0, 0.626398, 1.0, 0.58 ],
									"bgcolor2" : [ 0.290196, 0.309804, 0.301961, 1.0 ],
									"bgfillcolor_angle" : 270.0,
									"bgfillcolor_autogradient" : 0.0,
									"bgfillcolor_color" : [ 0.290196, 0.309804, 0.301961, 1.0 ],
									"bgfillcolor_color1" : [ 0.0, 0.626398, 1.0, 0.58 ],
									"bgfillcolor_color2" : [ 0.290196, 0.309804, 0.301961, 1.0 ],
									"bgfillcolor_proportion" : 0.39,
									"bgfillcolor_type" : "gradient",
									"gradient" : 1,
									"id" : "obj-21",
									"maxclass" : "message",
									"numinlets" : 2,
									"numoutlets" : 1,
									"outlettype" : [ "" ],
									"patching_rect" : [ 867.0, 74.0, 64.0, 22.0 ],
									"style" : "",
									"text" : "clickadd 0"
								}

							}
, 							{
								"box" : 								{
									"id" : "obj-18",
									"maxclass" : "newobj",
									"numinlets" : 1,
									"numoutlets" : 1,
									"outlettype" : [ "FullPacket" ],
									"patching_rect" : [ 867.0, 631.0, 94.0, 22.0 ],
									"style" : "",
									"text" : "o.prepend /func"
								}

							}
, 							{
								"box" : 								{
									"id" : "obj-16",
									"maxclass" : "newobj",
									"numinlets" : 1,
									"numoutlets" : 1,
									"outlettype" : [ "FullPacket" ],
									"patching_rect" : [ 1103.0, 352.0, 94.0, 22.0 ],
									"style" : "",
									"text" : "o.prepend /func"
								}

							}
, 							{
								"box" : 								{
									"id" : "obj-15",
									"maxclass" : "newobj",
									"numinlets" : 1,
									"numoutlets" : 1,
									"outlettype" : [ "FullPacket" ],
									"patching_rect" : [ 754.0, 352.0, 94.0, 22.0 ],
									"style" : "",
									"text" : "o.prepend /func"
								}

							}
, 							{
								"box" : 								{
									"id" : "obj-14",
									"maxclass" : "newobj",
									"numinlets" : 1,
									"numoutlets" : 1,
									"outlettype" : [ "FullPacket" ],
									"patching_rect" : [ 401.0, 352.0, 94.0, 22.0 ],
									"style" : "",
									"text" : "o.prepend /func"
								}

							}
, 							{
								"box" : 								{
									"id" : "obj-13",
									"maxclass" : "newobj",
									"numinlets" : 1,
									"numoutlets" : 1,
									"outlettype" : [ "FullPacket" ],
									"patching_rect" : [ 42.0, 352.0, 94.0, 22.0 ],
									"style" : "",
									"text" : "o.prepend /func"
								}

							}
, 							{
								"box" : 								{
									"id" : "obj-2",
									"maxclass" : "newobj",
									"numinlets" : 1,
									"numoutlets" : 2,
									"outlettype" : [ "", "FullPacket" ],
									"patching_rect" : [ 867.0, 478.0, 77.0, 22.0 ],
									"style" : "",
									"text" : "o.route /func"
								}

							}
, 							{
								"box" : 								{
									"id" : "obj-4",
									"maxclass" : "newobj",
									"numinlets" : 1,
									"numoutlets" : 1,
									"outlettype" : [ "FullPacket" ],
									"patching_rect" : [ 867.0, 672.0, 105.0, 22.0 ],
									"style" : "",
									"text" : "o.prepend /center"
								}

							}
, 							{
								"box" : 								{
									"bgmode" : 0,
									"border" : 0,
									"clickthrough" : 0,
									"enablehscroll" : 0,
									"enablevscroll" : 0,
									"id" : "obj-12",
									"lockeddragscroll" : 0,
									"maxclass" : "bpatcher",
									"name" : "m158.o.function.maxpat",
									"numinlets" : 1,
									"numoutlets" : 1,
									"offset" : [ 0.0, 0.0 ],
									"outlettype" : [ "FullPacket" ],
									"patching_rect" : [ 867.0, 508.0, 337.0, 113.0 ],
									"presentation" : 1,
									"presentation_rect" : [ 368.0, 205.0, 337.0, 113.0 ],
									"viewvisibility" : 1
								}

							}
, 							{
								"box" : 								{
									"id" : "obj-1",
									"maxclass" : "newobj",
									"numinlets" : 1,
									"numoutlets" : 6,
									"outlettype" : [ "", "", "", "", "", "FullPacket" ],
									"patching_rect" : [ 365.600006, 52.0, 196.0, 22.0 ],
									"style" : "",
									"text" : "o.route /up /down /left /right /center"
								}

							}
, 							{
								"box" : 								{
									"id" : "obj-29",
									"maxclass" : "newobj",
									"numinlets" : 1,
									"numoutlets" : 2,
									"outlettype" : [ "", "FullPacket" ],
									"patching_rect" : [ 401.0, 181.0, 77.0, 22.0 ],
									"style" : "",
									"text" : "o.route /func"
								}

							}
, 							{
								"box" : 								{
									"id" : "obj-28",
									"maxclass" : "newobj",
									"numinlets" : 1,
									"numoutlets" : 2,
									"outlettype" : [ "", "FullPacket" ],
									"patching_rect" : [ 1103.0, 181.0, 77.0, 22.0 ],
									"style" : "",
									"text" : "o.route /func"
								}

							}
, 							{
								"box" : 								{
									"id" : "obj-27",
									"maxclass" : "newobj",
									"numinlets" : 1,
									"numoutlets" : 2,
									"outlettype" : [ "", "FullPacket" ],
									"patching_rect" : [ 42.0, 189.0, 77.0, 22.0 ],
									"style" : "",
									"text" : "o.route /func"
								}

							}
, 							{
								"box" : 								{
									"id" : "obj-26",
									"maxclass" : "newobj",
									"numinlets" : 1,
									"numoutlets" : 2,
									"outlettype" : [ "", "FullPacket" ],
									"patching_rect" : [ 754.0, 173.0, 77.0, 22.0 ],
									"style" : "",
									"text" : "o.route /func"
								}

							}
, 							{
								"box" : 								{
									"id" : "obj-20",
									"maxclass" : "button",
									"numinlets" : 1,
									"numoutlets" : 1,
									"outlettype" : [ "bang" ],
									"patching_rect" : [ 448.100006, 744.0, 24.0, 24.0 ],
									"style" : ""
								}

							}
, 							{
								"box" : 								{
									"id" : "obj-17",
									"maxclass" : "newobj",
									"numinlets" : 1,
									"numoutlets" : 1,
									"outlettype" : [ "" ],
									"patcher" : 									{
										"fileversion" : 1,
										"appversion" : 										{
											"major" : 7,
											"minor" : 0,
											"revision" : 6,
											"architecture" : "x64",
											"modernui" : 1
										}
,
										"rect" : [ 25.0, 70.0, 640.0, 480.0 ],
										"bglocked" : 0,
										"openinpresentation" : 0,
										"default_fontsize" : 12.0,
										"default_fontface" : 0,
										"default_fontname" : "Arial",
										"gridonopen" : 1,
										"gridsize" : [ 15.0, 15.0 ],
										"gridsnaponopen" : 1,
										"objectsnaponopen" : 1,
										"statusbarvisible" : 2,
										"toolbarvisible" : 1,
										"lefttoolbarpinned" : 0,
										"toptoolbarpinned" : 0,
										"righttoolbarpinned" : 0,
										"bottomtoolbarpinned" : 0,
										"toolbars_unpinned_last_save" : 15,
										"tallnewobj" : 0,
										"boxanimatetime" : 200,
										"enablehscroll" : 1,
										"enablevscroll" : 1,
										"devicewidth" : 0.0,
										"description" : "",
										"digest" : "",
										"tags" : "",
										"style" : "",
										"subpatcher_template" : "no-menus",
										"boxes" : [ 											{
												"box" : 												{
													"comment" : "",
													"id" : "obj-1",
													"maxclass" : "outlet",
													"numinlets" : 1,
													"numoutlets" : 0,
													"patching_rect" : [ 50.0, 233.5, 30.0, 30.0 ],
													"style" : ""
												}

											}
, 											{
												"box" : 												{
													"id" : "obj-13",
													"maxclass" : "newobj",
													"numinlets" : 1,
													"numoutlets" : 2,
													"outlettype" : [ "", "" ],
													"patching_rect" : [ 50.0, 144.5, 50.0, 22.0 ],
													"style" : "",
													"text" : "t l l"
												}

											}
, 											{
												"box" : 												{
													"id" : "obj-12",
													"maxclass" : "newobj",
													"numinlets" : 2,
													"numoutlets" : 1,
													"outlettype" : [ "FullPacket" ],
													"patching_rect" : [ 50.0, 112.5, 50.0, 22.0 ],
													"style" : "",
													"text" : "o.union"
												}

											}
, 											{
												"box" : 												{
													"comment" : "",
													"id" : "obj-15",
													"maxclass" : "inlet",
													"numinlets" : 0,
													"numoutlets" : 1,
													"outlettype" : [ "FullPacket" ],
													"patching_rect" : [ 50.0, 40.0, 30.0, 30.0 ],
													"style" : ""
												}

											}
 ],
										"lines" : [ 											{
												"patchline" : 												{
													"destination" : [ "obj-13", 0 ],
													"disabled" : 0,
													"hidden" : 0,
													"source" : [ "obj-12", 0 ]
												}

											}
, 											{
												"patchline" : 												{
													"destination" : [ "obj-1", 0 ],
													"disabled" : 0,
													"hidden" : 0,
													"source" : [ "obj-13", 0 ]
												}

											}
, 											{
												"patchline" : 												{
													"destination" : [ "obj-12", 1 ],
													"disabled" : 0,
													"hidden" : 0,
													"midpoints" : [ 90.5, 176.5, 112.5, 176.5, 112.5, 101.5, 90.5, 101.5 ],
													"source" : [ "obj-13", 1 ]
												}

											}
, 											{
												"patchline" : 												{
													"destination" : [ "obj-12", 0 ],
													"disabled" : 0,
													"hidden" : 0,
													"source" : [ "obj-15", 0 ]
												}

											}
 ]
									}
,
									"patching_rect" : [ 542.599976, 736.5, 92.0, 22.0 ],
									"saved_object_attributes" : 									{
										"description" : "",
										"digest" : "",
										"globalpatchername" : "",
										"style" : "",
										"tags" : ""
									}
,
									"style" : "",
									"text" : "p o.accumulate"
								}

							}
, 							{
								"box" : 								{
									"id" : "obj-10",
									"maxclass" : "newobj",
									"numinlets" : 1,
									"numoutlets" : 1,
									"outlettype" : [ "FullPacket" ],
									"patching_rect" : [ 401.0, 403.0, 100.0, 22.0 ],
									"style" : "",
									"text" : "o.prepend /down"
								}

							}
, 							{
								"box" : 								{
									"bgmode" : 0,
									"border" : 0,
									"clickthrough" : 0,
									"enablehscroll" : 0,
									"enablevscroll" : 0,
									"id" : "obj-11",
									"lockeddragscroll" : 0,
									"maxclass" : "bpatcher",
									"name" : "m158.o.function.maxpat",
									"numinlets" : 1,
									"numoutlets" : 1,
									"offset" : [ 0.0, 0.0 ],
									"outlettype" : [ "FullPacket" ],
									"patching_rect" : [ 401.0, 219.0, 337.0, 113.0 ],
									"presentation" : 1,
									"presentation_rect" : [ 368.0, 350.0, 337.0, 113.0 ],
									"viewvisibility" : 1
								}

							}
, 							{
								"box" : 								{
									"id" : "obj-8",
									"maxclass" : "newobj",
									"numinlets" : 1,
									"numoutlets" : 1,
									"outlettype" : [ "FullPacket" ],
									"patching_rect" : [ 754.0, 385.0, 87.0, 22.0 ],
									"style" : "",
									"text" : "o.prepend /left"
								}

							}
, 							{
								"box" : 								{
									"bgmode" : 0,
									"border" : 0,
									"clickthrough" : 0,
									"enablehscroll" : 0,
									"enablevscroll" : 0,
									"id" : "obj-9",
									"lockeddragscroll" : 0,
									"maxclass" : "bpatcher",
									"name" : "m158.o.function.maxpat",
									"numinlets" : 1,
									"numoutlets" : 1,
									"offset" : [ 0.0, 0.0 ],
									"outlettype" : [ "FullPacket" ],
									"patching_rect" : [ 754.0, 211.0, 337.0, 113.0 ],
									"presentation" : 1,
									"presentation_rect" : [ 23.0, 205.0, 337.0, 113.0 ],
									"viewvisibility" : 1
								}

							}
, 							{
								"box" : 								{
									"id" : "obj-7",
									"maxclass" : "newobj",
									"numinlets" : 1,
									"numoutlets" : 1,
									"outlettype" : [ "FullPacket" ],
									"patching_rect" : [ 1103.0, 385.0, 95.0, 22.0 ],
									"style" : "",
									"text" : "o.prepend /right"
								}

							}
, 							{
								"box" : 								{
									"id" : "obj-6",
									"maxclass" : "newobj",
									"numinlets" : 1,
									"numoutlets" : 1,
									"outlettype" : [ "FullPacket" ],
									"patching_rect" : [ 42.0, 391.0, 85.0, 22.0 ],
									"style" : "",
									"text" : "o.prepend /up"
								}

							}
, 							{
								"box" : 								{
									"bgmode" : 0,
									"border" : 0,
									"clickthrough" : 0,
									"enablehscroll" : 0,
									"enablevscroll" : 0,
									"id" : "obj-5",
									"lockeddragscroll" : 0,
									"maxclass" : "bpatcher",
									"name" : "m158.o.function.maxpat",
									"numinlets" : 1,
									"numoutlets" : 1,
									"offset" : [ 0.0, 0.0 ],
									"outlettype" : [ "FullPacket" ],
									"patching_rect" : [ 1103.0, 211.0, 337.0, 113.0 ],
									"presentation" : 1,
									"presentation_rect" : [ 726.0, 205.0, 337.0, 113.0 ],
									"viewvisibility" : 1
								}

							}
, 							{
								"box" : 								{
									"bgmode" : 0,
									"border" : 0,
									"clickthrough" : 0,
									"enablehscroll" : 0,
									"enablevscroll" : 0,
									"id" : "obj-3",
									"lockeddragscroll" : 0,
									"maxclass" : "bpatcher",
									"name" : "m158.o.function.maxpat",
									"numinlets" : 1,
									"numoutlets" : 1,
									"offset" : [ 0.0, 0.0 ],
									"outlettype" : [ "FullPacket" ],
									"patching_rect" : [ 42.0, 226.0, 337.0, 113.0 ],
									"presentation" : 1,
									"presentation_rect" : [ 368.0, 50.0, 337.0, 113.0 ],
									"viewvisibility" : 1
								}

							}
, 							{
								"box" : 								{
									"comment" : "",
									"id" : "obj-31",
									"maxclass" : "inlet",
									"numinlets" : 0,
									"numoutlets" : 1,
									"outlettype" : [ "" ],
									"patching_rect" : [ 365.600006, 7.0, 30.0, 30.0 ],
									"style" : ""
								}

							}
, 							{
								"box" : 								{
									"comment" : "",
									"id" : "obj-32",
									"maxclass" : "outlet",
									"numinlets" : 1,
									"numoutlets" : 0,
									"patching_rect" : [ 542.599976, 773.184753, 30.0, 30.0 ],
									"style" : ""
								}

							}
 ],
						"lines" : [ 							{
								"patchline" : 								{
									"color" : [ 0.65, 0.174715, 0.0, 1.0 ],
									"destination" : [ "obj-17", 0 ],
									"disabled" : 0,
									"hidden" : 0,
									"source" : [ "obj-1", 5 ]
								}

							}
, 							{
								"patchline" : 								{
									"destination" : [ "obj-2", 0 ],
									"disabled" : 0,
									"hidden" : 0,
									"source" : [ "obj-1", 4 ]
								}

							}
, 							{
								"patchline" : 								{
									"destination" : [ "obj-26", 0 ],
									"disabled" : 0,
									"hidden" : 0,
									"source" : [ "obj-1", 2 ]
								}

							}
, 							{
								"patchline" : 								{
									"destination" : [ "obj-27", 0 ],
									"disabled" : 0,
									"hidden" : 0,
									"source" : [ "obj-1", 0 ]
								}

							}
, 							{
								"patchline" : 								{
									"destination" : [ "obj-28", 0 ],
									"disabled" : 0,
									"hidden" : 0,
									"source" : [ "obj-1", 3 ]
								}

							}
, 							{
								"patchline" : 								{
									"destination" : [ "obj-29", 0 ],
									"disabled" : 0,
									"hidden" : 0,
									"source" : [ "obj-1", 1 ]
								}

							}
, 							{
								"patchline" : 								{
									"destination" : [ "obj-17", 0 ],
									"disabled" : 0,
									"hidden" : 0,
									"source" : [ "obj-10", 0 ]
								}

							}
, 							{
								"patchline" : 								{
									"destination" : [ "obj-14", 0 ],
									"disabled" : 0,
									"hidden" : 0,
									"source" : [ "obj-11", 0 ]
								}

							}
, 							{
								"patchline" : 								{
									"destination" : [ "obj-18", 0 ],
									"disabled" : 0,
									"hidden" : 0,
									"source" : [ "obj-12", 0 ]
								}

							}
, 							{
								"patchline" : 								{
									"destination" : [ "obj-6", 0 ],
									"disabled" : 0,
									"hidden" : 0,
									"source" : [ "obj-13", 0 ]
								}

							}
, 							{
								"patchline" : 								{
									"destination" : [ "obj-10", 0 ],
									"disabled" : 0,
									"hidden" : 0,
									"source" : [ "obj-14", 0 ]
								}

							}
, 							{
								"patchline" : 								{
									"destination" : [ "obj-8", 0 ],
									"disabled" : 0,
									"hidden" : 0,
									"source" : [ "obj-15", 0 ]
								}

							}
, 							{
								"patchline" : 								{
									"destination" : [ "obj-7", 0 ],
									"disabled" : 0,
									"hidden" : 0,
									"source" : [ "obj-16", 0 ]
								}

							}
, 							{
								"patchline" : 								{
									"destination" : [ "obj-32", 0 ],
									"disabled" : 0,
									"hidden" : 0,
									"source" : [ "obj-17", 0 ]
								}

							}
, 							{
								"patchline" : 								{
									"destination" : [ "obj-4", 0 ],
									"disabled" : 0,
									"hidden" : 0,
									"source" : [ "obj-18", 0 ]
								}

							}
, 							{
								"patchline" : 								{
									"destination" : [ "obj-12", 0 ],
									"disabled" : 0,
									"hidden" : 0,
									"source" : [ "obj-2", 0 ]
								}

							}
, 							{
								"patchline" : 								{
									"destination" : [ "obj-4", 0 ],
									"disabled" : 0,
									"hidden" : 0,
									"source" : [ "obj-2", 1 ]
								}

							}
, 							{
								"patchline" : 								{
									"destination" : [ "obj-17", 0 ],
									"disabled" : 0,
									"hidden" : 0,
									"source" : [ "obj-20", 0 ]
								}

							}
, 							{
								"patchline" : 								{
									"color" : [ 0.0, 0.626398, 1.0, 0.58 ],
									"destination" : [ "obj-11", 0 ],
									"disabled" : 0,
									"hidden" : 0,
									"source" : [ "obj-21", 0 ]
								}

							}
, 							{
								"patchline" : 								{
									"color" : [ 0.0, 0.626398, 1.0, 0.58 ],
									"destination" : [ "obj-12", 0 ],
									"disabled" : 0,
									"hidden" : 0,
									"source" : [ "obj-21", 0 ]
								}

							}
, 							{
								"patchline" : 								{
									"color" : [ 0.0, 0.626398, 1.0, 0.58 ],
									"destination" : [ "obj-3", 0 ],
									"disabled" : 0,
									"hidden" : 0,
									"source" : [ "obj-21", 0 ]
								}

							}
, 							{
								"patchline" : 								{
									"color" : [ 0.0, 0.626398, 1.0, 0.58 ],
									"destination" : [ "obj-5", 0 ],
									"disabled" : 0,
									"hidden" : 0,
									"source" : [ "obj-21", 0 ]
								}

							}
, 							{
								"patchline" : 								{
									"color" : [ 0.0, 0.626398, 1.0, 0.58 ],
									"destination" : [ "obj-9", 0 ],
									"disabled" : 0,
									"hidden" : 0,
									"source" : [ "obj-21", 0 ]
								}

							}
, 							{
								"patchline" : 								{
									"destination" : [ "obj-21", 0 ],
									"disabled" : 0,
									"hidden" : 0,
									"source" : [ "obj-22", 0 ]
								}

							}
, 							{
								"patchline" : 								{
									"destination" : [ "obj-8", 0 ],
									"disabled" : 0,
									"hidden" : 0,
									"source" : [ "obj-26", 1 ]
								}

							}
, 							{
								"patchline" : 								{
									"destination" : [ "obj-9", 0 ],
									"disabled" : 0,
									"hidden" : 0,
									"source" : [ "obj-26", 0 ]
								}

							}
, 							{
								"patchline" : 								{
									"destination" : [ "obj-3", 0 ],
									"disabled" : 0,
									"hidden" : 0,
									"source" : [ "obj-27", 0 ]
								}

							}
, 							{
								"patchline" : 								{
									"destination" : [ "obj-6", 0 ],
									"disabled" : 0,
									"hidden" : 0,
									"source" : [ "obj-27", 1 ]
								}

							}
, 							{
								"patchline" : 								{
									"destination" : [ "obj-5", 0 ],
									"disabled" : 0,
									"hidden" : 0,
									"source" : [ "obj-28", 0 ]
								}

							}
, 							{
								"patchline" : 								{
									"destination" : [ "obj-7", 0 ],
									"disabled" : 0,
									"hidden" : 0,
									"source" : [ "obj-28", 1 ]
								}

							}
, 							{
								"patchline" : 								{
									"destination" : [ "obj-10", 0 ],
									"disabled" : 0,
									"hidden" : 0,
									"source" : [ "obj-29", 1 ]
								}

							}
, 							{
								"patchline" : 								{
									"destination" : [ "obj-11", 0 ],
									"disabled" : 0,
									"hidden" : 0,
									"source" : [ "obj-29", 0 ]
								}

							}
, 							{
								"patchline" : 								{
									"destination" : [ "obj-13", 0 ],
									"disabled" : 0,
									"hidden" : 0,
									"source" : [ "obj-3", 0 ]
								}

							}
, 							{
								"patchline" : 								{
									"destination" : [ "obj-1", 0 ],
									"disabled" : 0,
									"hidden" : 0,
									"source" : [ "obj-31", 0 ]
								}

							}
, 							{
								"patchline" : 								{
									"destination" : [ "obj-17", 0 ],
									"disabled" : 0,
									"hidden" : 0,
									"source" : [ "obj-4", 0 ]
								}

							}
, 							{
								"patchline" : 								{
									"destination" : [ "obj-16", 0 ],
									"disabled" : 0,
									"hidden" : 0,
									"source" : [ "obj-5", 0 ]
								}

							}
, 							{
								"patchline" : 								{
									"destination" : [ "obj-17", 0 ],
									"disabled" : 0,
									"hidden" : 0,
									"source" : [ "obj-6", 0 ]
								}

							}
, 							{
								"patchline" : 								{
									"destination" : [ "obj-17", 0 ],
									"disabled" : 0,
									"hidden" : 0,
									"source" : [ "obj-7", 0 ]
								}

							}
, 							{
								"patchline" : 								{
									"destination" : [ "obj-17", 0 ],
									"disabled" : 0,
									"hidden" : 0,
									"source" : [ "obj-8", 0 ]
								}

							}
, 							{
								"patchline" : 								{
									"destination" : [ "obj-15", 0 ],
									"disabled" : 0,
									"hidden" : 0,
									"source" : [ "obj-9", 0 ]
								}

							}
 ]
					}
,
					"patching_rect" : [ 218.5, 295.0, 69.0, 22.0 ],
					"saved_object_attributes" : 					{
						"description" : "",
						"digest" : "",
						"globalpatchername" : "",
						"style" : "",
						"tags" : ""
					}
,
					"style" : "",
					"text" : "p functions"
				}

			}
, 			{
				"box" : 				{
					"id" : "obj-18",
					"maxclass" : "newobj",
					"numinlets" : 2,
					"numoutlets" : 1,
					"outlettype" : [ "FullPacket" ],
					"patching_rect" : [ 137.5, 333.0, 100.0, 22.0 ],
					"style" : "",
					"text" : "o.union"
				}

			}
, 			{
				"box" : 				{
					"bgmode" : 0,
					"border" : 0,
					"clickthrough" : 0,
					"enablehscroll" : 0,
					"enablevscroll" : 0,
					"id" : "obj-16",
					"lockeddragscroll" : 0,
					"maxclass" : "bpatcher",
					"name" : "o.io.serial.display.maxpat",
					"numinlets" : 1,
					"numoutlets" : 1,
					"offset" : [ 3.0, 0.0 ],
					"outlettype" : [ "FullPacket" ],
					"patching_rect" : [ 218.5, 87.0, 164.0, 24.0 ],
					"viewvisibility" : 1
				}

			}
 ],
		"lines" : [ 			{
				"patchline" : 				{
					"destination" : [ "obj-42", 1 ],
					"disabled" : 0,
					"hidden" : 0,
					"source" : [ "obj-16", 0 ]
				}

			}
, 			{
				"patchline" : 				{
					"destination" : [ "obj-51", 0 ],
					"disabled" : 0,
					"hidden" : 0,
					"source" : [ "obj-18", 0 ]
				}

			}
, 			{
				"patchline" : 				{
					"destination" : [ "obj-18", 1 ],
					"disabled" : 0,
					"hidden" : 0,
					"source" : [ "obj-33", 0 ]
				}

			}
, 			{
				"patchline" : 				{
					"destination" : [ "obj-62", 0 ],
					"disabled" : 0,
					"hidden" : 0,
					"source" : [ "obj-33", 0 ]
				}

			}
, 			{
				"patchline" : 				{
					"destination" : [ "obj-33", 0 ],
					"disabled" : 0,
					"hidden" : 0,
					"source" : [ "obj-34", 0 ]
				}

			}
, 			{
				"patchline" : 				{
					"destination" : [ "obj-16", 0 ],
					"disabled" : 0,
					"hidden" : 0,
					"midpoints" : [ 228.0, 159.0, 434.0, 159.0, 434.0, 76.0, 228.0, 76.0 ],
					"source" : [ "obj-42", 1 ]
				}

			}
, 			{
				"patchline" : 				{
					"destination" : [ "obj-50", 0 ],
					"disabled" : 0,
					"hidden" : 0,
					"source" : [ "obj-42", 0 ]
				}

			}
, 			{
				"patchline" : 				{
					"destination" : [ "obj-54", 0 ],
					"disabled" : 0,
					"hidden" : 0,
					"source" : [ "obj-42", 0 ]
				}

			}
, 			{
				"patchline" : 				{
					"destination" : [ "obj-52", 0 ],
					"disabled" : 0,
					"hidden" : 0,
					"source" : [ "obj-50", 0 ]
				}

			}
, 			{
				"patchline" : 				{
					"destination" : [ "obj-56", 0 ],
					"disabled" : 0,
					"hidden" : 0,
					"source" : [ "obj-51", 0 ]
				}

			}
, 			{
				"patchline" : 				{
					"destination" : [ "obj-18", 0 ],
					"disabled" : 0,
					"hidden" : 0,
					"source" : [ "obj-52", 0 ]
				}

			}
, 			{
				"patchline" : 				{
					"destination" : [ "obj-3", 0 ],
					"disabled" : 0,
					"hidden" : 0,
					"source" : [ "obj-56", 0 ]
				}

			}
, 			{
				"patchline" : 				{
					"destination" : [ "obj-57", 1 ],
					"disabled" : 0,
					"hidden" : 0,
					"source" : [ "obj-56", 0 ]
				}

			}
, 			{
				"patchline" : 				{
					"destination" : [ "obj-34", 0 ],
					"disabled" : 0,
					"hidden" : 0,
					"source" : [ "obj-59", 0 ]
				}

			}
 ],
		"dependency_cache" : [ 			{
				"name" : "o.io.serial.display.maxpat",
				"bootpath" : "~/Documents/Max 7/Packages/CNMAT-MMJSS/patchers/esplora",
				"type" : "JSON",
				"implicit" : 1
			}
, 			{
				"name" : "m158.o.function.maxpat",
				"bootpath" : "~/Documents/dev-lib/CNMAT-Pedagogy/Music-158-Fall2015/section-2/week04_elements_of_sound_synthesis/week-4-inclass",
				"type" : "JSON",
				"implicit" : 1
			}
, 			{
				"name" : "o.io.esplora.maxpat",
				"bootpath" : "~/Documents/Max 7/Packages/CNMAT-MMJSS/patchers/esplora",
				"type" : "JSON",
				"implicit" : 1
			}
, 			{
				"name" : "o.io.slipserial.maxpat",
				"bootpath" : "~/Documents/Max 7/Packages/CNMAT-MMJSS/patchers/esplora",
				"type" : "JSON",
				"implicit" : 1
			}
, 			{
				"name" : "o.righttoleft.maxpat",
				"bootpath" : "~/Documents/dev-lib/CNMAT-odot/patchers/ordering",
				"type" : "JSON",
				"implicit" : 1
			}
, 			{
				"name" : "o.maxplatform.maxpat",
				"bootpath" : "~/Documents/Max 7/Packages/CNMAT-MMJSS/patchers",
				"type" : "JSON",
				"implicit" : 1
			}
, 			{
				"name" : "o.pack.mxo",
				"type" : "iLaX"
			}
, 			{
				"name" : "o.route.mxo",
				"type" : "iLaX"
			}
, 			{
				"name" : "o.union.mxo",
				"type" : "iLaX"
			}
, 			{
				"name" : "o.expr.codebox.mxo",
				"type" : "iLaX"
			}
, 			{
				"name" : "o.cond.mxo",
				"type" : "iLaX"
			}
, 			{
				"name" : "o.prepend.mxo",
				"type" : "iLaX"
			}
, 			{
				"name" : "o.compose.mxo",
				"type" : "iLaX"
			}
, 			{
				"name" : "o.validate.mxo",
				"type" : "iLaX"
			}
, 			{
				"name" : "o.slip.encode.mxo",
				"type" : "iLaX"
			}
, 			{
				"name" : "o.slip.decode.mxo",
				"type" : "iLaX"
			}
, 			{
				"name" : "o.if.mxo",
				"type" : "iLaX"
			}
, 			{
				"name" : "o.downcast.mxo",
				"type" : "iLaX"
			}
 ],
		"embedsnapshot" : 0,
		"bgfillcolor_type" : "gradient",
		"bgfillcolor_color1" : [ 0.376471, 0.384314, 0.4, 1.0 ],
		"bgfillcolor_color2" : [ 0.290196, 0.309804, 0.301961, 1.0 ],
		"bgfillcolor_color" : [ 0.290196, 0.309804, 0.301961, 1.0 ],
		"bgfillcolor_angle" : 270.0,
		"bgfillcolor_proportion" : 0.39
	}

}
